because-we-build.ufo
<glyph name="exclam" format="1">
  <advance width="204"/>
  <unicode hex="0021"/>
  <outline>
    <contour>
      <point x="155" y="177" type="line"/>
      <point x="153" y="293"/>
      <point x="151" y="357"/>
      <point x="151" y="443" type="curve" smooth="yes"/>
      <point x="151" y="488"/>
      <point x="151" y="540"/>
      <point x="154" y="608" type="curve"/>
      <point x="168" y="617"/>
      <point x="172" y="628"/>
      <point x="172" y="638" type="curve" smooth="yes"/>
      <point x="172" y="657"/>
      <point x="158" y="670"/>
      <point x="139" y="670" type="curve" smooth="yes"/>
      <point x="115" y="670" type="line" smooth="yes"/>
      <point x="83" y="670"/>
      <point x="48" y="667"/>
      <point x="48" y="637" type="curve" smooth="yes"/>
      <point x="48" y="617"/>
      <point x="65" y="605"/>
      <point x="87" y="605" type="curve"/>
      <point x="85" y="535"/>
      <point x="84" y="495"/>
      <point x="84" y="459" type="curve" smooth="yes"/>
      <point x="84" y="408"/>
      <point x="85" y="301"/>
      <point x="88" y="176" type="curve"/>
      <point x="68" y="171"/>
      <point x="54" y="165"/>
      <point x="54" y="144" type="curve" smooth="yes"/>
      <point x="54" y="116"/>
      <point x="86" y="111"/>
      <point x="115" y="111" type="curve" smooth="yes"/>
      <point x="128" y="111"/>
      <point x="140" y="112"/>
      <point x="148" y="112" type="curve"/>
      <point x="165" y="114"/>
      <point x="179" y="127"/>
      <point x="179" y="145" type="curve" smooth="yes"/>
      <point x="179" y="156"/>
      <point x="173" y="167"/>
      <point x="161" y="174" type="curve" smooth="yes"/>
    </contour>
    <contour>
      <point x="117" y="67" type="line"/>
      <point x="95" y="67"/>
      <point x="81" y="50"/>
      <point x="81" y="28" type="curve" smooth="yes"/>
      <point x="81" y="2"/>
      <point x="99" y="-16"/>
      <point x="121" y="-16" type="curve" smooth="yes"/>
      <point x="141" y="-16"/>
      <point x="161" y="3"/>
      <point x="161" y="25" type="curve" smooth="yes"/>
      <point x="161" y="46"/>
      <point x="142" y="67"/>
      <point x="117" y="67" type="curve" smooth="yes"/>
    </contour>
  </outline>
</glyph>
<glyph name="quotedbl" format="1">
  <advance width="189"/>
  <unicode hex="0022"/>
  <outline>
    <contour>
      <point x="32" y="600" type="line"/>
      <point x="31" y="571"/>
      <point x="28" y="546"/>
      <point x="28" y="524" type="curve" smooth="yes"/>
      <point x="28" y="495"/>
      <point x="34" y="471"/>
      <point x="57" y="471" type="curve" smooth="yes"/>
      <point x="86" y="471"/>
      <point x="89" y="503"/>
      <point x="89" y="536" type="curve" smooth="yes"/>
      <point x="89" y="571" type="line" smooth="yes"/>
      <point x="89" y="606"/>
      <point x="84" y="633"/>
      <point x="61" y="633" type="curve" smooth="yes"/>
      <point x="47" y="633"/>
      <point x="32" y="620"/>
      <point x="32" y="600" type="curve" smooth="yes"/>
    </contour>
    <contour>
      <point x="159" y="489" type="line"/>
      <point x="162" y="497"/>
      <point x="163" y="508"/>
      <point x="163" y="518" type="curve" smooth="yes"/>
      <point x="163" y="543"/>
      <point x="158" y="570"/>
      <point x="157" y="588" type="curve" smooth="yes"/>
      <point x="156" y="594" type="line"/>
      <point x="156" y="609"/>
      <point x="146" y="623"/>
      <point x="129" y="623" type="curve" smooth="yes"/>
      <point x="100" y="623"/>
      <point x="99" y="577"/>
      <point x="99" y="550" type="curve" smooth="yes"/>
      <point x="99" y="496"/>
      <point x="110" y="467"/>
      <point x="133" y="467" type="curve" smooth="yes"/>
      <point x="145" y="467"/>
      <point x="155" y="476"/>
      <point x="159" y="489" type="curve" smooth="yes"/>
    </contour>
  </outline>
</glyph>
<glyph name="numbersign" format="1">
  <advance width="446"/>
  <unicode hex="0023"/>
  <outline>
    <contour>
      <point x="409" y="405" type="line"/>
      <point x="403" y="407"/>
      <point x="397" y="408"/>
      <point x="389" y="408" type="curve" smooth="yes"/>
      <point x="358" y="406"/>
      <point x="330" y="403"/>
      <point x="300" y="403" type="curve"/>
      <point x="300" y="427" type="line" smooth="yes"/>
      <point x="300" y="470"/>
      <point x="297" y="526"/>
      <point x="266" y="526" type="curve" smooth="yes"/>
      <point x="247" y="526"/>
      <point x="239" y="509"/>
      <point x="239" y="490" type="curve" smooth="yes"/>
      <point x="239" y="461"/>
      <point x="243" y="433"/>
      <point x="243" y="406" type="curve" smooth="yes"/>
      <point x="243" y="398" type="line"/>
      <point x="175" y="389" type="line"/>
      <point x="175" y="402"/>
      <point x="176" y="417"/>
      <point x="176" y="432" type="curve" smooth="yes"/>
      <point x="176" y="470"/>
      <point x="171" y="505"/>
      <point x="142" y="505" type="curve"/>
      <point x="124" y="503"/>
      <point x="116" y="489"/>
      <point x="116" y="468" type="curve" smooth="yes"/>
      <point x="116" y="440"/>
      <point x="118" y="410"/>
      <point x="118" y="381" type="curve"/>
      <point x="87" y="376"/>
      <point x="25" y="381"/>
      <point x="25" y="345" type="curve" smooth="yes"/>
      <point x="25" y="329"/>
      <point x="39" y="318"/>
      <point x="55" y="318" type="curve" smooth="yes"/>
      <point x="79" y="318"/>
      <point x="106" y="323"/>
      <point x="120" y="323" type="curve"/>
      <point x="123" y="250" type="line"/>
      <point x="92" y="235"/>
      <point x="39" y="246"/>
      <point x="39" y="211" type="curve" smooth="yes"/>
      <point x="39" y="194"/>
      <point x="54" y="184"/>
      <point x="72" y="184" type="curve" smooth="yes"/>
      <point x="90" y="184"/>
      <point x="109" y="192"/>
      <point x="126" y="192" type="curve"/>
      <point x="129" y="178"/>
      <point x="129" y="158"/>
      <point x="131" y="141" type="curve"/>
      <point x="131" y="119"/>
      <point x="137" y="90"/>
      <point x="161" y="90" type="curve" smooth="yes"/>
      <point x="178" y="90"/>
      <point x="188" y="103"/>
      <point x="190" y="117" type="curve" smooth="yes"/>
      <point x="190" y="121"/>
      <point x="189" y="124"/>
      <point x="189" y="128" type="curve" smooth="yes"/>
      <point x="188" y="145" type="line" smooth="yes"/>
      <point x="187" y="164"/>
      <point x="184" y="184"/>
      <point x="183" y="203" type="curve"/>
      <point x="209" y="207"/>
      <point x="234" y="212"/>
      <point x="259" y="214" type="curve"/>
      <point x="264" y="179"/>
      <point x="266" y="146"/>
      <point x="271" y="110" type="curve"/>
      <point x="271" y="89"/>
      <point x="278" y="66"/>
      <point x="303" y="66" type="curve" smooth="yes"/>
      <point x="324" y="66"/>
      <point x="329" y="84"/>
      <point x="329" y="104" type="curve"/>
      <point x="325" y="140"/>
      <point x="316" y="180"/>
      <point x="316" y="220" type="curve"/>
      <point x="320" y="220" type="line" smooth="yes"/>
      <point x="347" y="220"/>
      <point x="399" y="220"/>
      <point x="399" y="253" type="curve" smooth="yes"/>
      <point x="399" y="270"/>
      <point x="385" y="281"/>
      <point x="365" y="281" type="curve"/>
      <point x="345" y="278"/>
      <point x="328" y="277"/>
      <point x="309" y="277" type="curve"/>
      <point x="303" y="346" type="line"/>
      <point x="329" y="348"/>
      <point x="355" y="348"/>
      <point x="381" y="350" type="curve" smooth="yes"/>
      <point x="394" y="351" type="line" smooth="yes"/>
      <point x="413" y="352"/>
      <point x="428" y="358"/>
      <point x="428" y="380" type="curve" smooth="yes"/>
      <point x="428" y="392"/>
      <point x="421" y="402"/>
      <point x="409" y="405" type="curve" smooth="yes"/>
    </contour>
    <contour>
      <point x="252" y="271" type="line"/>
      <point x="180" y="261" type="line"/>
      <point x="177" y="331" type="line"/>
      <point x="198" y="335"/>
      <point x="221" y="338"/>
      <point x="246" y="340" type="curve"/>
    </contour>
  </outline>
</glyph>
<glyph name="dollar" format="1">
  <advance width="397"/>
  <unicode hex="0024"/>
  <outline>
    <contour>
      <point x="270" y="562" type="line"/>
      <point x="261" y="575"/>
      <point x="248" y="588"/>
      <point x="233" y="598" type="curve"/>
      <point x="233" y="619"/>
      <point x="234" y="635"/>
      <point x="234" y="639" type="curve"/>
      <point x="248" y="648"/>
      <point x="252" y="659"/>
      <point x="252" y="669" type="curve" smooth="yes"/>
      <point x="252" y="688"/>
      <point x="237" y="696"/>
      <point x="218" y="696" type="curve" smooth="yes"/>
      <point x="202" y="696" type="line" smooth="yes"/>
      <point x="170" y="696"/>
      <point x="145" y="687"/>
      <point x="145" y="671" type="curve" smooth="yes"/>
      <point x="145" y="651"/>
      <point x="153" y="636"/>
      <point x="175" y="636" type="curve"/>
      <point x="175" y="611" type="line"/>
      <point x="124" y="603"/>
      <point x="32" y="556"/>
      <point x="32" y="490" type="curve" smooth="yes"/>
      <point x="32" y="385"/>
      <point x="111" y="329"/>
      <point x="187" y="280" type="curve"/>
      <point x="186" y="240"/>
      <point x="185" y="160"/>
      <point x="185" y="90" type="curve"/>
      <point x="160" y="117"/>
      <point x="137" y="152"/>
      <point x="119" y="184" type="curve" smooth="yes"/>
      <point x="110" y="202" type="line"/>
      <point x="118" y="207"/>
      <point x="126" y="218"/>
      <point x="126" y="228" type="curve" smooth="yes"/>
      <point x="126" y="246"/>
      <point x="110" y="256"/>
      <point x="99" y="256" type="curve" smooth="yes"/>
      <point x="64" y="256"/>
      <point x="14" y="216"/>
      <point x="14" y="194" type="curve" smooth="yes"/>
      <point x="14" y="176"/>
      <point x="32" y="170"/>
      <point x="39" y="170" type="curve" smooth="yes"/>
      <point x="50" y="170"/>
      <point x="57" y="174"/>
      <point x="58" y="175" type="curve"/>
      <point x="82" y="119"/>
      <point x="125" y="46"/>
      <point x="185" y="13" type="curve"/>
      <point x="185" y="-22" type="line"/>
      <point x="165" y="-27"/>
      <point x="160" y="-34"/>
      <point x="160" y="-55" type="curve" smooth="yes"/>
      <point x="160" y="-83"/>
      <point x="174" y="-85"/>
      <point x="203" y="-85" type="curve" smooth="yes"/>
      <point x="216" y="-85"/>
      <point x="228" y="-84"/>
      <point x="236" y="-84" type="curve"/>
      <point x="253" y="-82"/>
      <point x="267" y="-71"/>
      <point x="267" y="-53" type="curve" smooth="yes"/>
      <point x="267" y="-42"/>
      <point x="261" y="-31"/>
      <point x="249" y="-24" type="curve" smooth="yes"/>
      <point x="243" y="-21" type="line"/>
      <point x="243" y="-5" type="line"/>
      <point x="306" y="-5"/>
      <point x="378" y="73"/>
      <point x="378" y="123" type="curve" smooth="yes"/>
      <point x="378" y="161"/>
      <point x="367" y="226"/>
      <point x="230" y="309" type="curve"/>
      <point x="230" y="343"/>
      <point x="231" y="436"/>
      <point x="232" y="518" type="curve"/>
      <point x="252" y="494"/>
      <point x="271" y="465"/>
      <point x="278" y="455" type="curve"/>
      <point x="273" y="450" type="line"/>
      <point x="266" y="446"/>
      <point x="260" y="436"/>
      <point x="260" y="427" type="curve" smooth="yes"/>
      <point x="260" y="413"/>
      <point x="275" y="403"/>
      <point x="288" y="403" type="curve" smooth="yes"/>
      <point x="293" y="403"/>
      <point x="297" y="405"/>
      <point x="302" y="407" type="curve" smooth="yes"/>
      <point x="357" y="436" type="line" smooth="yes"/>
      <point x="366" y="440"/>
      <point x="373" y="451"/>
      <point x="373" y="463" type="curve" smooth="yes"/>
      <point x="373" y="481"/>
      <point x="357" y="489"/>
      <point x="343" y="489" type="curve" smooth="yes"/>
      <point x="338" y="489"/>
      <point x="333" y="487"/>
      <point x="326" y="485" type="curve"/>
      <point x="320" y="494" type="line" smooth="yes"/>
      <point x="311" y="507"/>
      <point x="274" y="558"/>
      <point x="270" y="562" type="curve"/>
    </contour>
    <contour>
      <point x="86" y="484" type="line"/>
      <point x="86" y="523"/>
      <point x="148" y="549"/>
      <point x="178" y="553" type="curve"/>
      <point x="178" y="347" type="line"/>
      <point x="92" y="405"/>
      <point x="86" y="440"/>
      <point x="86" y="484" type="curve" smooth="yes"/>
    </contour>
    <contour>
      <point x="325" y="124" type="line"/>
      <point x="325" y="94"/>
      <point x="277" y="51"/>
      <point x="241" y="52" type="curve"/>
      <point x="240" y="117"/>
      <point x="237" y="206"/>
      <point x="236" y="247" type="curve"/>
      <point x="280" y="214"/>
      <point x="325" y="174"/>
      <point x="325" y="124" type="curve" smooth="yes"/>
    </contour>
  </outline>
</glyph>
<glyph name="percent" format="1">
  <advance width="470"/>
  <unicode hex="0025"/>
  <outline>
    <contour>
      <point x="361" y="548" type="line"/>
      <point x="363" y="553"/>
      <point x="365" y="559"/>
      <point x="365" y="564" type="curve" smooth="yes"/>
      <point x="365" y="569" type="line" smooth="yes"/>
      <point x="365" y="581"/>
      <point x="361" y="600"/>
      <point x="339" y="600" type="curve" smooth="yes"/>
      <point x="307" y="600"/>
      <point x="285" y="505"/>
      <point x="269" y="462" type="curve" smooth="yes"/>
      <point x="218" y="324"/>
      <point x="165" y="187"/>
      <point x="126" y="39" type="curve"/>
      <point x="126" y="33"/>
      <point x="122" y="25"/>
      <point x="122" y="19" type="curve" smooth="yes"/>
      <point x="122" y="4"/>
      <point x="132" y="-9"/>
      <point x="150" y="-9" type="curve" smooth="yes"/>
      <point x="183" y="-9"/>
      <point x="199" y="87"/>
      <point x="215" y="135" type="curve" smooth="yes"/>
      <point x="244" y="222"/>
      <point x="271" y="313"/>
      <point x="306" y="400" type="curve" smooth="yes"/>
      <point x="326" y="449"/>
      <point x="343" y="498"/>
      <point x="361" y="548" type="curve" smooth="yes"/>
    </contour>
    <contour>
      <point x="191" y="450" type="line"/>
      <point x="187" y="484"/>
      <point x="158" y="520"/>
      <point x="122" y="520" type="curve" smooth="yes"/>
      <point x="85" y="520"/>
      <point x="56" y="475"/>
      <point x="56" y="443" type="curve" smooth="yes"/>
      <point x="56" y="407"/>
      <point x="84" y="376"/>
      <point x="120" y="376" type="curve" smooth="yes"/>
      <point x="159" y="376"/>
      <point x="191" y="411"/>
      <point x="191" y="450" type="curve"/>
    </contour>
    <contour>
      <point x="421" y="221" type="line"/>
      <point x="410" y="231"/>
      <point x="396" y="237"/>
      <point x="382" y="237" type="curve" smooth="yes"/>
      <point x="344" y="237"/>
      <point x="315" y="201"/>
      <point x="315" y="162" type="curve" smooth="yes"/>
      <point x="315" y="130"/>
      <point x="337" y="107"/>
      <point x="367" y="107" type="curve" smooth="yes"/>
      <point x="403" y="107"/>
      <point x="439" y="139"/>
      <point x="439" y="181" type="curve" smooth="yes"/>
      <point x="439" y="196"/>
      <point x="432" y="209"/>
      <point x="421" y="221" type="curve"/>
    </contour>
  </outline>
</glyph>
<glyph name="ampersand" format="1">
  <advance width="409"/>
  <unicode hex="0026"/>
  <outline>
    <contour>
      <point x="351" y="52" type="line"/>
      <point x="147" y="81"/>
      <point x="110" y="287"/>
      <point x="110" y="376" type="curve" smooth="yes"/>
      <point x="110" y="425"/>
      <point x="117" y="511"/>
      <point x="173" y="511" type="curve" smooth="yes"/>
      <point x="190" y="511"/>
      <point x="194" y="484"/>
      <point x="194" y="459" type="curve" smooth="yes"/>
      <point x="194" y="354"/>
      <point x="16" y="211"/>
      <point x="16" y="99" type="curve" smooth="yes"/>
      <point x="16" y="42"/>
      <point x="61" y="-1"/>
      <point x="113" y="-1" type="curve" smooth="yes"/>
      <point x="210" y="-1"/>
      <point x="276" y="116"/>
      <point x="292" y="182" type="curve" smooth="yes"/>
      <point x="293" y="187" type="line"/>
      <point x="308" y="188"/>
      <point x="324" y="192"/>
      <point x="324" y="213" type="curve" smooth="yes"/>
      <point x="324" y="248"/>
      <point x="273" y="241"/>
      <point x="252" y="245" type="curve"/>
      <point x="234" y="245"/>
      <point x="220" y="238"/>
      <point x="220" y="220" type="curve" smooth="yes"/>
      <point x="220" y="202"/>
      <point x="230" y="196"/>
      <point x="243" y="193" type="curve"/>
      <point x="239" y="151"/>
      <point x="172" y="55"/>
      <point x="117" y="55" type="curve" smooth="yes"/>
      <point x="96" y="55"/>
      <point x="75" y="71"/>
      <point x="75" y="92" type="curve" smooth="yes"/>
      <point x="75" y="198"/>
      <point x="250" y="344"/>
      <point x="250" y="458" type="curve" smooth="yes"/>
      <point x="250" y="535"/>
      <point x="219" y="565"/>
      <point x="175" y="565" type="curve" smooth="yes"/>
      <point x="83" y="565"/>
      <point x="61" y="456"/>
      <point x="61" y="388" type="curve" smooth="yes"/>
      <point x="61" y="274"/>
      <point x="98" y="27"/>
      <point x="335" y="4" type="curve"/>
      <point x="333" y="-5" type="line"/>
      <point x="333" y="-18"/>
      <point x="343" y="-33"/>
      <point x="357" y="-33" type="curve" smooth="yes"/>
      <point x="384" y="-33"/>
      <point x="398" y="9"/>
      <point x="398" y="38" type="curve" smooth="yes"/>
      <point x="398" y="50"/>
      <point x="392" y="62"/>
      <point x="376" y="62" type="curve" smooth="yes"/>
      <point x="364" y="62"/>
      <point x="356" y="57"/>
      <point x="351" y="52" type="curve"/>
    </contour>
  </outline>
</glyph>
<glyph name="quotesingle" format="1">
  <advance width="125"/>
  <unicode hex="0027"/>
  <outline>
    <contour>
      <point x="32" y="600" type="line"/>
      <point x="31" y="571"/>
      <point x="28" y="546"/>
      <point x="28" y="524" type="curve" smooth="yes"/>
      <point x="28" y="495"/>
      <point x="34" y="471"/>
      <point x="57" y="471" type="curve" smooth="yes"/>
      <point x="86" y="471"/>
      <point x="89" y="503"/>
      <point x="89" y="536" type="curve" smooth="yes"/>
      <point x="89" y="571" type="line" smooth="yes"/>
      <point x="89" y="606"/>
      <point x="84" y="633"/>
      <point x="61" y="633" type="curve" smooth="yes"/>
      <point x="47" y="633"/>
      <point x="32" y="620"/>
      <point x="32" y="600" type="curve" smooth="yes"/>
    </contour>
  </outline>
</glyph>
<glyph name="parenleft" format="1">
  <advance width="209"/>
  <unicode hex="0028"/>
  <outline>
    <contour>
      <point x="153" y="-52" type="line"/>
      <point x="90" y="31"/>
      <point x="85" y="128"/>
      <point x="85" y="244" type="curve" smooth="yes"/>
      <point x="85" y="360"/>
      <point x="104" y="476"/>
      <point x="141" y="580" type="curve" smooth="yes"/>
      <point x="146" y="594"/>
      <point x="159" y="614"/>
      <point x="159" y="631" type="curve" smooth="yes"/>
      <point x="159" y="644"/>
      <point x="148" y="656"/>
      <point x="133" y="656" type="curve" smooth="yes"/>
      <point x="90" y="656"/>
      <point x="70" y="550"/>
      <point x="59" y="506" type="curve" smooth="yes"/>
      <point x="37" y="419"/>
      <point x="28" y="328"/>
      <point x="28" y="225" type="curve" smooth="yes"/>
      <point x="28" y="140"/>
      <point x="39" y="12"/>
      <point x="100" y="-77" type="curve" smooth="yes"/>
      <point x="109" y="-91"/>
      <point x="124" y="-104"/>
      <point x="137" y="-104" type="curve" smooth="yes"/>
      <point x="152" y="-104"/>
      <point x="165" y="-93"/>
      <point x="165" y="-77" type="curve" smooth="yes"/>
      <point x="165" y="-67"/>
      <point x="161" y="-60"/>
      <point x="153" y="-52" type="curve"/>
    </contour>
  </outline>
</glyph>
<glyph name="parenright" format="1">
  <advance width="167"/>
  <unicode hex="0029"/>
  <outline>
    <contour>
      <point x="137" y="285" type="line"/>
      <point x="131" y="400"/>
      <point x="121" y="500"/>
      <point x="100" y="572" type="curve" smooth="yes"/>
      <point x="87" y="617"/>
      <point x="78" y="685"/>
      <point x="45" y="685" type="curve" smooth="yes"/>
      <point x="39" y="685"/>
      <point x="19" y="683"/>
      <point x="19" y="658" type="curve" smooth="yes"/>
      <point x="19" y="644"/>
      <point x="28" y="622"/>
      <point x="32" y="607" type="curve" smooth="yes"/>
      <point x="55" y="521"/>
      <point x="74" y="438"/>
      <point x="78" y="345" type="curve" smooth="yes"/>
      <point x="80" y="308"/>
      <point x="81" y="269"/>
      <point x="81" y="229" type="curve" smooth="yes"/>
      <point x="81" y="129"/>
      <point x="74" y="8"/>
      <point x="35" y="-74" type="curve" smooth="yes"/>
      <point x="32" y="-81"/>
      <point x="29" y="-86"/>
      <point x="29" y="-93" type="curve" smooth="yes"/>
      <point x="29" y="-108"/>
      <point x="41" y="-121"/>
      <point x="56" y="-121" type="curve" smooth="yes"/>
      <point x="93" y="-121"/>
      <point x="119" y="-18"/>
      <point x="126" y="34" type="curve" smooth="yes"/>
      <point x="135" y="97"/>
      <point x="138" y="163"/>
      <point x="139" y="236" type="curve"/>
    </contour>
  </outline>
</glyph>
<glyph name="asterisk" format="1">
  <advance width="255"/>
  <unicode hex="002A"/>
  <outline>
    <contour>
      <point x="150" y="464" type="line"/>
      <point x="190" y="468"/>
      <point x="244" y="466"/>
      <point x="244" y="494" type="curve" smooth="yes"/>
      <point x="244" y="507"/>
      <point x="235" y="517"/>
      <point x="221" y="517" type="curve" smooth="yes"/>
      <point x="200" y="517"/>
      <point x="178" y="513"/>
      <point x="156" y="512" type="curve"/>
      <point x="164" y="538"/>
      <point x="179" y="567"/>
      <point x="179" y="583" type="curve" smooth="yes"/>
      <point x="179" y="595"/>
      <point x="172" y="605"/>
      <point x="159" y="605" type="curve" smooth="yes"/>
      <point x="136" y="605"/>
      <point x="128" y="572"/>
      <point x="113" y="535" type="curve"/>
      <point x="106" y="547"/>
      <point x="84" y="596"/>
      <point x="61" y="596" type="curve" smooth="yes"/>
      <point x="50" y="596"/>
      <point x="40" y="586"/>
      <point x="40" y="576" type="curve" smooth="yes"/>
      <point x="40" y="565"/>
      <point x="63" y="528"/>
      <point x="76" y="503" type="curve"/>
      <point x="75" y="503"/>
      <point x="74" y="502"/>
      <point x="72" y="502" type="curve" smooth="yes"/>
      <point x="54" y="499"/>
      <point x="17" y="492"/>
      <point x="17" y="470" type="curve" smooth="yes"/>
      <point x="17" y="458"/>
      <point x="27" y="449"/>
      <point x="38" y="449" type="curve" smooth="yes"/>
      <point x="50" y="449"/>
      <point x="64" y="455"/>
      <point x="84" y="457" type="curve"/>
      <point x="75" y="425"/>
      <point x="53" y="385"/>
      <point x="53" y="350" type="curve" smooth="yes"/>
      <point x="53" y="337"/>
      <point x="63" y="329"/>
      <point x="74" y="329" type="curve" smooth="yes"/>
      <point x="100" y="329"/>
      <point x="107" y="375"/>
      <point x="120" y="418" type="curve"/>
      <point x="127" y="408"/>
      <point x="147" y="350"/>
      <point x="171" y="350" type="curve" smooth="yes"/>
      <point x="185" y="350"/>
      <point x="194" y="360"/>
      <point x="194" y="372" type="curve" smooth="yes"/>
      <point x="194" y="396"/>
      <point x="165" y="435"/>
      <point x="150" y="464" type="curve"/>
    </contour>
  </outline>
</glyph>
<glyph name="plus" format="1">
  <advance width="439"/>
  <unicode hex="002B"/>
  <outline>
    <contour>
      <point x="216" y="96" type="line"/>
      <point x="213" y="81"/>
      <point x="203" y="71"/>
      <point x="191" y="71" type="curve" smooth="yes"/>
      <point x="173" y="71"/>
      <point x="162" y="86"/>
      <point x="162" y="100" type="curve" smooth="yes"/>
      <point x="162" y="161"/>
      <point x="171" y="197"/>
      <point x="178" y="256" type="curve"/>
      <point x="139" y="256"/>
      <point x="145" y="257"/>
      <point x="131" y="257" type="curve"/>
      <point x="105" y="254" type="line"/>
      <point x="48" y="254" type="line"/>
      <point x="31" y="255"/>
      <point x="19" y="265"/>
      <point x="19" y="279" type="curve" smooth="yes"/>
      <point x="19" y="295"/>
      <point x="30" y="307"/>
      <point x="47" y="308" type="curve" smooth="yes"/>
      <point x="99" y="311"/>
      <point x="123" y="311"/>
      <point x="183" y="312" type="curve"/>
      <point x="192" y="393"/>
      <point x="197" y="428"/>
      <point x="197" y="432" type="curve" smooth="yes"/>
      <point x="201" y="460"/>
      <point x="209" y="474"/>
      <point x="226" y="474" type="curve" smooth="yes"/>
      <point x="252" y="474"/>
      <point x="254" y="451"/>
      <point x="255" y="433" type="curve"/>
      <point x="241" y="314" type="line"/>
      <point x="324" y="315"/>
      <point x="366" y="317"/>
      <point x="368" y="317" type="curve" smooth="yes"/>
      <point x="398" y="317"/>
      <point x="413" y="310"/>
      <point x="413" y="291" type="curve" smooth="yes"/>
      <point x="413" y="267"/>
      <point x="400" y="264"/>
      <point x="376" y="260" type="curve"/>
      <point x="353" y="259"/>
      <point x="303" y="257"/>
      <point x="234" y="257" type="curve"/>
      <point x="228" y="210"/>
      <point x="225" y="195"/>
      <point x="224" y="179" type="curve" smooth="yes"/>
    </contour>
  </outline>
</glyph>
<glyph name="comma" format="1">
  <advance width="113"/>
  <unicode hex="002C"/>
  <outline>
    <contour>
      <point x="84" y="105" type="line"/>
      <point x="79" y="120"/>
      <point x="69" y="128"/>
      <point x="57" y="128" type="curve" smooth="yes"/>
      <point x="34" y="128"/>
      <point x="31" y="109"/>
      <point x="31" y="91" type="curve"/>
      <point x="34" y="70"/>
      <point x="38" y="53"/>
      <point x="38" y="32" type="curve" smooth="yes"/>
      <point x="38" y="6"/>
      <point x="20" y="-20"/>
      <point x="20" y="-36" type="curve" smooth="yes"/>
      <point x="20" y="-51"/>
      <point x="32" y="-63"/>
      <point x="48" y="-63" type="curve" smooth="yes"/>
      <point x="80" y="-63"/>
      <point x="95" y="-7"/>
      <point x="95" y="35" type="curve" smooth="yes"/>
      <point x="95" y="55"/>
      <point x="92" y="77"/>
      <point x="84" y="105" type="curve" smooth="yes"/>
    </contour>
  </outline>
</glyph>
<glyph name="hyphen" format="1">
  <advance width="242"/>
  <unicode hex="002D"/>
  <outline>
    <contour>
      <point x="40" y="133" type="line"/>
      <point x="43" y="132"/>
      <point x="45" y="132"/>
      <point x="48" y="132" type="curve" smooth="yes"/>
      <point x="95" y="132"/>
      <point x="135" y="138"/>
      <point x="176" y="138" type="curve" smooth="yes"/>
      <point x="194" y="138"/>
      <point x="208" y="150"/>
      <point x="208" y="165" type="curve" smooth="yes"/>
      <point x="208" y="195"/>
      <point x="179" y="195"/>
      <point x="147" y="195" type="curve" smooth="yes"/>
      <point x="141" y="195" type="line"/>
      <point x="85" y="188"/>
      <point x="19" y="197"/>
      <point x="19" y="157" type="curve" smooth="yes"/>
      <point x="19" y="145"/>
      <point x="28" y="135"/>
      <point x="40" y="133" type="curve" smooth="yes"/>
    </contour>
  </outline>
</glyph>
<glyph name="period" format="1">
  <advance width="96"/>
  <unicode hex="002E"/>
  <outline>
    <contour>
      <point x="45" y="73" type="line"/>
      <point x="26" y="73"/>
      <point x="10" y="54"/>
      <point x="10" y="36" type="curve" smooth="yes"/>
      <point x="10" y="10"/>
      <point x="28" y="-3"/>
      <point x="46" y="-3" type="curve" smooth="yes"/>
      <point x="69" y="-3"/>
      <point x="82" y="16"/>
      <point x="82" y="35" type="curve" smooth="yes"/>
      <point x="82" y="54"/>
      <point x="68" y="73"/>
      <point x="45" y="73" type="curve" smooth="yes"/>
    </contour>
  </outline>
</glyph>
<glyph name="slash" format="1">
  <advance width="407"/>
  <unicode hex="002F"/>
  <outline>
    <contour>
      <point x="87" y="-61" type="line"/>
      <point x="99" y="-33" type="line" smooth="yes"/>
      <point x="115" y="6"/>
      <point x="345" y="535"/>
      <point x="369" y="616" type="curve"/>
      <point x="371" y="621"/>
      <point x="372" y="626"/>
      <point x="372" y="630" type="curve" smooth="yes"/>
      <point x="372" y="646"/>
      <point x="357" y="658"/>
      <point x="343" y="658" type="curve" smooth="yes"/>
      <point x="331" y="658"/>
      <point x="321" y="649"/>
      <point x="316" y="637" type="curve"/>
      <point x="314" y="630" type="line"/>
      <point x="299" y="593"/>
      <point x="58" y="20"/>
      <point x="43" y="-20" type="curve" smooth="yes"/>
      <point x="39" y="-33"/>
      <point x="29" y="-54"/>
      <point x="29" y="-70" type="curve" smooth="yes"/>
      <point x="29" y="-87"/>
      <point x="42" y="-95"/>
      <point x="56" y="-95" type="curve" smooth="yes"/>
      <point x="66" y="-95"/>
      <point x="74" y="-89"/>
      <point x="87" y="-61" type="curve" smooth="yes"/>
    </contour>
  </outline>
</glyph>
<glyph name="zero" format="1">
  <advance width="309"/>
  <unicode hex="0030"/>
  <outline>
    <contour>
      <point x="266" y="444" type="line"/>
      <point x="266" y="495"/>
      <point x="210" y="553"/>
      <point x="164" y="553" type="curve" smooth="yes"/>
      <point x="55" y="553"/>
      <point x="33" y="328"/>
      <point x="29" y="257" type="curve" smooth="yes"/>
      <point x="28" y="238"/>
      <point x="26" y="216"/>
      <point x="26" y="197" type="curve" smooth="yes"/>
      <point x="26" y="88"/>
      <point x="62" y="-13"/>
      <point x="151" y="-13" type="curve" smooth="yes"/>
      <point x="265" y="-13"/>
      <point x="288" y="159"/>
      <point x="288" y="287" type="curve" smooth="yes"/>
      <point x="288" y="347"/>
      <point x="277" y="397"/>
      <point x="266" y="444" type="curve"/>
    </contour>
    <contour>
      <point x="231" y="282" type="line"/>
      <point x="231" y="212"/>
      <point x="219" y="48"/>
      <point x="152" y="44" type="curve"/>
      <point x="99" y="44"/>
      <point x="84" y="110"/>
      <point x="84" y="197" type="curve" smooth="yes"/>
      <point x="84" y="262"/>
      <point x="90" y="413"/>
      <point x="151" y="487" type="curve" smooth="yes"/>
      <point x="154" y="491"/>
      <point x="159" y="496"/>
      <point x="166" y="496" type="curve" smooth="yes"/>
      <point x="178" y="496"/>
      <point x="186" y="481"/>
      <point x="192" y="466" type="curve" smooth="yes"/>
      <point x="194" y="459"/>
      <point x="207" y="444"/>
      <point x="207" y="442" type="curve"/>
      <point x="225" y="394"/>
      <point x="231" y="325"/>
      <point x="231" y="282" type="curve" smooth="yes"/>
    </contour>
  </outline>
</glyph>
<glyph name="one" format="1">
  <advance width="247"/>
  <unicode hex="0031"/>
  <outline>
    <contour>
      <point x="215" y="66" type="line"/>
      <point x="211" y="68"/>
      <point x="206" y="69"/>
      <point x="200" y="69" type="curve" smooth="yes"/>
      <point x="179" y="69"/>
      <point x="164" y="68"/>
      <point x="146" y="68" type="curve"/>
      <point x="146" y="212"/>
      <point x="151" y="375"/>
      <point x="151" y="516" type="curve" smooth="yes"/>
      <point x="151" y="561"/>
      <point x="144" y="557"/>
      <point x="119" y="570" type="curve" smooth="yes"/>
      <point x="116" y="571"/>
      <point x="113" y="572"/>
      <point x="111" y="572" type="curve" smooth="yes"/>
      <point x="89" y="572"/>
      <point x="75" y="536"/>
      <point x="63" y="518" type="curve" smooth="yes"/>
      <point x="49" y="496"/>
      <point x="24" y="466"/>
      <point x="23" y="446" type="curve" smooth="yes"/>
      <point x="23" y="431"/>
      <point x="36" y="419"/>
      <point x="51" y="419" type="curve" smooth="yes"/>
      <point x="67" y="419"/>
      <point x="80" y="435"/>
      <point x="91" y="457" type="curve"/>
      <point x="91" y="338"/>
      <point x="89" y="200"/>
      <point x="89" y="62" type="curve"/>
      <point x="84" y="61" type="line" smooth="yes"/>
      <point x="53" y="58"/>
      <point x="20" y="60"/>
      <point x="20" y="30" type="curve" smooth="yes"/>
      <point x="20" y="10"/>
      <point x="37" y="4"/>
      <point x="60" y="4" type="curve" smooth="yes"/>
      <point x="71" y="4" type="line" smooth="yes"/>
      <point x="110" y="4"/>
      <point x="151" y="8"/>
      <point x="188" y="11" type="curve" smooth="yes"/>
      <point x="202" y="12" type="line" smooth="yes"/>
      <point x="223" y="13"/>
      <point x="234" y="24"/>
      <point x="234" y="41" type="curve" smooth="yes"/>
      <point x="234" y="52"/>
      <point x="227" y="62"/>
      <point x="215" y="66" type="curve" smooth="yes"/>
    </contour>
  </outline>
</glyph>
<glyph name="two" format="1">
  <advance width="339"/>
  <unicode hex="0032"/>
  <outline>
    <contour>
      <point x="293" y="117" type="line"/>
      <point x="274" y="117"/>
      <point x="272" y="105"/>
      <point x="265" y="90" type="curve"/>
      <point x="252" y="91"/>
      <point x="239" y="92"/>
      <point x="227" y="92" type="curve" smooth="yes"/>
      <point x="185" y="92"/>
      <point x="146" y="84"/>
      <point x="105" y="78" type="curve"/>
      <point x="123" y="125"/>
      <point x="145" y="174"/>
      <point x="164" y="224" type="curve" smooth="yes"/>
      <point x="168" y="233" type="line" smooth="yes"/>
      <point x="193" y="300"/>
      <point x="248" y="418"/>
      <point x="271" y="486" type="curve" smooth="yes"/>
      <point x="276" y="501"/>
      <point x="278" y="513"/>
      <point x="278" y="525" type="curve" smooth="yes"/>
      <point x="278" y="565"/>
      <point x="256" y="591"/>
      <point x="222" y="591" type="curve" smooth="yes"/>
      <point x="178" y="591"/>
      <point x="105" y="555"/>
      <point x="84" y="514" type="curve"/>
      <point x="80" y="516"/>
      <point x="73" y="519"/>
      <point x="67" y="519" type="curve" smooth="yes"/>
      <point x="53" y="519"/>
      <point x="41" y="506"/>
      <point x="41" y="492" type="curve" smooth="yes"/>
      <point x="41" y="467"/>
      <point x="91" y="431"/>
      <point x="108" y="431" type="curve" smooth="yes"/>
      <point x="121" y="431"/>
      <point x="136" y="443"/>
      <point x="136" y="459" type="curve" smooth="yes"/>
      <point x="136" y="466"/>
      <point x="134" y="473"/>
      <point x="129" y="478" type="curve"/>
      <point x="143" y="506"/>
      <point x="192" y="529"/>
      <point x="220" y="534" type="curve"/>
      <point x="220" y="523" type="line" smooth="yes"/>
      <point x="220" y="484"/>
      <point x="190" y="433"/>
      <point x="180" y="408" type="curve" smooth="yes"/>
      <point x="135" y="300"/>
      <point x="74" y="146"/>
      <point x="24" y="44" type="curve" smooth="yes"/>
      <point x="23" y="41"/>
      <point x="23" y="38"/>
      <point x="23" y="35" type="curve" smooth="yes"/>
      <point x="23" y="21"/>
      <point x="34" y="7"/>
      <point x="50" y="7" type="curve" smooth="yes"/>
      <point x="65" y="7"/>
      <point x="78" y="17"/>
      <point x="91" y="17" type="curve"/>
      <point x="96" y="18" type="line" smooth="yes"/>
      <point x="137" y="25"/>
      <point x="186" y="36"/>
      <point x="227" y="36" type="curve" smooth="yes"/>
      <point x="238" y="36"/>
      <point x="263" y="36"/>
      <point x="263" y="27" type="curve"/>
      <point x="265" y="11"/>
      <point x="276" y="-1"/>
      <point x="292" y="-1" type="curve" smooth="yes"/>
      <point x="317" y="-1"/>
      <point x="321" y="25"/>
      <point x="321" y="53" type="curve" smooth="yes"/>
      <point x="321" y="67"/>
      <point x="320" y="82"/>
      <point x="320" y="94" type="curve"/>
      <point x="316" y="108"/>
      <point x="306" y="117"/>
      <point x="293" y="117" type="curve" smooth="yes"/>
    </contour>
  </outline>
</glyph>
<glyph name="three" format="1">
  <advance width="352"/>
  <unicode hex="0033"/>
  <outline>
    <contour>
      <point x="298" y="295" type="line"/>
      <point x="287" y="309"/>
      <point x="274" y="324"/>
      <point x="254" y="332" type="curve"/>
      <point x="297" y="371"/>
      <point x="311" y="413"/>
      <point x="311" y="458" type="curve" smooth="yes"/>
      <point x="311" y="520"/>
      <point x="281" y="569"/>
      <point x="205" y="569" type="curve" smooth="yes"/>
      <point x="159" y="569"/>
      <point x="121" y="548"/>
      <point x="94" y="511" type="curve"/>
      <point x="89" y="514"/>
      <point x="84" y="516"/>
      <point x="77" y="516" type="curve" smooth="yes"/>
      <point x="64" y="516"/>
      <point x="53" y="503"/>
      <point x="53" y="490" type="curve" smooth="yes"/>
      <point x="53" y="461"/>
      <point x="107" y="428"/>
      <point x="113" y="428" type="curve" smooth="yes"/>
      <point x="128" y="428"/>
      <point x="141" y="440"/>
      <point x="141" y="456" type="curve" smooth="yes"/>
      <point x="141" y="462"/>
      <point x="139" y="471"/>
      <point x="135" y="475" type="curve"/>
      <point x="155" y="499"/>
      <point x="177" y="512"/>
      <point x="204" y="512" type="curve" smooth="yes"/>
      <point x="235" y="512"/>
      <point x="254" y="500"/>
      <point x="254" y="460" type="curve" smooth="yes"/>
      <point x="254" y="414"/>
      <point x="235" y="395"/>
      <point x="201" y="362" type="curve" smooth="yes"/>
      <point x="191" y="352" type="line" smooth="yes"/>
      <point x="178" y="339"/>
      <point x="162" y="331"/>
      <point x="141" y="325" type="curve"/>
      <point x="134" y="334"/>
      <point x="126" y="339"/>
      <point x="118" y="339" type="curve" smooth="yes"/>
      <point x="99" y="339"/>
      <point x="91" y="323"/>
      <point x="91" y="306" type="curve" smooth="yes"/>
      <point x="91" y="279"/>
      <point x="95" y="242"/>
      <point x="126" y="242" type="curve" smooth="yes"/>
      <point x="145" y="242"/>
      <point x="144" y="259"/>
      <point x="162" y="267" type="curve" smooth="yes"/>
      <point x="189" y="278"/>
      <point x="193" y="283"/>
      <point x="220" y="283" type="curve" smooth="yes"/>
      <point x="270" y="283"/>
      <point x="275" y="198"/>
      <point x="275" y="186" type="curve" smooth="yes"/>
      <point x="275" y="140"/>
      <point x="254" y="57"/>
      <point x="187" y="57" type="curve" smooth="yes"/>
      <point x="130" y="57"/>
      <point x="101" y="135"/>
      <point x="101" y="152" type="curve"/>
      <point x="118" y="156"/>
      <point x="131" y="170"/>
      <point x="131" y="184" type="curve" smooth="yes"/>
      <point x="131" y="200"/>
      <point x="117" y="211"/>
      <point x="103" y="211" type="curve" smooth="yes"/>
      <point x="78" y="211"/>
      <point x="27" y="181"/>
      <point x="31" y="184" type="curve" smooth="yes"/>
      <point x="24" y="178"/>
      <point x="20" y="171"/>
      <point x="20" y="163" type="curve" smooth="yes"/>
      <point x="20" y="144"/>
      <point x="45" y="137"/>
      <point x="45" y="135" type="curve" smooth="yes"/>
      <point x="57" y="62"/>
      <point x="127" y="1"/>
      <point x="188" y="1" type="curve" smooth="yes"/>
      <point x="272" y="1"/>
      <point x="332" y="87"/>
      <point x="332" y="186" type="curve" smooth="yes"/>
      <point x="332" y="228"/>
      <point x="322" y="267"/>
      <point x="298" y="295" type="curve" smooth="yes"/>
    </contour>
  </outline>
</glyph>
<glyph name="four" format="1">
  <advance width="335"/>
  <unicode hex="0034"/>
  <outline>
    <contour>
      <point x="311" y="318" type="line"/>
      <point x="304" y="333"/>
      <point x="307" y="353"/>
      <point x="284" y="353" type="curve" smooth="yes"/>
      <point x="266" y="353"/>
      <point x="268" y="343"/>
      <point x="257" y="332" type="curve"/>
      <point x="209" y="332" type="line"/>
      <point x="209" y="508" type="line"/>
      <point x="222" y="508"/>
      <point x="234" y="525"/>
      <point x="234" y="538" type="curve" smooth="yes"/>
      <point x="234" y="554"/>
      <point x="221" y="565"/>
      <point x="205" y="565" type="curve" smooth="yes"/>
      <point x="167" y="565"/>
      <point x="125" y="560"/>
      <point x="125" y="529" type="curve"/>
      <point x="126" y="517"/>
      <point x="136" y="505"/>
      <point x="149" y="505" type="curve"/>
      <point x="149" y="332" type="line"/>
      <point x="89" y="329" type="line"/>
      <point x="89" y="374"/>
      <point x="92" y="419"/>
      <point x="92" y="465" type="curve" smooth="yes"/>
      <point x="92" y="480"/>
      <point x="92" y="496"/>
      <point x="91" y="512" type="curve"/>
      <point x="107" y="517"/>
      <point x="118" y="524"/>
      <point x="118" y="540" type="curve" smooth="yes"/>
      <point x="118" y="555"/>
      <point x="108" y="567"/>
      <point x="93" y="569" type="curve"/>
      <point x="87" y="569"/>
      <point x="80" y="569"/>
      <point x="74" y="568" type="curve" smooth="yes"/>
      <point x="46" y="564"/>
      <point x="4" y="568"/>
      <point x="4" y="536" type="curve" smooth="yes"/>
      <point x="4" y="522"/>
      <point x="16" y="509"/>
      <point x="35" y="509" type="curve"/>
      <point x="35" y="441"/>
      <point x="31" y="373"/>
      <point x="31" y="309" type="curve" smooth="yes"/>
      <point x="31" y="284"/>
      <point x="41" y="270"/>
      <point x="65" y="270" type="curve" smooth="yes"/>
      <point x="98" y="270"/>
      <point x="123" y="274"/>
      <point x="153" y="274" type="curve"/>
      <point x="153" y="54" type="line"/>
      <point x="142" y="47"/>
      <point x="132" y="43"/>
      <point x="132" y="27" type="curve" smooth="yes"/>
      <point x="132" y="12"/>
      <point x="146" y="1"/>
      <point x="162" y="1" type="curve" smooth="yes"/>
      <point x="168" y="1" type="line" smooth="yes"/>
      <point x="179" y="0"/>
      <point x="191" y="0"/>
      <point x="202" y="0" type="curve" smooth="yes"/>
      <point x="221" y="0"/>
      <point x="237" y="10"/>
      <point x="237" y="28" type="curve" smooth="yes"/>
      <point x="237" y="44"/>
      <point x="229" y="49"/>
      <point x="214" y="57" type="curve"/>
      <point x="212" y="81"/>
      <point x="211" y="161"/>
      <point x="211" y="219" type="curve" smooth="yes"/>
      <point x="211" y="243"/>
      <point x="211" y="263"/>
      <point x="212" y="274" type="curve"/>
      <point x="259" y="274" type="line"/>
      <point x="264" y="263"/>
      <point x="273" y="257"/>
      <point x="284" y="257" type="curve" smooth="yes"/>
      <point x="302" y="257"/>
      <point x="312" y="272"/>
      <point x="312" y="287" type="curve" smooth="yes"/>
      <point x="312" y="297"/>
      <point x="311" y="308"/>
      <point x="311" y="318" type="curve"/>
    </contour>
  </outline>
</glyph>
<glyph name="five" format="1">
  <advance width="360"/>
  <unicode hex="0035"/>
  <outline>
    <contour>
      <point x="244" y="363" type="line"/>
      <point x="235" y="365"/>
      <point x="226" y="366"/>
      <point x="216" y="366" type="curve" smooth="yes"/>
      <point x="195" y="366"/>
      <point x="173" y="360"/>
      <point x="151" y="350" type="curve"/>
      <point x="151" y="353"/>
      <point x="152" y="356"/>
      <point x="152" y="359" type="curve" smooth="yes"/>
      <point x="155" y="393"/>
      <point x="157" y="424"/>
      <point x="157" y="454" type="curve" smooth="yes"/>
      <point x="157" y="463"/>
      <point x="156" y="472"/>
      <point x="156" y="481" type="curve"/>
      <point x="266" y="508" type="line"/>
      <point x="266" y="491"/>
      <point x="281" y="480"/>
      <point x="295" y="480" type="curve" smooth="yes"/>
      <point x="321" y="480"/>
      <point x="323" y="503"/>
      <point x="323" y="530" type="curve"/>
      <point x="320" y="560"/>
      <point x="327" y="597"/>
      <point x="294" y="597" type="curve" smooth="yes"/>
      <point x="264" y="597"/>
      <point x="282" y="568"/>
      <point x="228" y="556" type="curve" smooth="yes"/>
      <point x="166" y="541"/>
      <point x="92" y="543"/>
      <point x="92" y="509" type="curve" smooth="yes"/>
      <point x="92" y="492"/>
      <point x="99" y="470"/>
      <point x="99" y="451" type="curve" smooth="yes"/>
      <point x="99" y="399"/>
      <point x="86" y="341"/>
      <point x="86" y="279" type="curve" smooth="yes"/>
      <point x="86" y="262"/>
      <point x="96" y="247"/>
      <point x="114" y="247" type="curve" smooth="yes"/>
      <point x="140" y="247"/>
      <point x="158" y="309"/>
      <point x="217" y="309" type="curve" smooth="yes"/>
      <point x="259" y="309"/>
      <point x="287" y="271"/>
      <point x="287" y="230" type="curve" smooth="yes"/>
      <point x="287" y="165"/>
      <point x="238" y="59"/>
      <point x="163" y="59" type="curve" smooth="yes"/>
      <point x="129" y="59"/>
      <point x="87" y="85"/>
      <point x="87" y="130" type="curve" smooth="yes"/>
      <point x="87" y="132"/>
      <point x="93" y="137"/>
      <point x="97" y="137" type="curve"/>
      <point x="111" y="144"/>
      <point x="120" y="152"/>
      <point x="120" y="165" type="curve" smooth="yes"/>
      <point x="120" y="181"/>
      <point x="107" y="193"/>
      <point x="92" y="193" type="curve" smooth="yes"/>
      <point x="59" y="193"/>
      <point x="14" y="173"/>
      <point x="14" y="150" type="curve" smooth="yes"/>
      <point x="14" y="136"/>
      <point x="31" y="136"/>
      <point x="31" y="124" type="curve" smooth="yes"/>
      <point x="31" y="29"/>
      <point x="125" y="3"/>
      <point x="162" y="3" type="curve" smooth="yes"/>
      <point x="261" y="3"/>
      <point x="344" y="126"/>
      <point x="344" y="224" type="curve" smooth="yes"/>
      <point x="344" y="297"/>
      <point x="303" y="350"/>
      <point x="244" y="363" type="curve" smooth="yes"/>
    </contour>
  </outline>
</glyph>
<glyph name="six" format="1">
  <advance width="291"/>
  <unicode hex="0036"/>
  <outline>
    <contour>
      <point x="200" y="323" type="line"/>
      <point x="143" y="323"/>
      <point x="102" y="268"/>
      <point x="78" y="230" type="curve"/>
      <point x="84" y="339"/>
      <point x="98" y="436"/>
      <point x="126" y="527" type="curve"/>
      <point x="152" y="527"/>
      <point x="169" y="535"/>
      <point x="169" y="558" type="curve" smooth="yes"/>
      <point x="169" y="574"/>
      <point x="155" y="584"/>
      <point x="141" y="584" type="curve" smooth="yes"/>
      <point x="132" y="584"/>
      <point x="119" y="585"/>
      <point x="105" y="585" type="curve" smooth="yes"/>
      <point x="74" y="585"/>
      <point x="39" y="581"/>
      <point x="39" y="555" type="curve" smooth="yes"/>
      <point x="39" y="540"/>
      <point x="51" y="527"/>
      <point x="67" y="527" type="curve"/>
      <point x="32" y="417"/>
      <point x="17" y="289"/>
      <point x="17" y="171" type="curve" smooth="yes"/>
      <point x="17" y="116"/>
      <point x="19" y="-12"/>
      <point x="125" y="-12" type="curve" smooth="yes"/>
      <point x="213" y="-12"/>
      <point x="267" y="104"/>
      <point x="267" y="222" type="curve" smooth="yes"/>
      <point x="267" y="277"/>
      <point x="251" y="323"/>
      <point x="200" y="323" type="curve" smooth="yes"/>
    </contour>
    <contour>
      <point x="124" y="45" type="line"/>
      <point x="94" y="45"/>
      <point x="81" y="81"/>
      <point x="78" y="106" type="curve"/>
      <point x="78" y="107"/>
      <point x="78" y="108"/>
      <point x="79" y="109" type="curve" smooth="yes"/>
      <point x="85" y="120" type="line"/>
      <point x="114" y="184"/>
      <point x="154" y="266"/>
      <point x="203" y="266" type="curve" smooth="yes"/>
      <point x="209" y="266"/>
      <point x="210" y="235"/>
      <point x="210" y="223" type="curve" smooth="yes"/>
      <point x="210" y="171"/>
      <point x="190" y="45"/>
      <point x="124" y="45" type="curve" smooth="yes"/>
    </contour>
  </outline>
</glyph>
<glyph name="seven" format="1">
  <advance width="348"/>
  <unicode hex="0037"/>
  <outline>
    <contour>
      <point x="293" y="568" type="line"/>
      <point x="230" y="568"/>
      <point x="168" y="550"/>
      <point x="111" y="550" type="curve" smooth="yes"/>
      <point x="72" y="550"/>
      <point x="41" y="545"/>
      <point x="41" y="508" type="curve" smooth="yes"/>
      <point x="41" y="491" type="line" smooth="yes"/>
      <point x="41" y="479"/>
      <point x="40" y="467"/>
      <point x="30" y="464" type="curve" smooth="yes"/>
      <point x="19" y="461"/>
      <point x="13" y="451"/>
      <point x="13" y="438" type="curve" smooth="yes"/>
      <point x="13" y="415"/>
      <point x="36" y="412"/>
      <point x="60" y="412" type="curve" smooth="yes"/>
      <point x="86" y="412" type="line" smooth="yes"/>
      <point x="105" y="412"/>
      <point x="117" y="426"/>
      <point x="117" y="441" type="curve" smooth="yes"/>
      <point x="117" y="451"/>
      <point x="109" y="468"/>
      <point x="95" y="468" type="curve"/>
      <point x="98" y="492" type="line"/>
      <point x="167" y="492"/>
      <point x="207" y="508"/>
      <point x="262" y="508" type="curve"/>
      <point x="259" y="505"/>
      <point x="254" y="479"/>
      <point x="252" y="470" type="curve" smooth="yes"/>
      <point x="244" y="442" type="line" smooth="yes"/>
      <point x="205" y="312"/>
      <point x="165" y="177"/>
      <point x="147" y="64" type="curve"/>
      <point x="126" y="64"/>
      <point x="116" y="48"/>
      <point x="116" y="34" type="curve" smooth="yes"/>
      <point x="116" y="18"/>
      <point x="129" y="10"/>
      <point x="145" y="10" type="curve" smooth="yes"/>
      <point x="177" y="10"/>
      <point x="235" y="11"/>
      <point x="235" y="46" type="curve" smooth="yes"/>
      <point x="235" y="64"/>
      <point x="205" y="73"/>
      <point x="206" y="77" type="curve" smooth="yes"/>
      <point x="217" y="134"/>
      <point x="230" y="194"/>
      <point x="247" y="249" type="curve" smooth="yes"/>
      <point x="252" y="265" type="line" smooth="yes"/>
      <point x="272" y="339"/>
      <point x="295" y="423"/>
      <point x="317" y="497" type="curve" smooth="yes"/>
      <point x="321" y="510"/>
      <point x="324" y="522"/>
      <point x="324" y="533" type="curve" smooth="yes"/>
      <point x="324" y="537" type="line" smooth="yes"/>
      <point x="324" y="555"/>
      <point x="313" y="566"/>
      <point x="293" y="568" type="curve"/>
    </contour>
  </outline>
</glyph>
<glyph name="eight" format="1">
  <advance width="281"/>
  <unicode hex="0038"/>
  <outline>
    <contour>
      <point x="262" y="493" type="line"/>
      <point x="239" y="547"/>
      <point x="194" y="585"/>
      <point x="139" y="585" type="curve" smooth="yes"/>
      <point x="63" y="585"/>
      <point x="18" y="516"/>
      <point x="18" y="445" type="curve" smooth="yes"/>
      <point x="18" y="387"/>
      <point x="70" y="326"/>
      <point x="104" y="281" type="curve" smooth="yes"/>
      <point x="106" y="278"/>
      <point x="107" y="276"/>
      <point x="107" y="275" type="curve" smooth="yes"/>
      <point x="107" y="272"/>
      <point x="96" y="253"/>
      <point x="96" y="249" type="curve"/>
      <point x="76" y="199"/>
      <point x="56" y="150"/>
      <point x="56" y="97" type="curve" smooth="yes"/>
      <point x="56" y="43"/>
      <point x="91" y="-2"/>
      <point x="143" y="-2" type="curve" smooth="yes"/>
      <point x="209" y="-2"/>
      <point x="257" y="52"/>
      <point x="257" y="108" type="curve" smooth="yes"/>
      <point x="257" y="167"/>
      <point x="213" y="229"/>
      <point x="178" y="275" type="curve" smooth="yes"/>
      <point x="175" y="279"/>
      <point x="174" y="282"/>
      <point x="174" y="284" type="curve" smooth="yes"/>
      <point x="174" y="294"/>
      <point x="196" y="328"/>
      <point x="200" y="336" type="curve" smooth="yes"/>
      <point x="218" y="370"/>
      <point x="236" y="404"/>
      <point x="249" y="441" type="curve"/>
      <point x="249" y="447"/>
      <point x="266" y="454"/>
      <point x="266" y="469" type="curve" smooth="yes"/>
      <point x="266" y="476"/>
      <point x="265" y="485"/>
      <point x="262" y="493" type="curve" smooth="yes"/>
    </contour>
    <contour>
      <point x="135" y="335" type="line"/>
      <point x="103" y="367"/>
      <point x="74" y="420"/>
      <point x="74" y="451" type="curve" smooth="yes"/>
      <point x="74" y="486"/>
      <point x="98" y="528"/>
      <point x="140" y="528" type="curve" smooth="yes"/>
      <point x="167" y="528"/>
      <point x="200" y="503"/>
      <point x="200" y="481" type="curve"/>
      <point x="187" y="430"/>
      <point x="163" y="381"/>
      <point x="135" y="335" type="curve"/>
    </contour>
    <contour>
      <point x="181" y="168" type="line"/>
      <point x="193" y="147"/>
      <point x="200" y="127"/>
      <point x="200" y="108" type="curve" smooth="yes"/>
      <point x="200" y="80"/>
      <point x="177" y="55"/>
      <point x="141" y="55" type="curve" smooth="yes"/>
      <point x="123" y="55"/>
      <point x="113" y="73"/>
      <point x="113" y="101" type="curve" smooth="yes"/>
      <point x="113" y="140"/>
      <point x="130" y="181"/>
      <point x="147" y="222" type="curve"/>
      <point x="156" y="203"/>
      <point x="169" y="187"/>
      <point x="181" y="168" type="curve" smooth="yes"/>
    </contour>
  </outline>
</glyph>
<glyph name="nine" format="1">
  <advance width="335"/>
  <unicode hex="0039"/>
  <outline>
    <contour>
      <point x="296" y="44" type="line"/>
      <point x="292" y="44"/>
      <point x="287" y="44"/>
      <point x="284" y="43" type="curve"/>
      <point x="277" y="43"/>
      <point x="273" y="42"/>
      <point x="268" y="41" type="curve"/>
      <point x="262" y="57"/>
      <point x="262" y="93"/>
      <point x="262" y="120" type="curve" smooth="yes"/>
      <point x="262" y="138" type="line" smooth="yes"/>
      <point x="261" y="178"/>
      <point x="260" y="222"/>
      <point x="260" y="278" type="curve" smooth="yes"/>
      <point x="260" y="336"/>
      <point x="271" y="423"/>
      <point x="271" y="505" type="curve" smooth="yes"/>
      <point x="271" y="557"/>
      <point x="211" y="591"/>
      <point x="162" y="591" type="curve" smooth="yes"/>
      <point x="77" y="591"/>
      <point x="8" y="512"/>
      <point x="8" y="415" type="curve" smooth="yes"/>
      <point x="8" y="357"/>
      <point x="48" y="309"/>
      <point x="112" y="309" type="curve" smooth="yes"/>
      <point x="147" y="309"/>
      <point x="177" y="322"/>
      <point x="205" y="349" type="curve"/>
      <point x="205" y="321"/>
      <point x="203" y="293"/>
      <point x="203" y="264" type="curve" smooth="yes"/>
      <point x="203" y="243" type="line" smooth="yes"/>
      <point x="203" y="173"/>
      <point x="203" y="104"/>
      <point x="211" y="32" type="curve"/>
      <point x="191" y="28"/>
      <point x="182" y="21"/>
      <point x="182" y="2" type="curve" smooth="yes"/>
      <point x="182" y="-16"/>
      <point x="198" y="-22"/>
      <point x="217" y="-22" type="curve"/>
      <point x="258" y="-17"/>
      <point x="323" y="-20"/>
      <point x="323" y="16" type="curve" smooth="yes"/>
      <point x="323" y="31"/>
      <point x="311" y="43"/>
      <point x="296" y="44" type="curve" smooth="yes"/>
    </contour>
    <contour>
      <point x="104" y="366" type="line"/>
      <point x="77" y="368"/>
      <point x="66" y="392"/>
      <point x="66" y="414" type="curve" smooth="yes"/>
      <point x="66" y="479"/>
      <point x="105" y="533"/>
      <point x="164" y="533" type="curve" smooth="yes"/>
      <point x="178" y="533"/>
      <point x="212" y="524"/>
      <point x="212" y="511" type="curve" smooth="yes"/>
      <point x="212" y="441"/>
      <point x="170" y="366"/>
      <point x="104" y="366" type="curve"/>
    </contour>
  </outline>
</glyph>
<glyph name="colon" format="1">
  <advance width="170"/>
  <unicode hex="003A"/>
  <outline>
    <contour>
      <point x="26" y="15" type="line"/>
      <point x="32" y="8"/>
      <point x="41" y="4"/>
      <point x="52" y="4" type="curve" smooth="yes"/>
      <point x="74" y="4"/>
      <point x="94" y="24"/>
      <point x="94" y="47" type="curve" smooth="yes"/>
      <point x="94" y="70"/>
      <point x="75" y="87"/>
      <point x="50" y="87" type="curve" smooth="yes"/>
      <point x="28" y="87"/>
      <point x="15" y="67"/>
      <point x="15" y="41" type="curve" smooth="yes"/>
      <point x="15" y="31"/>
      <point x="19" y="22"/>
      <point x="26" y="15" type="curve" smooth="yes"/>
    </contour>
    <contour>
      <point x="25" y="271" type="line"/>
      <point x="30" y="268"/>
      <point x="36" y="266"/>
      <point x="42" y="266" type="curve" smooth="yes"/>
      <point x="66" y="266"/>
      <point x="86" y="288"/>
      <point x="86" y="311" type="curve" smooth="yes"/>
      <point x="86" y="329"/>
      <point x="72" y="346"/>
      <point x="51" y="346" type="curve" smooth="yes"/>
      <point x="22" y="346"/>
      <point x="9" y="321"/>
      <point x="9" y="301" type="curve" smooth="yes"/>
      <point x="9" y="288"/>
      <point x="15" y="277"/>
      <point x="25" y="271" type="curve" smooth="yes"/>
    </contour>
  </outline>
</glyph>
<glyph name="semicolon" format="1">
  <advance width="124"/>
  <unicode hex="003B"/>
  <outline>
    <contour>
      <point x="84" y="105" type="line"/>
      <point x="79" y="120"/>
      <point x="69" y="128"/>
      <point x="57" y="128" type="curve" smooth="yes"/>
      <point x="34" y="128"/>
      <point x="31" y="109"/>
      <point x="31" y="91" type="curve"/>
      <point x="34" y="70"/>
      <point x="38" y="53"/>
      <point x="38" y="32" type="curve" smooth="yes"/>
      <point x="38" y="6"/>
      <point x="20" y="-20"/>
      <point x="20" y="-36" type="curve" smooth="yes"/>
      <point x="20" y="-51"/>
      <point x="32" y="-63"/>
      <point x="48" y="-63" type="curve" smooth="yes"/>
      <point x="80" y="-63"/>
      <point x="95" y="-7"/>
      <point x="95" y="35" type="curve" smooth="yes"/>
      <point x="95" y="55"/>
      <point x="92" y="77"/>
      <point x="84" y="105" type="curve" smooth="yes"/>
    </contour>
    <contour>
      <point x="56" y="356" type="line"/>
      <point x="37" y="356"/>
      <point x="21" y="337"/>
      <point x="21" y="319" type="curve" smooth="yes"/>
      <point x="21" y="293"/>
      <point x="39" y="280"/>
      <point x="57" y="280" type="curve" smooth="yes"/>
      <point x="80" y="280"/>
      <point x="93" y="299"/>
      <point x="93" y="318" type="curve" smooth="yes"/>
      <point x="93" y="337"/>
      <point x="79" y="356"/>
      <point x="56" y="356" type="curve" smooth="yes"/>
    </contour>
  </outline>
</glyph>
<glyph name="equal" format="1">
  <advance width="428"/>
  <unicode hex="003D"/>
  <outline>
    <contour>
      <point x="72" y="133" type="line"/>
      <point x="125" y="133" type="line"/>
      <point x="180" y="136" type="line"/>
      <point x="223" y="136"/>
      <point x="267" y="133"/>
      <point x="311" y="133" type="curve" smooth="yes"/>
      <point x="354" y="133"/>
      <point x="377" y="135"/>
      <point x="377" y="165" type="curve" smooth="yes"/>
      <point x="377" y="184"/>
      <point x="362" y="191"/>
      <point x="332" y="191" type="curve" smooth="yes"/>
      <point x="333" y="191"/>
      <point x="292" y="191"/>
      <point x="272" y="191" type="curve" smooth="yes"/>
      <point x="217" y="191"/>
      <point x="154" y="191"/>
      <point x="67" y="187" type="curve" smooth="yes"/>
      <point x="50" y="186"/>
      <point x="39" y="174"/>
      <point x="39" y="158" type="curve" smooth="yes"/>
      <point x="39" y="144"/>
      <point x="51" y="134"/>
      <point x="68" y="133" type="curve" smooth="yes"/>
    </contour>
    <contour>
      <point x="72" y="328" type="line"/>
      <point x="180" y="328" type="line"/>
      <point x="194" y="329"/>
      <point x="208" y="330"/>
      <point x="223" y="330" type="curve" smooth="yes"/>
      <point x="252" y="330"/>
      <point x="282" y="328"/>
      <point x="311" y="328" type="curve" smooth="yes"/>
      <point x="354" y="328"/>
      <point x="377" y="330"/>
      <point x="377" y="360" type="curve" smooth="yes"/>
      <point x="377" y="379"/>
      <point x="362" y="386"/>
      <point x="332" y="386" type="curve" smooth="yes"/>
      <point x="333" y="386"/>
      <point x="292" y="386"/>
      <point x="272" y="386" type="curve" smooth="yes"/>
      <point x="217" y="386"/>
      <point x="154" y="386"/>
      <point x="67" y="382" type="curve" smooth="yes"/>
      <point x="50" y="381"/>
      <point x="39" y="369"/>
      <point x="39" y="353" type="curve" smooth="yes"/>
      <point x="39" y="339"/>
      <point x="51" y="329"/>
      <point x="68" y="328" type="curve" smooth="yes"/>
    </contour>
  </outline>
</glyph>
<glyph name="question" format="1">
  <advance width="309"/>
  <unicode hex="003F"/>
  <outline>
    <contour>
      <point x="262" y="605" type="line"/>
      <point x="241" y="636"/>
      <point x="213" y="644"/>
      <point x="173" y="644" type="curve" smooth="yes"/>
      <point x="129" y="644"/>
      <point x="90" y="630"/>
      <point x="62" y="600" type="curve"/>
      <point x="59" y="601"/>
      <point x="55" y="602"/>
      <point x="51" y="602" type="curve" smooth="yes"/>
      <point x="41" y="602"/>
      <point x="26" y="592"/>
      <point x="26" y="576" type="curve" smooth="yes"/>
      <point x="26" y="549"/>
      <point x="69" y="511"/>
      <point x="78" y="511" type="curve" smooth="yes"/>
      <point x="95" y="511"/>
      <point x="106" y="526"/>
      <point x="106" y="540" type="curve" smooth="yes"/>
      <point x="106" y="549"/>
      <point x="101" y="561"/>
      <point x="101" y="561" type="curve"/>
      <point x="102" y="561"/>
      <point x="102" y="563"/>
      <point x="108" y="567" type="curve" smooth="yes"/>
      <point x="130" y="582"/>
      <point x="153" y="588"/>
      <point x="181" y="588" type="curve" smooth="yes"/>
      <point x="219" y="588"/>
      <point x="231" y="549"/>
      <point x="231" y="516" type="curve" smooth="yes"/>
      <point x="231" y="476"/>
      <point x="213" y="450"/>
      <point x="161" y="392" type="curve" smooth="yes"/>
      <point x="114" y="340"/>
      <point x="93" y="281"/>
      <point x="93" y="208" type="curve" smooth="yes"/>
      <point x="93" y="181"/>
      <point x="102" y="153"/>
      <point x="102" y="128" type="curve"/>
      <point x="97" y="124"/>
      <point x="90" y="117"/>
      <point x="90" y="107" type="curve" smooth="yes"/>
      <point x="90" y="91"/>
      <point x="105" y="80"/>
      <point x="118" y="80" type="curve" smooth="yes"/>
      <point x="151" y="80"/>
      <point x="185" y="91"/>
      <point x="185" y="118" type="curve"/>
      <point x="184" y="130"/>
      <point x="173" y="144"/>
      <point x="158" y="144" type="curve"/>
      <point x="153" y="163"/>
      <point x="151" y="184"/>
      <point x="151" y="209" type="curve" smooth="yes"/>
      <point x="151" y="266"/>
      <point x="165" y="312"/>
      <point x="200" y="352" type="curve" smooth="yes"/>
      <point x="236" y="393"/>
      <point x="288" y="440"/>
      <point x="288" y="519" type="curve" smooth="yes"/>
      <point x="288" y="549"/>
      <point x="279" y="577"/>
      <point x="262" y="605" type="curve"/>
    </contour>
    <contour>
      <point x="181" y="16" type="line"/>
      <point x="181" y="33"/>
      <point x="164" y="51"/>
      <point x="148" y="51" type="curve" smooth="yes"/>
      <point x="129" y="51"/>
      <point x="110" y="35"/>
      <point x="110" y="14" type="curve" smooth="yes"/>
      <point x="110" y="-13"/>
      <point x="126" y="-28"/>
      <point x="149" y="-28" type="curve" smooth="yes"/>
      <point x="167" y="-28"/>
      <point x="182" y="-13"/>
      <point x="182" y="4" type="curve" smooth="yes"/>
      <point x="182" y="8"/>
      <point x="181" y="12"/>
      <point x="181" y="16" type="curve" smooth="yes"/>
    </contour>
  </outline>
</glyph>
<glyph name="at" format="1">
  <advance width="498"/>
  <unicode hex="0040"/>
  <outline>
    <contour>
      <point x="309" y="278" type="line"/>
      <point x="269" y="232"/>
      <point x="224" y="194"/>
      <point x="182" y="194" type="curve" smooth="yes"/>
      <point x="170" y="194"/>
      <point x="162" y="194"/>
      <point x="162" y="202" type="curve" smooth="yes"/>
      <point x="162" y="259"/>
      <point x="226" y="388"/>
      <point x="288" y="388" type="curve" smooth="yes"/>
      <point x="320" y="388"/>
      <point x="331" y="359"/>
      <point x="331" y="332" type="curve" smooth="yes"/>
      <point x="331" y="310"/>
      <point x="318" y="295"/>
      <point x="309" y="278" type="curve" smooth="yes"/>
    </contour>
    <contour>
      <point x="190" y="31" type="line"/>
      <point x="211" y="31"/>
      <point x="260" y="34"/>
      <point x="260" y="66" type="curve" smooth="yes"/>
      <point x="260" y="77"/>
      <point x="252" y="87"/>
      <point x="239" y="87" type="curve" smooth="yes"/>
      <point x="222" y="87"/>
      <point x="205" y="78"/>
      <point x="186" y="78" type="curve" smooth="yes"/>
      <point x="115" y="78"/>
      <point x="61" y="152"/>
      <point x="61" y="220" type="curve" smooth="yes"/>
      <point x="61" y="269" type="line" smooth="yes"/>
      <point x="61" y="409"/>
      <point x="161" y="521"/>
      <point x="289" y="521" type="curve" smooth="yes"/>
      <point x="348" y="521"/>
      <point x="392" y="456"/>
      <point x="398" y="443" type="curve" smooth="yes"/>
      <point x="412" y="413"/>
      <point x="425" y="376"/>
      <point x="425" y="309" type="curve" smooth="yes"/>
      <point x="425" y="250"/>
      <point x="420" y="149"/>
      <point x="365" y="149" type="curve" smooth="yes"/>
      <point x="356" y="149"/>
      <point x="349" y="158"/>
      <point x="349" y="168" type="curve" smooth="yes"/>
      <point x="349" y="182"/>
      <point x="359" y="202"/>
      <point x="369" y="235" type="curve" smooth="yes"/>
      <point x="376" y="259"/>
      <point x="388" y="299"/>
      <point x="388" y="337" type="curve" smooth="yes"/>
      <point x="388" y="392"/>
      <point x="353" y="445"/>
      <point x="290" y="445" type="curve" smooth="yes"/>
      <point x="193" y="445"/>
      <point x="106" y="296"/>
      <point x="106" y="206" type="curve" smooth="yes"/>
      <point x="106" y="166"/>
      <point x="134" y="137"/>
      <point x="176" y="137" type="curve" smooth="yes"/>
      <point x="221" y="137"/>
      <point x="265" y="170"/>
      <point x="294" y="195" type="curve"/>
      <point x="290" y="185"/>
      <point x="289" y="175"/>
      <point x="289" y="165" type="curve" smooth="yes"/>
      <point x="289" y="132"/>
      <point x="313" y="98"/>
      <point x="351" y="98" type="curve" smooth="yes"/>
      <point x="461" y="98"/>
      <point x="479" y="226"/>
      <point x="479" y="319" type="curve" smooth="yes"/>
      <point x="479" y="420"/>
      <point x="414" y="571"/>
      <point x="292" y="571" type="curve" smooth="yes"/>
      <point x="148" y="571"/>
      <point x="65" y="479"/>
      <point x="35" y="391" type="curve" smooth="yes"/>
      <point x="18" y="341"/>
      <point x="6" y="285"/>
      <point x="6" y="232" type="curve" smooth="yes"/>
      <point x="6" y="113"/>
      <point x="96" y="31"/>
      <point x="190" y="31" type="curve" smooth="yes"/>
    </contour>
  </outline>
</glyph>
<glyph name="A" format="1">
  <advance width="413"/>
  <unicode hex="0041"/>
  <outline>
    <contour>
      <point x="190" y="560" type="line"/>
      <point x="146" y="392"/>
      <point x="102" y="247"/>
      <point x="54" y="73" type="curve"/>
      <point x="26" y="72"/>
      <point x="12" y="62"/>
      <point x="12" y="40" type="curve" smooth="yes"/>
      <point x="12" y="12"/>
      <point x="45" y="6"/>
      <point x="79" y="6" type="curve" smooth="yes"/>
      <point x="87" y="6"/>
      <point x="94" y="7"/>
      <point x="101" y="7" type="curve" smooth="yes"/>
      <point x="119" y="7" type="line" smooth="yes"/>
      <point x="136" y="7"/>
      <point x="154" y="19"/>
      <point x="154" y="38" type="curve" smooth="yes"/>
      <point x="154" y="60"/>
      <point x="136" y="68"/>
      <point x="121" y="71" type="curve"/>
      <point x="142" y="142"/>
      <point x="162" y="208"/>
      <point x="182" y="279" type="curve"/>
      <point x="242" y="279" type="line"/>
      <point x="275" y="66" type="line"/>
      <point x="261" y="59"/>
      <point x="250" y="46"/>
      <point x="250" y="35" type="curve" smooth="yes"/>
      <point x="250" y="15"/>
      <point x="265" y="6"/>
      <point x="286" y="6" type="curve" smooth="yes"/>
      <point x="325" y="6" type="line" smooth="yes"/>
      <point x="330" y="6"/>
      <point x="334" y="5"/>
      <point x="339" y="5" type="curve" smooth="yes"/>
      <point x="366" y="5"/>
      <point x="393" y="10"/>
      <point x="393" y="41" type="curve" smooth="yes"/>
      <point x="393" y="58"/>
      <point x="377" y="74"/>
      <point x="360" y="74" type="curve" smooth="yes"/>
      <point x="343" y="74" type="line"/>
      <point x="333" y="123"/>
      <point x="279" y="486"/>
      <point x="272" y="554" type="curve"/>
      <point x="292" y="557"/>
      <point x="318" y="568"/>
      <point x="318" y="592" type="curve" smooth="yes"/>
      <point x="318" y="608"/>
      <point x="303" y="625"/>
      <point x="284" y="625" type="curve" smooth="yes"/>
      <point x="238" y="625" type="line" smooth="yes"/>
      <point x="197" y="625"/>
      <point x="156" y="621"/>
      <point x="156" y="590" type="curve" smooth="yes"/>
      <point x="156" y="574"/>
      <point x="172" y="560"/>
      <point x="190" y="560" type="curve"/>
    </contour>
    <contour>
      <point x="238" y="351" type="line"/>
      <point x="229" y="349"/>
      <point x="215" y="346"/>
      <point x="206" y="345" type="curve"/>
      <point x="225" y="422" type="line"/>
    </contour>
  </outline>
</glyph>
<glyph name="B" format="1">
  <advance width="451"/>
  <unicode hex="0042"/>
  <outline>
    <contour>
      <point x="312" y="421" type="line"/>
      <point x="341" y="450"/>
      <point x="367" y="491"/>
      <point x="367" y="523" type="curve" smooth="yes"/>
      <point x="367" y="546"/>
      <point x="352" y="576"/>
      <point x="335" y="591" type="curve" smooth="yes"/>
      <point x="312" y="612"/>
      <point x="261" y="627"/>
      <point x="221" y="627" type="curve" smooth="yes"/>
      <point x="211" y="627" type="line" smooth="yes"/>
      <point x="151" y="625"/>
      <point x="13" y="597"/>
      <point x="13" y="552" type="curve" smooth="yes"/>
      <point x="13" y="536"/>
      <point x="29" y="521"/>
      <point x="44" y="521" type="curve" smooth="yes"/>
      <point x="48" y="521"/>
      <point x="54" y="522"/>
      <point x="57" y="524" type="curve" smooth="yes"/>
      <point x="72" y="531"/>
      <point x="95" y="537"/>
      <point x="112" y="543" type="curve"/>
      <point x="119" y="464"/>
      <point x="121" y="384"/>
      <point x="121" y="306" type="curve" smooth="yes"/>
      <point x="121" y="231"/>
      <point x="119" y="156"/>
      <point x="119" y="81" type="curve"/>
      <point x="110" y="75"/>
      <point x="98" y="74"/>
      <point x="89" y="68" type="curve"/>
      <point x="80" y="64"/>
      <point x="72" y="50"/>
      <point x="72" y="40" type="curve" smooth="yes"/>
      <point x="72" y="22"/>
      <point x="91" y="7"/>
      <point x="107" y="7" type="curve"/>
      <point x="118" y="9" type="line"/>
      <point x="227" y="47"/>
      <point x="381" y="98"/>
      <point x="423" y="235" type="curve" smooth="yes"/>
      <point x="426" y="246"/>
      <point x="429" y="264"/>
      <point x="429" y="277" type="curve" smooth="yes"/>
      <point x="429" y="355"/>
      <point x="375" y="403"/>
      <point x="312" y="421" type="curve"/>
    </contour>
    <contour>
      <point x="183" y="103" type="line"/>
      <point x="183" y="220" type="line" smooth="yes"/>
      <point x="183" y="257"/>
      <point x="184" y="294"/>
      <point x="184" y="332" type="curve" smooth="yes"/>
      <point x="184" y="338" type="line"/>
      <point x="189" y="342" type="line"/>
      <point x="207" y="352"/>
      <point x="237" y="360"/>
      <point x="256" y="360" type="curve" smooth="yes"/>
      <point x="305" y="360"/>
      <point x="360" y="334"/>
      <point x="360" y="277" type="curve" smooth="yes"/>
      <point x="360" y="196"/>
      <point x="258" y="130"/>
      <point x="183" y="103" type="curve"/>
    </contour>
    <contour>
      <point x="203" y="558" type="line"/>
      <point x="229" y="558"/>
      <point x="294" y="557"/>
      <point x="294" y="524" type="curve" smooth="yes"/>
      <point x="294" y="486"/>
      <point x="217" y="423"/>
      <point x="182" y="416" type="curve"/>
      <point x="175" y="554" type="line"/>
      <point x="185" y="556"/>
      <point x="196" y="558"/>
      <point x="203" y="558" type="curve" smooth="yes"/>
    </contour>
  </outline>
</glyph>
<glyph name="C" format="1">
  <advance width="276"/>
  <unicode hex="0043"/>
  <outline>
    <contour>
      <point x="116" y="70" type="line"/>
      <point x="105" y="70"/>
      <point x="86" y="128"/>
      <point x="81" y="159" type="curve"/>
      <point x="73" y="193"/>
      <point x="72" y="238"/>
      <point x="72" y="261" type="curve" smooth="yes"/>
      <point x="72" y="273" type="line" smooth="yes"/>
      <point x="72" y="368"/>
      <point x="98" y="562"/>
      <point x="141" y="562" type="curve" smooth="yes"/>
      <point x="147" y="562"/>
      <point x="160" y="519"/>
      <point x="162" y="509" type="curve"/>
      <point x="142" y="507"/>
      <point x="128" y="497"/>
      <point x="128" y="478" type="curve" smooth="yes"/>
      <point x="128" y="462"/>
      <point x="143" y="447"/>
      <point x="159" y="447" type="curve" smooth="yes"/>
      <point x="210" y="447"/>
      <point x="255" y="455"/>
      <point x="255" y="486" type="curve" smooth="yes"/>
      <point x="255" y="510"/>
      <point x="238" y="513"/>
      <point x="221" y="516" type="curve"/>
      <point x="215" y="565"/>
      <point x="187" y="624"/>
      <point x="140" y="624" type="curve" smooth="yes"/>
      <point x="28" y="624"/>
      <point x="6" y="374"/>
      <point x="6" y="253" type="curve" smooth="yes"/>
      <point x="6" y="175"/>
      <point x="29" y="5"/>
      <point x="114" y="5" type="curve" smooth="yes"/>
      <point x="162" y="5"/>
      <point x="183" y="44"/>
      <point x="197" y="115" type="curve"/>
      <point x="198" y="124"/>
      <point x="204" y="129"/>
      <point x="210" y="133" type="curve" smooth="yes"/>
      <point x="220" y="139"/>
      <point x="228" y="145"/>
      <point x="228" y="165" type="curve"/>
      <point x="225" y="178"/>
      <point x="212" y="190"/>
      <point x="198" y="190" type="curve" smooth="yes"/>
      <point x="172" y="190" type="line" smooth="yes"/>
      <point x="142" y="190"/>
      <point x="111" y="187"/>
      <point x="111" y="159" type="curve" smooth="yes"/>
      <point x="111" y="139"/>
      <point x="122" y="133"/>
      <point x="140" y="127" type="curve"/>
      <point x="137" y="115" type="line" smooth="yes"/>
      <point x="132" y="94"/>
      <point x="126" y="70"/>
      <point x="116" y="70" type="curve" smooth="yes"/>
    </contour>
  </outline>
</glyph>
<glyph name="D" format="1">
  <advance width="450"/>
  <unicode hex="0044"/>
  <outline>
    <contour>
      <point x="110" y="84" type="line"/>
      <point x="100" y="83"/>
      <point x="94" y="82"/>
      <point x="87" y="80" type="curve"/>
      <point x="66" y="78"/>
      <point x="52" y="63"/>
      <point x="52" y="45" type="curve" smooth="yes"/>
      <point x="52" y="23"/>
      <point x="70" y="10"/>
      <point x="92" y="10" type="curve"/>
      <point x="181" y="22"/>
      <point x="248" y="52"/>
      <point x="284" y="77" type="curve" smooth="yes"/>
      <point x="368" y="136"/>
      <point x="429" y="220"/>
      <point x="429" y="326" type="curve" smooth="yes"/>
      <point x="429" y="329"/>
      <point x="428" y="332"/>
      <point x="428" y="335" type="curve" smooth="yes"/>
      <point x="428" y="345" type="line"/>
      <point x="420" y="454"/>
      <point x="376" y="572"/>
      <point x="268" y="611" type="curve" smooth="yes"/>
      <point x="239" y="622"/>
      <point x="192" y="630"/>
      <point x="163" y="630" type="curve" smooth="yes"/>
      <point x="134" y="630"/>
      <point x="89" y="623"/>
      <point x="61" y="613" type="curve" smooth="yes"/>
      <point x="40" y="606"/>
      <point x="10" y="590"/>
      <point x="10" y="566" type="curve" smooth="yes"/>
      <point x="10" y="547"/>
      <point x="26" y="534"/>
      <point x="43" y="534" type="curve" smooth="yes"/>
      <point x="62" y="534"/>
      <point x="76" y="547"/>
      <point x="92" y="549" type="curve"/>
    </contour>
    <contour>
      <point x="163" y="542" type="line"/>
      <point x="163" y="548"/>
      <point x="163" y="553"/>
      <point x="164" y="557" type="curve"/>
      <point x="168" y="557"/>
      <point x="173" y="558"/>
      <point x="176" y="558" type="curve" smooth="yes"/>
      <point x="188" y="558"/>
      <point x="210" y="555"/>
      <point x="223" y="551" type="curve"/>
      <point x="275" y="539"/>
      <point x="306" y="505"/>
      <point x="328" y="460" type="curve" smooth="yes"/>
      <point x="342" y="432"/>
      <point x="355" y="382"/>
      <point x="355" y="349" type="curve" smooth="yes"/>
      <point x="355" y="334" type="line" smooth="yes"/>
      <point x="355" y="325"/>
      <point x="354" y="310"/>
      <point x="353" y="300" type="curve" smooth="yes"/>
      <point x="349" y="250"/>
      <point x="321" y="210"/>
      <point x="288" y="175" type="curve" smooth="yes"/>
      <point x="257" y="143"/>
      <point x="219" y="123"/>
      <point x="181" y="104" type="curve"/>
      <point x="175" y="166"/>
      <point x="163" y="453"/>
      <point x="163" y="542" type="curve" smooth="yes"/>
    </contour>
  </outline>
</glyph>
<glyph name="E" format="1">
  <advance width="310"/>
  <unicode hex="0045"/>
  <outline>
    <contour>
      <point x="226" y="98" type="line"/>
      <point x="178" y="96"/>
      <point x="136" y="96"/>
      <point x="89" y="94" type="curve"/>
      <point x="89" y="128"/>
      <point x="87" y="160"/>
      <point x="85" y="192" type="curve" smooth="yes"/>
      <point x="83" y="224"/>
      <point x="82" y="255"/>
      <point x="82" y="287" type="curve" smooth="yes"/>
      <point x="82" y="298" type="line"/>
      <point x="153" y="298" type="line"/>
      <point x="156" y="289" type="line"/>
      <point x="162" y="280"/>
      <point x="174" y="273"/>
      <point x="184" y="273" type="curve" smooth="yes"/>
      <point x="190" y="273"/>
      <point x="201" y="278"/>
      <point x="207" y="284" type="curve" smooth="yes"/>
      <point x="212" y="290"/>
      <point x="215" y="300"/>
      <point x="215" y="308" type="curve" smooth="yes"/>
      <point x="215" y="312" type="line"/>
      <point x="213" y="361" type="line"/>
      <point x="211" y="377"/>
      <point x="198" y="389"/>
      <point x="183" y="389" type="curve" smooth="yes"/>
      <point x="170" y="389"/>
      <point x="157" y="378"/>
      <point x="153" y="367" type="curve" smooth="yes"/>
      <point x="151" y="361" type="line"/>
      <point x="147" y="361" type="line" smooth="yes"/>
      <point x="135" y="361"/>
      <point x="124" y="360"/>
      <point x="115" y="359" type="curve" smooth="yes"/>
      <point x="105" y="358"/>
      <point x="95" y="358"/>
      <point x="87" y="358" type="curve" smooth="yes"/>
      <point x="79" y="358" type="line"/>
      <point x="76" y="386"/>
      <point x="75" y="441"/>
      <point x="75" y="486" type="curve" smooth="yes"/>
      <point x="75" y="503"/>
      <point x="75" y="519"/>
      <point x="76" y="528" type="curve"/>
      <point x="217" y="534" type="line"/>
      <point x="221" y="525" type="line" smooth="yes"/>
      <point x="226" y="516"/>
      <point x="238" y="508"/>
      <point x="247" y="508" type="curve" smooth="yes"/>
      <point x="260" y="508"/>
      <point x="273" y="515"/>
      <point x="276" y="527" type="curve"/>
      <point x="279" y="532"/>
      <point x="280" y="539"/>
      <point x="280" y="545" type="curve" smooth="yes"/>
      <point x="274" y="606" type="line" smooth="yes"/>
      <point x="272" y="620"/>
      <point x="259" y="632"/>
      <point x="245" y="632" type="curve" smooth="yes"/>
      <point x="236" y="632"/>
      <point x="215" y="627"/>
      <point x="215" y="607" type="curve" smooth="yes"/>
      <point x="215" y="598" type="line"/>
      <point x="208" y="597"/>
      <point x="212" y="597"/>
      <point x="202" y="597" type="curve" smooth="yes"/>
      <point x="159" y="597"/>
      <point x="116" y="593"/>
      <point x="73" y="592" type="curve" smooth="yes"/>
      <point x="62" y="592"/>
      <point x="53" y="592"/>
      <point x="43" y="590" type="curve" smooth="yes"/>
      <point x="20" y="585"/>
      <point x="12" y="578"/>
      <point x="10" y="553" type="curve" smooth="yes"/>
      <point x="9" y="534"/>
      <point x="8" y="513"/>
      <point x="8" y="494" type="curve" smooth="yes"/>
      <point x="9" y="438"/>
      <point x="11" y="373"/>
      <point x="13" y="317" type="curve" smooth="yes"/>
      <point x="15" y="236"/>
      <point x="18" y="147"/>
      <point x="21" y="67" type="curve" smooth="yes"/>
      <point x="21" y="58" type="line" smooth="yes"/>
      <point x="21" y="41"/>
      <point x="34" y="25"/>
      <point x="50" y="22" type="curve" smooth="yes"/>
      <point x="55" y="21"/>
      <point x="64" y="20"/>
      <point x="69" y="20" type="curve" smooth="yes"/>
      <point x="115" y="20"/>
      <point x="178" y="20"/>
      <point x="223" y="21" type="curve" smooth="yes"/>
      <point x="228" y="21"/>
      <point x="234" y="19"/>
      <point x="237" y="16" type="curve" smooth="yes"/>
      <point x="243" y="11"/>
      <point x="252" y="7"/>
      <point x="259" y="7" type="curve" smooth="yes"/>
      <point x="282" y="7"/>
      <point x="292" y="28"/>
      <point x="292" y="46" type="curve" smooth="yes"/>
      <point x="291" y="71"/>
      <point x="289" y="88"/>
      <point x="287" y="102" type="curve" smooth="yes"/>
      <point x="284" y="122"/>
      <point x="272" y="134"/>
      <point x="256" y="134" type="curve" smooth="yes"/>
      <point x="240" y="134"/>
      <point x="229" y="123"/>
      <point x="226" y="104" type="curve"/>
    </contour>
  </outline>
</glyph>
<glyph name="F" format="1">
  <advance width="253"/>
  <unicode hex="0046"/>
  <outline>
    <contour>
      <point x="151" y="361" type="line"/>
      <point x="151" y="354" type="line"/>
      <point x="155" y="342" type="line" smooth="yes"/>
      <point x="160" y="330"/>
      <point x="171" y="321"/>
      <point x="183" y="321" type="curve" smooth="yes"/>
      <point x="201" y="321"/>
      <point x="211" y="336"/>
      <point x="211" y="348" type="curve" smooth="yes"/>
      <point x="211" y="353"/>
      <point x="208" y="397"/>
      <point x="206" y="418" type="curve"/>
      <point x="204" y="429"/>
      <point x="194" y="440"/>
      <point x="183" y="442" type="curve"/>
      <point x="178" y="442" type="line" smooth="yes"/>
      <point x="168" y="442"/>
      <point x="157" y="434"/>
      <point x="152" y="423" type="curve"/>
      <point x="152" y="421"/>
      <point x="152" y="420"/>
      <point x="151" y="419" type="curve"/>
      <point x="106" y="416" type="line"/>
      <point x="105" y="461"/>
      <point x="102" y="503"/>
      <point x="101" y="546" type="curve"/>
      <point x="129" y="545"/>
      <point x="150" y="542"/>
      <point x="177" y="541" type="curve"/>
      <point x="177" y="535" type="line" smooth="yes"/>
      <point x="177" y="530"/>
      <point x="178" y="522"/>
      <point x="179" y="518" type="curve" smooth="yes"/>
      <point x="182" y="506"/>
      <point x="196" y="497"/>
      <point x="207" y="497" type="curve" smooth="yes"/>
      <point x="224" y="497"/>
      <point x="235" y="512"/>
      <point x="237" y="524" type="curve"/>
      <point x="237" y="538"/>
      <point x="236" y="559"/>
      <point x="235" y="572" type="curve" smooth="yes"/>
      <point x="235" y="579"/>
      <point x="234" y="585"/>
      <point x="234" y="592" type="curve" smooth="yes"/>
      <point x="234" y="595"/>
      <point x="233" y="602"/>
      <point x="231" y="608" type="curve" smooth="yes"/>
      <point x="227" y="616"/>
      <point x="217" y="623"/>
      <point x="206" y="623" type="curve" smooth="yes"/>
      <point x="198" y="623"/>
      <point x="187" y="616"/>
      <point x="182" y="608" type="curve"/>
      <point x="182" y="607"/>
      <point x="181" y="604"/>
      <point x="180" y="602" type="curve"/>
      <point x="110" y="605" type="line" smooth="yes"/>
      <point x="100" y="605"/>
      <point x="90" y="605"/>
      <point x="79" y="606" type="curve" smooth="yes"/>
      <point x="73" y="606" type="line" smooth="yes"/>
      <point x="54" y="606"/>
      <point x="46" y="595"/>
      <point x="45" y="576" type="curve" smooth="yes"/>
      <point x="44" y="555"/>
      <point x="44" y="534"/>
      <point x="44" y="512" type="curve" smooth="yes"/>
      <point x="44" y="497"/>
      <point x="45" y="481"/>
      <point x="45" y="466" type="curve" smooth="yes"/>
      <point x="46" y="435"/>
      <point x="47" y="404"/>
      <point x="47" y="373" type="curve" smooth="yes"/>
      <point x="47" y="61" type="line"/>
      <point x="44" y="60"/>
      <point x="41" y="60"/>
      <point x="39" y="60" type="curve" smooth="yes"/>
      <point x="24" y="58"/>
      <point x="13" y="46"/>
      <point x="13" y="31" type="curve" smooth="yes"/>
      <point x="13" y="29"/>
      <point x="17" y="6"/>
      <point x="42" y="6" type="curve" smooth="yes"/>
      <point x="61" y="6"/>
      <point x="84" y="7"/>
      <point x="102" y="8" type="curve" smooth="yes"/>
      <point x="110" y="8"/>
      <point x="120" y="9"/>
      <point x="129" y="9" type="curve" smooth="yes"/>
      <point x="146" y="9"/>
      <point x="159" y="21"/>
      <point x="159" y="38" type="curve" smooth="yes"/>
      <point x="159" y="56"/>
      <point x="148" y="68"/>
      <point x="134" y="70" type="curve" smooth="yes"/>
      <point x="130" y="71"/>
      <point x="122" y="71"/>
      <point x="118" y="71" type="curve" smooth="yes"/>
      <point x="111" y="71" type="line"/>
      <point x="111" y="113" type="line" smooth="yes"/>
      <point x="111" y="148"/>
      <point x="110" y="183"/>
      <point x="110" y="218" type="curve" smooth="yes"/>
      <point x="109" y="253"/>
      <point x="108" y="288"/>
      <point x="108" y="322" type="curve" smooth="yes"/>
      <point x="108" y="347" type="line" smooth="yes"/>
      <point x="108" y="352"/>
      <point x="109" y="357"/>
      <point x="109" y="362" type="curve"/>
    </contour>
  </outline>
</glyph>
<glyph name="G" format="1">
  <advance width="324"/>
  <unicode hex="0047"/>
  <outline>
    <contour>
      <point x="226" y="500" type="line"/>
      <point x="226" y="518"/>
      <point x="220" y="551"/>
      <point x="211" y="569" type="curve" smooth="yes"/>
      <point x="197" y="597"/>
      <point x="174" y="631"/>
      <point x="141" y="631" type="curve" smooth="yes"/>
      <point x="109" y="631"/>
      <point x="86" y="605"/>
      <point x="74" y="583" type="curve" smooth="yes"/>
      <point x="57" y="552"/>
      <point x="37" y="497"/>
      <point x="31" y="464" type="curve" smooth="yes"/>
      <point x="20" y="395"/>
      <point x="13" y="332"/>
      <point x="13" y="269" type="curve" smooth="yes"/>
      <point x="13" y="196"/>
      <point x="34" y="54"/>
      <point x="128" y="54" type="curve" smooth="yes"/>
      <point x="161" y="54"/>
      <point x="192" y="77"/>
      <point x="208" y="103" type="curve"/>
      <point x="214" y="66" type="line"/>
      <point x="211" y="65" type="line" smooth="yes"/>
      <point x="198" y="62"/>
      <point x="190" y="49"/>
      <point x="190" y="38" type="curve" smooth="yes"/>
      <point x="190" y="22"/>
      <point x="201" y="11"/>
      <point x="217" y="11" type="curve"/>
      <point x="253" y="13" type="line"/>
      <point x="286" y="17" type="line" smooth="yes"/>
      <point x="299" y="19"/>
      <point x="310" y="31"/>
      <point x="310" y="45" type="curve" smooth="yes"/>
      <point x="310" y="50" type="line"/>
      <point x="307" y="63"/>
      <point x="294" y="74"/>
      <point x="281" y="74" type="curve" smooth="yes"/>
      <point x="271" y="74" type="line"/>
      <point x="262" y="129"/>
      <point x="257" y="170"/>
      <point x="255" y="211" type="curve" smooth="yes"/>
      <point x="253" y="241"/>
      <point x="251" y="271"/>
      <point x="247" y="299" type="curve"/>
      <point x="243" y="318"/>
      <point x="235" y="327"/>
      <point x="217" y="327" type="curve" smooth="yes"/>
      <point x="213" y="327"/>
      <point x="211" y="326"/>
      <point x="209" y="326" type="curve" smooth="yes"/>
      <point x="187" y="323"/>
      <point x="165" y="321"/>
      <point x="137" y="318" type="curve"/>
      <point x="129" y="327"/>
      <point x="123" y="332"/>
      <point x="114" y="332" type="curve" smooth="yes"/>
      <point x="96" y="332"/>
      <point x="88" y="317"/>
      <point x="88" y="302" type="curve" smooth="yes"/>
      <point x="88" y="273" type="line" smooth="yes"/>
      <point x="88" y="251"/>
      <point x="95" y="225"/>
      <point x="120" y="225" type="curve" smooth="yes"/>
      <point x="123" y="225"/>
      <point x="127" y="225"/>
      <point x="130" y="227" type="curve" smooth="yes"/>
      <point x="140" y="231"/>
      <point x="149" y="242"/>
      <point x="149" y="254" type="curve" smooth="yes"/>
      <point x="149" y="261" type="line"/>
      <point x="196" y="266" type="line"/>
      <point x="197" y="253" type="line" smooth="yes"/>
      <point x="197" y="248"/>
      <point x="198" y="239"/>
      <point x="198" y="232" type="curve" smooth="yes"/>
      <point x="199" y="223"/>
      <point x="199" y="215"/>
      <point x="199" y="208" type="curve" smooth="yes"/>
      <point x="199" y="203" type="line"/>
      <point x="191" y="168"/>
      <point x="160" y="112"/>
      <point x="127" y="112" type="curve" smooth="yes"/>
      <point x="97" y="112"/>
      <point x="83" y="161"/>
      <point x="78" y="183" type="curve" smooth="yes"/>
      <point x="73" y="207"/>
      <point x="69" y="245"/>
      <point x="69" y="268" type="curve" smooth="yes"/>
      <point x="69" y="279"/>
      <point x="70" y="298"/>
      <point x="71" y="310" type="curve" smooth="yes"/>
      <point x="74" y="349"/>
      <point x="78" y="386"/>
      <point x="83" y="425" type="curve" smooth="yes"/>
      <point x="89" y="469"/>
      <point x="101" y="514"/>
      <point x="120" y="549" type="curve" smooth="yes"/>
      <point x="124" y="558"/>
      <point x="132" y="574"/>
      <point x="138" y="574" type="curve" smooth="yes"/>
      <point x="139" y="574"/>
      <point x="142" y="571"/>
      <point x="143" y="570" type="curve" smooth="yes"/>
      <point x="157" y="551"/>
      <point x="169" y="517"/>
      <point x="170" y="494" type="curve"/>
      <point x="160" y="490"/>
      <point x="152" y="484"/>
      <point x="145" y="477" type="curve" smooth="yes"/>
      <point x="141" y="474"/>
      <point x="138" y="466"/>
      <point x="138" y="461" type="curve" smooth="yes"/>
      <point x="138" y="446"/>
      <point x="151" y="434"/>
      <point x="164" y="434" type="curve" smooth="yes"/>
      <point x="167" y="434"/>
      <point x="172" y="435"/>
      <point x="175" y="437" type="curve" smooth="yes"/>
      <point x="188" y="442"/>
      <point x="204" y="444"/>
      <point x="218" y="444" type="curve" smooth="yes"/>
      <point x="224" y="444"/>
      <point x="229" y="445"/>
      <point x="234" y="446" type="curve" smooth="yes"/>
      <point x="246" y="448"/>
      <point x="256" y="460"/>
      <point x="256" y="473" type="curve" smooth="yes"/>
      <point x="256" y="486"/>
      <point x="243" y="500"/>
      <point x="226" y="500" type="curve"/>
    </contour>
  </outline>
</glyph>
<glyph name="H" format="1">
  <advance width="348"/>
  <unicode hex="0048"/>
  <outline>
    <contour>
      <point x="290" y="71" type="line"/>
      <point x="273" y="564" type="line"/>
      <point x="276" y="564"/>
      <point x="280" y="565"/>
      <point x="283" y="566" type="curve" smooth="yes"/>
      <point x="296" y="568"/>
      <point x="312" y="580"/>
      <point x="312" y="595" type="curve" smooth="yes"/>
      <point x="312" y="610"/>
      <point x="300" y="625"/>
      <point x="283" y="625" type="curve" smooth="yes"/>
      <point x="251" y="625"/>
      <point x="222" y="620"/>
      <point x="194" y="612" type="curve"/>
      <point x="182" y="610"/>
      <point x="172" y="599"/>
      <point x="172" y="585" type="curve" smooth="yes"/>
      <point x="172" y="569"/>
      <point x="184" y="558"/>
      <point x="199" y="558" type="curve" smooth="yes"/>
      <point x="204" y="558" type="line" smooth="yes"/>
      <point x="206" y="558"/>
      <point x="212" y="560"/>
      <point x="215" y="560" type="curve"/>
      <point x="215" y="452" type="line"/>
      <point x="117" y="439" type="line"/>
      <point x="110" y="557" type="line"/>
      <point x="119" y="561" type="line" smooth="yes"/>
      <point x="129" y="565"/>
      <point x="137" y="576"/>
      <point x="137" y="588" type="curve" smooth="yes"/>
      <point x="137" y="606"/>
      <point x="122" y="618"/>
      <point x="106" y="618" type="curve"/>
      <point x="30" y="603" type="line" smooth="yes"/>
      <point x="20" y="601"/>
      <point x="11" y="593"/>
      <point x="10" y="583" type="curve"/>
      <point x="10" y="562"/>
      <point x="21" y="550"/>
      <point x="37" y="550" type="curve" smooth="yes"/>
      <point x="51" y="550" type="line"/>
      <point x="56" y="386"/>
      <point x="63" y="232"/>
      <point x="68" y="69" type="curve"/>
      <point x="60" y="67" type="line" smooth="yes"/>
      <point x="48" y="65"/>
      <point x="40" y="50"/>
      <point x="40" y="40" type="curve" smooth="yes"/>
      <point x="40" y="22"/>
      <point x="56" y="12"/>
      <point x="68" y="12" type="curve" smooth="yes"/>
      <point x="74" y="12"/>
      <point x="82" y="13"/>
      <point x="86" y="13" type="curve" smooth="yes"/>
      <point x="136" y="16" type="line"/>
      <point x="151" y="18"/>
      <point x="164" y="31"/>
      <point x="164" y="46" type="curve" smooth="yes"/>
      <point x="164" y="64"/>
      <point x="152" y="77"/>
      <point x="134" y="77" type="curve" smooth="yes"/>
      <point x="127" y="77" type="line"/>
      <point x="126" y="122"/>
      <point x="124" y="166"/>
      <point x="122" y="210" type="curve" smooth="yes"/>
      <point x="122" y="220"/>
      <point x="121" y="224"/>
      <point x="121" y="229" type="curve" smooth="yes"/>
      <point x="119" y="280"/>
      <point x="118" y="329"/>
      <point x="117" y="381" type="curve"/>
      <point x="146" y="385"/>
      <point x="194" y="390"/>
      <point x="215" y="391" type="curve"/>
      <point x="226" y="60" type="line"/>
      <point x="209" y="51"/>
      <point x="205" y="44"/>
      <point x="205" y="33" type="curve" smooth="yes"/>
      <point x="205" y="16"/>
      <point x="220" y="7"/>
      <point x="233" y="7" type="curve" smooth="yes"/>
      <point x="237" y="7"/>
      <point x="240" y="8"/>
      <point x="242" y="8" type="curve" smooth="yes"/>
      <point x="254" y="10"/>
      <point x="269" y="11"/>
      <point x="282" y="12" type="curve" smooth="yes"/>
      <point x="293" y="12"/>
      <point x="301" y="12"/>
      <point x="306" y="13" type="curve" smooth="yes"/>
      <point x="319" y="15"/>
      <point x="331" y="27"/>
      <point x="331" y="42" type="curve" smooth="yes"/>
      <point x="331" y="57"/>
      <point x="317" y="71"/>
      <point x="302" y="71" type="curve" smooth="yes"/>
    </contour>
  </outline>
</glyph>
<glyph name="I" format="1">
  <advance width="205"/>
  <unicode hex="0049"/>
  <outline>
    <contour>
      <point x="57" y="564" type="line"/>
      <point x="74" y="70" type="line"/>
      <point x="58" y="68" type="line" smooth="yes"/>
      <point x="44" y="66"/>
      <point x="33" y="53"/>
      <point x="33" y="40" type="curve" smooth="yes"/>
      <point x="33" y="25"/>
      <point x="44" y="13"/>
      <point x="59" y="11" type="curve"/>
      <point x="158" y="11" type="line" smooth="yes"/>
      <point x="175" y="11"/>
      <point x="190" y="23"/>
      <point x="190" y="42" type="curve" smooth="yes"/>
      <point x="190" y="60"/>
      <point x="180" y="70"/>
      <point x="159" y="71" type="curve" smooth="yes"/>
      <point x="136" y="73" type="line"/>
      <point x="119" y="566" type="line"/>
      <point x="139" y="569" type="line"/>
      <point x="151" y="574"/>
      <point x="161" y="587"/>
      <point x="161" y="599" type="curve" smooth="yes"/>
      <point x="161" y="616"/>
      <point x="145" y="627"/>
      <point x="133" y="629" type="curve"/>
      <point x="125" y="629" type="line" smooth="yes"/>
      <point x="109" y="629"/>
      <point x="91" y="627"/>
      <point x="79" y="625" type="curve" smooth="yes"/>
      <point x="62" y="623"/>
      <point x="39" y="620"/>
      <point x="23" y="616" type="curve"/>
      <point x="10" y="614"/>
      <point x="1" y="602"/>
      <point x="1" y="589" type="curve" smooth="yes"/>
      <point x="1" y="574"/>
      <point x="14" y="561"/>
      <point x="29" y="561" type="curve" smooth="yes"/>
      <point x="31" y="561"/>
      <point x="44" y="562"/>
      <point x="51" y="563" type="curve" smooth="yes"/>
    </contour>
  </outline>
</glyph>
<glyph name="J" format="1">
  <advance width="358"/>
  <unicode hex="004A"/>
  <outline>
    <contour>
      <point x="185" y="557" type="line"/>
      <point x="184" y="498"/>
      <point x="183" y="441"/>
      <point x="181" y="384" type="curve" smooth="yes"/>
      <point x="177" y="274" type="line" smooth="yes"/>
      <point x="175" y="237"/>
      <point x="174" y="200"/>
      <point x="173" y="163" type="curve" smooth="yes"/>
      <point x="173" y="150"/>
      <point x="173" y="72"/>
      <point x="154" y="72" type="curve" smooth="yes"/>
      <point x="139" y="72"/>
      <point x="133" y="113"/>
      <point x="129" y="128" type="curve"/>
      <point x="122" y="173"/>
      <point x="116" y="219"/>
      <point x="110" y="264" type="curve"/>
      <point x="110" y="272"/>
      <point x="108" y="279"/>
      <point x="108" y="288" type="curve"/>
      <point x="112" y="289"/>
      <point x="115" y="289"/>
      <point x="117" y="289" type="curve" smooth="yes"/>
      <point x="130" y="292"/>
      <point x="142" y="306"/>
      <point x="142" y="320" type="curve" smooth="yes"/>
      <point x="142" y="325" type="line"/>
      <point x="139" y="339"/>
      <point x="127" y="351"/>
      <point x="112" y="351" type="curve" smooth="yes"/>
      <point x="106" y="351" type="line"/>
      <point x="78" y="347"/>
      <point x="54" y="341"/>
      <point x="31" y="335" type="curve" smooth="yes"/>
      <point x="20" y="332"/>
      <point x="12" y="321"/>
      <point x="12" y="308" type="curve" smooth="yes"/>
      <point x="12" y="292"/>
      <point x="22" y="281"/>
      <point x="35" y="279" type="curve" smooth="yes"/>
      <point x="43" y="277" type="line"/>
      <point x="61" y="123" type="line" smooth="yes"/>
      <point x="64" y="101"/>
      <point x="74" y="67"/>
      <point x="84" y="48" type="curve" smooth="yes"/>
      <point x="95" y="27"/>
      <point x="125" y="8"/>
      <point x="150" y="8" type="curve" smooth="yes"/>
      <point x="186" y="8"/>
      <point x="219" y="37"/>
      <point x="224" y="70" type="curve" smooth="yes"/>
      <point x="227" y="88"/>
      <point x="231" y="122"/>
      <point x="233" y="142" type="curve" smooth="yes"/>
      <point x="236" y="188"/>
      <point x="238" y="234"/>
      <point x="239" y="280" type="curve" smooth="yes"/>
      <point x="239" y="303"/>
      <point x="241" y="341"/>
      <point x="241" y="364" type="curve" smooth="yes"/>
      <point x="241" y="420"/>
      <point x="244" y="477"/>
      <point x="245" y="533" type="curve" smooth="yes"/>
      <point x="245" y="560" type="line"/>
      <point x="278" y="562" type="line" smooth="yes"/>
      <point x="282" y="562"/>
      <point x="284" y="563"/>
      <point x="288" y="563" type="curve" smooth="yes"/>
      <point x="294" y="563"/>
      <point x="304" y="564"/>
      <point x="310" y="565" type="curve" smooth="yes"/>
      <point x="324" y="567"/>
      <point x="338" y="580"/>
      <point x="338" y="596" type="curve" smooth="yes"/>
      <point x="338" y="612"/>
      <point x="323" y="627"/>
      <point x="307" y="627" type="curve" smooth="yes"/>
      <point x="293" y="627" type="line" smooth="yes"/>
      <point x="275" y="626"/>
      <point x="253" y="625"/>
      <point x="234" y="623" type="curve" smooth="yes"/>
      <point x="130" y="612" type="line" smooth="yes"/>
      <point x="120" y="611"/>
      <point x="108" y="610"/>
      <point x="100" y="608" type="curve" smooth="yes"/>
      <point x="86" y="606" type="line" smooth="yes"/>
      <point x="71" y="604"/>
      <point x="58" y="592"/>
      <point x="58" y="576" type="curve" smooth="yes"/>
      <point x="58" y="560"/>
      <point x="71" y="547"/>
      <point x="87" y="547" type="curve" smooth="yes"/>
      <point x="103" y="547" type="line"/>
    </contour>
  </outline>
</glyph>
<glyph name="K" format="1">
  <advance width="322"/>
  <unicode hex="004B"/>
  <outline>
    <contour>
      <point x="197" y="442" type="line"/>
      <point x="220" y="475" type="line" smooth="yes"/>
      <point x="241" y="503"/>
      <point x="260" y="532"/>
      <point x="274" y="567" type="curve"/>
      <point x="293" y="575"/>
      <point x="300" y="585"/>
      <point x="300" y="598" type="curve" smooth="yes"/>
      <point x="300" y="616"/>
      <point x="282" y="627"/>
      <point x="265" y="627" type="curve" smooth="yes"/>
      <point x="244" y="626"/>
      <point x="220" y="624"/>
      <point x="200" y="621" type="curve" smooth="yes"/>
      <point x="186" y="619"/>
      <point x="174" y="607"/>
      <point x="174" y="593" type="curve" smooth="yes"/>
      <point x="174" y="585"/>
      <point x="177" y="565"/>
      <point x="206" y="565" type="curve"/>
      <point x="185" y="531"/>
      <point x="135" y="458"/>
      <point x="109" y="423" type="curve"/>
      <point x="115" y="567" type="line"/>
      <point x="120" y="569" type="line" smooth="yes"/>
      <point x="130" y="573"/>
      <point x="140" y="586"/>
      <point x="140" y="598" type="curve" smooth="yes"/>
      <point x="140" y="613"/>
      <point x="127" y="626"/>
      <point x="112" y="628" type="curve"/>
      <point x="100" y="628" type="line"/>
      <point x="42" y="622" type="line" smooth="yes"/>
      <point x="27" y="620"/>
      <point x="14" y="608"/>
      <point x="14" y="593" type="curve" smooth="yes"/>
      <point x="14" y="578"/>
      <point x="26" y="565"/>
      <point x="41" y="565" type="curve" smooth="yes"/>
      <point x="45" y="565"/>
      <point x="49" y="565"/>
      <point x="53" y="564" type="curve"/>
      <point x="32" y="63" type="line"/>
      <point x="26" y="62" type="line" smooth="yes"/>
      <point x="16" y="59"/>
      <point x="8" y="47"/>
      <point x="8" y="36" type="curve" smooth="yes"/>
      <point x="8" y="19"/>
      <point x="23" y="8"/>
      <point x="37" y="8" type="curve" smooth="yes"/>
      <point x="95" y="10" type="line" smooth="yes"/>
      <point x="98" y="10"/>
      <point x="109" y="10"/>
      <point x="114" y="11" type="curve" smooth="yes"/>
      <point x="127" y="14"/>
      <point x="139" y="26"/>
      <point x="139" y="41" type="curve" smooth="yes"/>
      <point x="139" y="58"/>
      <point x="124" y="72"/>
      <point x="108" y="72" type="curve" smooth="yes"/>
      <point x="94" y="72" type="line"/>
      <point x="95" y="142"/>
      <point x="100" y="208"/>
      <point x="103" y="278" type="curve"/>
      <point x="196" y="62" type="line"/>
      <point x="181" y="59"/>
      <point x="173" y="46"/>
      <point x="173" y="36" type="curve" smooth="yes"/>
      <point x="173" y="17"/>
      <point x="188" y="9"/>
      <point x="202" y="9" type="curve" smooth="yes"/>
      <point x="219" y="9" type="line" smooth="yes"/>
      <point x="247" y="9"/>
      <point x="267" y="11"/>
      <point x="283" y="19" type="curve" smooth="yes"/>
      <point x="293" y="23"/>
      <point x="302" y="36"/>
      <point x="302" y="47" type="curve" smooth="yes"/>
      <point x="302" y="50"/>
      <point x="300" y="55"/>
      <point x="299" y="58" type="curve" smooth="yes"/>
      <point x="294" y="69"/>
      <point x="281" y="77"/>
      <point x="271" y="77" type="curve" smooth="yes"/>
      <point x="258" y="77" type="line"/>
      <point x="243" y="110"/>
      <point x="232" y="138"/>
      <point x="217" y="171" type="curve" smooth="yes"/>
      <point x="190" y="233"/>
      <point x="166" y="297"/>
      <point x="134" y="352" type="curve"/>
      <point x="155" y="383"/>
      <point x="178" y="413"/>
      <point x="197" y="442" type="curve"/>
    </contour>
  </outline>
</glyph>
<glyph name="L" format="1">
  <advance width="368"/>
  <unicode hex="004C"/>
  <outline>
    <contour>
      <point x="61" y="466" type="line"/>
      <point x="59" y="416"/>
      <point x="56" y="367"/>
      <point x="55" y="318" type="curve" smooth="yes"/>
      <point x="54" y="259"/>
      <point x="53" y="200"/>
      <point x="53" y="142" type="curve" smooth="yes"/>
      <point x="53" y="113"/>
      <point x="52" y="84"/>
      <point x="52" y="55" type="curve" smooth="yes"/>
      <point x="52" y="27"/>
      <point x="65" y="16"/>
      <point x="93" y="16" type="curve" smooth="yes"/>
      <point x="180" y="16" type="line" smooth="yes"/>
      <point x="193" y="16"/>
      <point x="207" y="15"/>
      <point x="221" y="13" type="curve" smooth="yes"/>
      <point x="246" y="10" type="line" smooth="yes"/>
      <point x="254" y="9"/>
      <point x="266" y="8"/>
      <point x="275" y="8" type="curve" smooth="yes"/>
      <point x="306" y="8"/>
      <point x="319" y="20"/>
      <point x="319" y="49" type="curve" smooth="yes"/>
      <point x="319" y="65"/>
      <point x="318" y="84"/>
      <point x="317" y="99" type="curve" smooth="yes"/>
      <point x="317" y="106"/>
      <point x="316" y="112"/>
      <point x="316" y="121" type="curve"/>
      <point x="333" y="123"/>
      <point x="350" y="135"/>
      <point x="350" y="153" type="curve" smooth="yes"/>
      <point x="350" y="169"/>
      <point x="337" y="181"/>
      <point x="322" y="183" type="curve"/>
      <point x="311" y="183" type="line" smooth="yes"/>
      <point x="291" y="183"/>
      <point x="260" y="178"/>
      <point x="241" y="172" type="curve" smooth="yes"/>
      <point x="230" y="169"/>
      <point x="222" y="162"/>
      <point x="222" y="139" type="curve"/>
      <point x="225" y="127"/>
      <point x="237" y="116"/>
      <point x="251" y="116" type="curve" smooth="yes"/>
      <point x="259" y="116" type="line"/>
      <point x="259" y="70" type="line"/>
      <point x="221" y="77"/>
      <point x="182" y="77"/>
      <point x="142" y="77" type="curve" smooth="yes"/>
      <point x="117" y="77" type="line"/>
      <point x="116" y="106"/>
      <point x="116" y="124"/>
      <point x="116" y="153" type="curve" smooth="yes"/>
      <point x="116" y="263"/>
      <point x="120" y="373"/>
      <point x="125" y="483" type="curve" smooth="yes"/>
      <point x="129" y="562" type="line"/>
      <point x="143" y="563" type="line" smooth="yes"/>
      <point x="163" y="564"/>
      <point x="174" y="575"/>
      <point x="174" y="593" type="curve" smooth="yes"/>
      <point x="174" y="612"/>
      <point x="158" y="625"/>
      <point x="142" y="625" type="curve" smooth="yes"/>
      <point x="141" y="625"/>
      <point x="133" y="625"/>
      <point x="70" y="622" type="curve" smooth="yes"/>
      <point x="62" y="622"/>
      <point x="47" y="621"/>
      <point x="40" y="620" type="curve" smooth="yes"/>
      <point x="22" y="619"/>
      <point x="11" y="608"/>
      <point x="11" y="592" type="curve" smooth="yes"/>
      <point x="11" y="575"/>
      <point x="21" y="566"/>
      <point x="38" y="563" type="curve" smooth="yes"/>
      <point x="43" y="562"/>
      <point x="49" y="562"/>
      <point x="54" y="562" type="curve" smooth="yes"/>
      <point x="65" y="563" type="line"/>
      <point x="64" y="530"/>
      <point x="63" y="498"/>
      <point x="61" y="466" type="curve" smooth="yes"/>
    </contour>
  </outline>
</glyph>
<glyph name="M" format="1">
  <advance width="510"/>
  <unicode hex="004D"/>
  <outline>
    <contour>
      <point x="55" y="95" type="line"/>
      <point x="50" y="93" type="line" smooth="yes"/>
      <point x="45" y="92"/>
      <point x="40" y="91"/>
      <point x="33" y="88" type="curve"/>
      <point x="22" y="86"/>
      <point x="14" y="74"/>
      <point x="14" y="62" type="curve" smooth="yes"/>
      <point x="14" y="56" type="line"/>
      <point x="17" y="44"/>
      <point x="29" y="35"/>
      <point x="41" y="35" type="curve" smooth="yes"/>
      <point x="57" y="35"/>
      <point x="80" y="36"/>
      <point x="95" y="37" type="curve" smooth="yes"/>
      <point x="103" y="37"/>
      <point x="110" y="38"/>
      <point x="117" y="38" type="curve" smooth="yes"/>
      <point x="123" y="38"/>
      <point x="131" y="39"/>
      <point x="135" y="40" type="curve" smooth="yes"/>
      <point x="146" y="43"/>
      <point x="157" y="56"/>
      <point x="157" y="68" type="curve" smooth="yes"/>
      <point x="157" y="81"/>
      <point x="146" y="94"/>
      <point x="134" y="97" type="curve" smooth="yes"/>
      <point x="129" y="98"/>
      <point x="123" y="98"/>
      <point x="118" y="98" type="curve"/>
      <point x="135" y="200" type="line" smooth="yes"/>
      <point x="148" y="282"/>
      <point x="163" y="365"/>
      <point x="180" y="447" type="curve"/>
      <point x="194" y="403"/>
      <point x="193" y="393"/>
      <point x="203" y="351" type="curve"/>
      <point x="209" y="316"/>
      <point x="218" y="281"/>
      <point x="227" y="247" type="curve"/>
      <point x="217" y="243" type="line"/>
      <point x="209" y="238"/>
      <point x="203" y="228"/>
      <point x="203" y="219" type="curve" smooth="yes"/>
      <point x="203" y="204"/>
      <point x="217" y="190"/>
      <point x="231" y="190" type="curve" smooth="yes"/>
      <point x="236" y="190" type="line"/>
      <point x="247" y="192"/>
      <point x="263" y="194"/>
      <point x="272" y="194" type="curve" smooth="yes"/>
      <point x="280" y="194"/>
      <point x="294" y="193"/>
      <point x="302" y="192" type="curve" smooth="yes"/>
      <point x="307" y="192" type="line" smooth="yes"/>
      <point x="323" y="192"/>
      <point x="336" y="204"/>
      <point x="336" y="221" type="curve" smooth="yes"/>
      <point x="336" y="234"/>
      <point x="326" y="247"/>
      <point x="313" y="250" type="curve"/>
      <point x="312" y="250"/>
      <point x="310" y="251"/>
      <point x="309" y="251" type="curve"/>
      <point x="322" y="286"/>
      <point x="357" y="366"/>
      <point x="378" y="411" type="curve"/>
      <point x="378" y="63" type="line"/>
      <point x="358" y="58" type="line" smooth="yes"/>
      <point x="348" y="56"/>
      <point x="339" y="44"/>
      <point x="339" y="33" type="curve" smooth="yes"/>
      <point x="339" y="27" type="line"/>
      <point x="342" y="15"/>
      <point x="355" y="6"/>
      <point x="366" y="6" type="curve" smooth="yes"/>
      <point x="464" y="11" type="line"/>
      <point x="477" y="14"/>
      <point x="488" y="27"/>
      <point x="488" y="41" type="curve"/>
      <point x="486" y="55"/>
      <point x="477" y="68"/>
      <point x="462" y="69" type="curve"/>
      <point x="437" y="69" type="line"/>
      <point x="437" y="79" type="line" smooth="yes"/>
      <point x="436" y="135"/>
      <point x="435" y="190"/>
      <point x="435" y="245" type="curve" smooth="yes"/>
      <point x="435" y="487" type="line" smooth="yes"/>
      <point x="435" y="502"/>
      <point x="436" y="515"/>
      <point x="437" y="530" type="curve" smooth="yes"/>
      <point x="437" y="535"/>
      <point x="438" y="538"/>
      <point x="438" y="542" type="curve"/>
      <point x="443" y="543" type="line" smooth="yes"/>
      <point x="455" y="546"/>
      <point x="464" y="560"/>
      <point x="464" y="571" type="curve" smooth="yes"/>
      <point x="464" y="585"/>
      <point x="450" y="599"/>
      <point x="436" y="599" type="curve" smooth="yes"/>
      <point x="421" y="599" type="line"/>
      <point x="352" y="590" type="line" smooth="yes"/>
      <point x="331" y="587"/>
      <point x="320" y="577"/>
      <point x="320" y="562" type="curve" smooth="yes"/>
      <point x="320" y="539"/>
      <point x="341" y="535"/>
      <point x="355" y="535" type="curve" smooth="yes"/>
      <point x="365" y="535" type="line"/>
      <point x="263" y="318" type="line"/>
      <point x="248" y="401"/>
      <point x="231" y="481"/>
      <point x="208" y="560" type="curve"/>
      <point x="212" y="561" type="line" smooth="yes"/>
      <point x="214" y="561"/>
      <point x="229" y="566"/>
      <point x="239" y="569" type="curve"/>
      <point x="247" y="573"/>
      <point x="253" y="584"/>
      <point x="253" y="594" type="curve" smooth="yes"/>
      <point x="253" y="600" type="line"/>
      <point x="250" y="611"/>
      <point x="236" y="622"/>
      <point x="225" y="622" type="curve" smooth="yes"/>
      <point x="215" y="622" type="line"/>
      <point x="134" y="604" type="line"/>
      <point x="117" y="599" type="line"/>
      <point x="109" y="594"/>
      <point x="101" y="582"/>
      <point x="101" y="572" type="curve" smooth="yes"/>
      <point x="101" y="565" type="line"/>
      <point x="104" y="554"/>
      <point x="116" y="545"/>
      <point x="127" y="545" type="curve" smooth="yes"/>
      <point x="134" y="545" type="line"/>
    </contour>
  </outline>
</glyph>
<glyph name="N" format="1">
  <advance width="374"/>
  <unicode hex="004E"/>
  <outline>
    <contour>
      <point x="321" y="311" type="line"/>
      <point x="321" y="349"/>
      <point x="321" y="387"/>
      <point x="322" y="425" type="curve" smooth="yes"/>
      <point x="322" y="463"/>
      <point x="323" y="501"/>
      <point x="323" y="547" type="curve"/>
      <point x="328" y="547"/>
      <point x="329" y="548"/>
      <point x="331" y="548" type="curve" smooth="yes"/>
      <point x="348" y="548"/>
      <point x="361" y="563"/>
      <point x="361" y="579" type="curve" smooth="yes"/>
      <point x="361" y="597"/>
      <point x="349" y="609"/>
      <point x="331" y="609" type="curve" smooth="yes"/>
      <point x="326" y="609" type="line" smooth="yes"/>
      <point x="300" y="607"/>
      <point x="271" y="604"/>
      <point x="245" y="601" type="curve" smooth="yes"/>
      <point x="231" y="600"/>
      <point x="219" y="587"/>
      <point x="219" y="573" type="curve" smooth="yes"/>
      <point x="219" y="555"/>
      <point x="236" y="543"/>
      <point x="249" y="543" type="curve" smooth="yes"/>
      <point x="258" y="543" type="line"/>
      <point x="258" y="227" type="line"/>
      <point x="227" y="305"/>
      <point x="202" y="352"/>
      <point x="167" y="424" type="curve" smooth="yes"/>
      <point x="146" y="467"/>
      <point x="125" y="510"/>
      <point x="106" y="554" type="curve"/>
      <point x="120" y="556" type="line" smooth="yes"/>
      <point x="135" y="559"/>
      <point x="146" y="571"/>
      <point x="146" y="586" type="curve" smooth="yes"/>
      <point x="146" y="601"/>
      <point x="133" y="615"/>
      <point x="117" y="615" type="curve" smooth="yes"/>
      <point x="109" y="615"/>
      <point x="93" y="614"/>
      <point x="84" y="612" type="curve" smooth="yes"/>
      <point x="19" y="601" type="line" smooth="yes"/>
      <point x="3" y="598"/>
      <point x="-7" y="588"/>
      <point x="-7" y="573" type="curve" smooth="yes"/>
      <point x="-7" y="568" type="line"/>
      <point x="-4" y="552"/>
      <point x="7" y="544"/>
      <point x="27" y="544" type="curve" smooth="yes"/>
      <point x="37" y="544" type="line"/>
      <point x="37" y="455" type="line" smooth="yes"/>
      <point x="37" y="429"/>
      <point x="36" y="402"/>
      <point x="35" y="375" type="curve" smooth="yes"/>
      <point x="34" y="348"/>
      <point x="33" y="321"/>
      <point x="33" y="293" type="curve" smooth="yes"/>
      <point x="33" y="73" type="line" smooth="yes"/>
      <point x="33" y="71"/>
      <point x="33" y="70"/>
      <point x="32" y="69" type="curve"/>
      <point x="18" y="66" type="line" smooth="yes"/>
      <point x="6" y="63"/>
      <point x="-5" y="50"/>
      <point x="-5" y="37" type="curve" smooth="yes"/>
      <point x="-5" y="20"/>
      <point x="8" y="8"/>
      <point x="24" y="8" type="curve" smooth="yes"/>
      <point x="28" y="8" type="line"/>
      <point x="62" y="10" type="line" smooth="yes"/>
      <point x="75" y="11"/>
      <point x="91" y="12"/>
      <point x="104" y="14" type="curve" smooth="yes"/>
      <point x="117" y="15"/>
      <point x="130" y="28"/>
      <point x="130" y="44" type="curve" smooth="yes"/>
      <point x="130" y="63"/>
      <point x="116" y="75"/>
      <point x="102" y="76" type="curve" smooth="yes"/>
      <point x="100" y="76"/>
      <point x="98" y="77"/>
      <point x="96" y="77" type="curve"/>
      <point x="96" y="246" type="line" smooth="yes"/>
      <point x="96" y="308"/>
      <point x="96" y="372"/>
      <point x="98" y="435" type="curve"/>
      <point x="125" y="379"/>
      <point x="151" y="322"/>
      <point x="177" y="266" type="curve" smooth="yes"/>
      <point x="194" y="229" type="line"/>
      <point x="210" y="186"/>
      <point x="238" y="118"/>
      <point x="258" y="79" type="curve"/>
      <point x="253" y="78" type="line" smooth="yes"/>
      <point x="239" y="77"/>
      <point x="228" y="64"/>
      <point x="228" y="49" type="curve" smooth="yes"/>
      <point x="228" y="32"/>
      <point x="245" y="21"/>
      <point x="257" y="21" type="curve" smooth="yes"/>
      <point x="261" y="21" type="line"/>
      <point x="340" y="27" type="line" smooth="yes"/>
      <point x="345" y="27"/>
      <point x="354" y="28"/>
      <point x="356" y="29" type="curve" smooth="yes"/>
      <point x="368" y="33"/>
      <point x="378" y="46"/>
      <point x="378" y="59" type="curve" smooth="yes"/>
      <point x="378" y="77"/>
      <point x="360" y="89"/>
      <point x="348" y="89" type="curve" smooth="yes"/>
      <point x="342" y="89"/>
      <point x="336" y="88"/>
      <point x="329" y="87" type="curve"/>
      <point x="321" y="162"/>
      <point x="321" y="236"/>
      <point x="321" y="311" type="curve" smooth="yes"/>
    </contour>
  </outline>
</glyph>
<glyph name="O" format="1">
  <advance width="245"/>
  <unicode hex="004F"/>
  <outline>
    <contour>
      <point x="227" y="157" type="line"/>
      <point x="230" y="187"/>
      <point x="230" y="255"/>
      <point x="230" y="310" type="curve" smooth="yes"/>
      <point x="230" y="392" type="line"/>
      <point x="227" y="446"/>
      <point x="204" y="531"/>
      <point x="181" y="579" type="curve" smooth="yes"/>
      <point x="170" y="603"/>
      <point x="146" y="628"/>
      <point x="120" y="628" type="curve" smooth="yes"/>
      <point x="64" y="628"/>
      <point x="34" y="540"/>
      <point x="26" y="499" type="curve" smooth="yes"/>
      <point x="18" y="456"/>
      <point x="11" y="385"/>
      <point x="10" y="341" type="curve" smooth="yes"/>
      <point x="10" y="327" type="line" smooth="yes"/>
      <point x="10" y="292"/>
      <point x="14" y="232"/>
      <point x="18" y="197" type="curve" smooth="yes"/>
      <point x="22" y="167"/>
      <point x="34" y="114"/>
      <point x="46" y="82" type="curve" smooth="yes"/>
      <point x="59" y="46"/>
      <point x="87" y="6"/>
      <point x="127" y="6" type="curve" smooth="yes"/>
      <point x="163" y="6"/>
      <point x="189" y="36"/>
      <point x="202" y="62" type="curve"/>
      <point x="216" y="85"/>
      <point x="227" y="128"/>
      <point x="227" y="157" type="curve"/>
    </contour>
    <contour>
      <point x="161" y="417" type="line"/>
      <point x="161" y="402"/>
      <point x="162" y="384"/>
      <point x="163" y="369" type="curve" smooth="yes"/>
      <point x="165" y="323"/>
      <point x="166" y="276"/>
      <point x="166" y="229" type="curve" smooth="yes"/>
      <point x="166" y="201"/>
      <point x="165" y="68"/>
      <point x="125" y="68" type="curve" smooth="yes"/>
      <point x="101" y="68"/>
      <point x="82" y="183"/>
      <point x="80" y="199" type="curve" smooth="yes"/>
      <point x="76" y="231"/>
      <point x="73" y="284"/>
      <point x="73" y="315" type="curve" smooth="yes"/>
      <point x="73" y="343" type="line"/>
      <point x="76" y="387"/>
      <point x="81" y="436"/>
      <point x="87" y="481" type="curve" smooth="yes"/>
      <point x="90" y="500"/>
      <point x="99" y="529"/>
      <point x="109" y="545" type="curve"/>
      <point x="111" y="550"/>
      <point x="115" y="555"/>
      <point x="120" y="558" type="curve"/>
      <point x="137" y="546"/>
      <point x="159" y="495"/>
      <point x="161" y="417" type="curve" smooth="yes"/>
    </contour>
  </outline>
</glyph>
<glyph name="P" format="1">
  <advance width="369"/>
  <unicode hex="0050"/>
  <outline>
    <contour>
      <point x="98" y="61" type="line"/>
      <point x="80" y="59"/>
      <point x="61" y="49"/>
      <point x="61" y="31" type="curve" smooth="yes"/>
      <point x="61" y="17"/>
      <point x="75" y="4"/>
      <point x="87" y="4" type="curve" smooth="yes"/>
      <point x="92" y="4" type="line" smooth="yes"/>
      <point x="99" y="5"/>
      <point x="106" y="6"/>
      <point x="109" y="6" type="curve" smooth="yes"/>
      <point x="173" y="9" type="line"/>
      <point x="192" y="12"/>
      <point x="207" y="19"/>
      <point x="207" y="39" type="curve" smooth="yes"/>
      <point x="207" y="52"/>
      <point x="195" y="65"/>
      <point x="181" y="65" type="curve" smooth="yes"/>
      <point x="180" y="65"/>
      <point x="163" y="65"/>
      <point x="151" y="64" type="curve"/>
      <point x="142" y="99"/>
      <point x="132" y="231"/>
      <point x="132" y="297" type="curve" smooth="yes"/>
      <point x="132" y="314" type="line"/>
      <point x="234" y="345"/>
      <point x="278" y="367"/>
      <point x="303" y="385" type="curve" smooth="yes"/>
      <point x="344" y="413"/>
      <point x="355" y="459"/>
      <point x="355" y="499" type="curve" smooth="yes"/>
      <point x="355" y="580"/>
      <point x="265" y="622"/>
      <point x="201" y="622" type="curve" smooth="yes"/>
      <point x="158" y="622"/>
      <point x="121" y="614"/>
      <point x="95" y="608" type="curve" smooth="yes"/>
      <point x="88" y="606" type="line" smooth="yes"/>
      <point x="71" y="600"/>
      <point x="45" y="590"/>
      <point x="32" y="583" type="curve"/>
      <point x="24" y="580"/>
      <point x="17" y="569"/>
      <point x="17" y="560" type="curve" smooth="yes"/>
      <point x="17" y="545"/>
      <point x="32" y="535"/>
      <point x="44" y="535" type="curve" smooth="yes"/>
      <point x="47" y="535"/>
      <point x="52" y="536"/>
      <point x="55" y="538" type="curve"/>
      <point x="69" y="542" type="line"/>
      <point x="69" y="533" type="line" smooth="yes"/>
      <point x="70" y="501"/>
      <point x="71" y="468"/>
      <point x="73" y="436" type="curve" smooth="yes"/>
      <point x="76" y="378"/>
      <point x="76" y="319"/>
      <point x="80" y="260" type="curve" smooth="yes"/>
      <point x="83" y="210"/>
      <point x="87" y="157"/>
      <point x="93" y="108" type="curve" smooth="yes"/>
    </contour>
    <contour>
      <point x="138" y="563" type="line"/>
      <point x="155" y="566"/>
      <point x="172" y="568"/>
      <point x="202" y="568" type="curve" smooth="yes"/>
      <point x="241" y="568"/>
      <point x="298" y="545"/>
      <point x="298" y="500" type="curve" smooth="yes"/>
      <point x="298" y="465"/>
      <point x="288" y="443"/>
      <point x="274" y="434" type="curve"/>
      <point x="254" y="418"/>
      <point x="216" y="400"/>
      <point x="129" y="373" type="curve"/>
      <point x="126" y="412"/>
      <point x="126" y="438"/>
      <point x="125" y="477" type="curve" smooth="yes"/>
      <point x="122" y="560" type="line"/>
    </contour>
  </outline>
</glyph>
<glyph name="Q" format="1">
  <advance width="348"/>
  <unicode hex="0051"/>
  <outline>
    <contour>
      <point x="249" y="125" type="line"/>
      <point x="260" y="165"/>
      <point x="272" y="232"/>
      <point x="272" y="275" type="curve" smooth="yes"/>
      <point x="273" y="407"/>
      <point x="274" y="439"/>
      <point x="274" y="450" type="curve" smooth="yes"/>
      <point x="274" y="456" type="line" smooth="yes"/>
      <point x="274" y="466"/>
      <point x="273" y="479"/>
      <point x="272" y="488" type="curve" smooth="yes"/>
      <point x="262" y="548"/>
      <point x="225" y="626"/>
      <point x="157" y="626" type="curve" smooth="yes"/>
      <point x="150" y="626"/>
      <point x="137" y="623"/>
      <point x="131" y="621" type="curve" smooth="yes"/>
      <point x="46" y="590"/>
      <point x="18" y="422"/>
      <point x="14" y="353" type="curve" smooth="yes"/>
      <point x="13" y="330"/>
      <point x="12" y="293"/>
      <point x="12" y="271" type="curve" smooth="yes"/>
      <point x="12" y="233"/>
      <point x="16" y="171"/>
      <point x="20" y="134" type="curve" smooth="yes"/>
      <point x="23" y="112"/>
      <point x="33" y="77"/>
      <point x="44" y="58" type="curve" smooth="yes"/>
      <point x="60" y="32"/>
      <point x="96" y="12"/>
      <point x="125" y="12" type="curve" smooth="yes"/>
      <point x="134" y="12"/>
      <point x="145" y="14"/>
      <point x="152" y="15" type="curve"/>
      <point x="182" y="24"/>
      <point x="211" y="40"/>
      <point x="228" y="70" type="curve"/>
      <point x="249" y="51" type="line"/>
      <point x="244" y="44" type="line" smooth="yes"/>
      <point x="242" y="41"/>
      <point x="241" y="35"/>
      <point x="241" y="32" type="curve" smooth="yes"/>
      <point x="241" y="24"/>
      <point x="247" y="14"/>
      <point x="255" y="9" type="curve" smooth="yes"/>
      <point x="257" y="7"/>
      <point x="263" y="6"/>
      <point x="267" y="6" type="curve" smooth="yes"/>
      <point x="275" y="6"/>
      <point x="284" y="11"/>
      <point x="288" y="16" type="curve" smooth="yes"/>
      <point x="324" y="61" type="line" smooth="yes"/>
      <point x="329" y="66"/>
      <point x="332" y="75"/>
      <point x="332" y="80" type="curve" smooth="yes"/>
      <point x="332" y="88"/>
      <point x="327" y="97"/>
      <point x="321" y="102" type="curve" smooth="yes"/>
      <point x="317" y="105"/>
      <point x="310" y="108"/>
      <point x="304" y="108" type="curve" smooth="yes"/>
      <point x="296" y="108"/>
      <point x="287" y="103"/>
      <point x="282" y="97" type="curve"/>
    </contour>
    <contour>
      <point x="188" y="195" type="line"/>
      <point x="190" y="200" type="line" smooth="yes"/>
      <point x="191" y="203"/>
      <point x="193" y="208"/>
      <point x="193" y="211" type="curve" smooth="yes"/>
      <point x="193" y="227"/>
      <point x="181" y="238"/>
      <point x="165" y="238" type="curve" smooth="yes"/>
      <point x="163" y="238"/>
      <point x="157" y="236"/>
      <point x="153" y="234" type="curve" smooth="yes"/>
      <point x="141" y="225" type="line"/>
      <point x="110" y="193" type="line" smooth="yes"/>
      <point x="107" y="189"/>
      <point x="104" y="182"/>
      <point x="103" y="177" type="curve"/>
      <point x="103" y="171" type="line" smooth="yes"/>
      <point x="103" y="164"/>
      <point x="108" y="154"/>
      <point x="116" y="149" type="curve" smooth="yes"/>
      <point x="119" y="147"/>
      <point x="125" y="146"/>
      <point x="129" y="146" type="curve" smooth="yes"/>
      <point x="134" y="146"/>
      <point x="141" y="148"/>
      <point x="146" y="153" type="curve"/>
      <point x="151" y="156" type="line"/>
      <point x="157" y="147"/>
      <point x="161" y="140"/>
      <point x="165" y="135" type="curve" smooth="yes"/>
      <point x="186" y="110" type="line"/>
      <point x="179" y="83"/>
      <point x="146" y="69"/>
      <point x="129" y="68" type="curve" smooth="yes"/>
      <point x="114" y="68"/>
      <point x="99" y="77"/>
      <point x="93" y="88" type="curve" smooth="yes"/>
      <point x="86" y="101"/>
      <point x="80" y="121"/>
      <point x="78" y="134" type="curve" smooth="yes"/>
      <point x="73" y="169"/>
      <point x="70" y="229"/>
      <point x="70" y="279" type="curve" smooth="yes"/>
      <point x="70" y="312"/>
      <point x="73" y="369"/>
      <point x="77" y="403" type="curve" smooth="yes"/>
      <point x="82" y="439"/>
      <point x="98" y="495"/>
      <point x="113" y="528" type="curve" smooth="yes"/>
      <point x="122" y="546"/>
      <point x="135" y="569"/>
      <point x="157" y="569" type="curve" smooth="yes"/>
      <point x="192" y="569"/>
      <point x="207" y="518"/>
      <point x="214" y="493" type="curve"/>
      <point x="212" y="485"/>
      <point x="211" y="477"/>
      <point x="211" y="473" type="curve" smooth="yes"/>
      <point x="211" y="469"/>
      <point x="212" y="465"/>
      <point x="213" y="461" type="curve"/>
      <point x="215" y="438"/>
      <point x="217" y="414"/>
      <point x="217" y="390" type="curve" smooth="yes"/>
      <point x="217" y="349"/>
      <point x="217" y="306"/>
      <point x="214" y="264" type="curve" smooth="yes"/>
      <point x="213" y="244"/>
      <point x="209" y="218"/>
      <point x="205" y="196" type="curve"/>
      <point x="203" y="190"/>
      <point x="202" y="184"/>
      <point x="201" y="178" type="curve"/>
    </contour>
  </outline>
</glyph>
<glyph name="R" format="1">
  <advance width="365"/>
  <unicode hex="0052"/>
  <outline>
    <contour>
      <point x="220" y="43" type="line"/>
      <point x="220" y="22"/>
      <point x="238" y="16"/>
      <point x="251" y="16" type="curve" smooth="yes"/>
      <point x="277" y="16" type="line" smooth="yes"/>
      <point x="282" y="16"/>
      <point x="286" y="17"/>
      <point x="290" y="17" type="curve" smooth="yes"/>
      <point x="299" y="17"/>
      <point x="311" y="18"/>
      <point x="319" y="19" type="curve" smooth="yes"/>
      <point x="332" y="21"/>
      <point x="345" y="34"/>
      <point x="345" y="48" type="curve" smooth="yes"/>
      <point x="345" y="65"/>
      <point x="328" y="77"/>
      <point x="316" y="77" type="curve" smooth="yes"/>
      <point x="301" y="78" type="line"/>
      <point x="299" y="80"/>
      <point x="296" y="84"/>
      <point x="148" y="313" type="curve"/>
      <point x="220" y="355"/>
      <point x="264" y="397"/>
      <point x="288" y="428" type="curve"/>
      <point x="299" y="446"/>
      <point x="311" y="477"/>
      <point x="311" y="497" type="curve" smooth="yes"/>
      <point x="311" y="504"/>
      <point x="310" y="514"/>
      <point x="309" y="520" type="curve" smooth="yes"/>
      <point x="295" y="588"/>
      <point x="236" y="629"/>
      <point x="177" y="629" type="curve" smooth="yes"/>
      <point x="127" y="629"/>
      <point x="83" y="614"/>
      <point x="64" y="605" type="curve"/>
      <point x="50" y="600"/>
      <point x="29" y="583"/>
      <point x="18" y="570" type="curve" smooth="yes"/>
      <point x="14" y="566"/>
      <point x="12" y="557"/>
      <point x="12" y="552" type="curve" smooth="yes"/>
      <point x="12" y="544"/>
      <point x="16" y="535"/>
      <point x="22" y="530" type="curve" smooth="yes"/>
      <point x="27" y="525"/>
      <point x="32" y="523"/>
      <point x="39" y="523" type="curve" smooth="yes"/>
      <point x="46" y="523"/>
      <point x="53" y="527"/>
      <point x="61" y="535" type="curve"/>
      <point x="66" y="538" type="line"/>
      <point x="66" y="415" type="line" smooth="yes"/>
      <point x="66" y="343"/>
      <point x="67" y="258"/>
      <point x="70" y="185" type="curve" smooth="yes"/>
      <point x="75" y="63" type="line"/>
      <point x="61" y="62" type="line" smooth="yes"/>
      <point x="47" y="60"/>
      <point x="37" y="48"/>
      <point x="37" y="35" type="curve" smooth="yes"/>
      <point x="37" y="17"/>
      <point x="52" y="7"/>
      <point x="64" y="7" type="curve" smooth="yes"/>
      <point x="90" y="7"/>
      <point x="118" y="8"/>
      <point x="144" y="10" type="curve" smooth="yes"/>
      <point x="159" y="12"/>
      <point x="170" y="24"/>
      <point x="170" y="39" type="curve" smooth="yes"/>
      <point x="170" y="47"/>
      <point x="162" y="67"/>
      <point x="144" y="68" type="curve"/>
      <point x="125" y="68" type="line"/>
      <point x="125" y="159" type="line" smooth="yes"/>
      <point x="125" y="179"/>
      <point x="124" y="206"/>
      <point x="123" y="227" type="curve" smooth="yes"/>
      <point x="123" y="232"/>
      <point x="123" y="239"/>
      <point x="122" y="245" type="curve"/>
      <point x="240" y="69" type="line"/>
      <point x="227" y="64"/>
      <point x="220" y="55"/>
      <point x="220" y="43" type="curve" smooth="yes"/>
    </contour>
    <contour>
      <point x="118" y="560" type="line"/>
      <point x="135" y="565"/>
      <point x="152" y="566"/>
      <point x="169" y="567" type="curve"/>
      <point x="215" y="565"/>
      <point x="245" y="541"/>
      <point x="251" y="496" type="curve" smooth="yes"/>
      <point x="251" y="492" type="line" smooth="yes"/>
      <point x="251" y="483"/>
      <point x="247" y="471"/>
      <point x="241" y="463" type="curve" smooth="yes"/>
      <point x="229" y="445"/>
      <point x="202" y="416"/>
      <point x="184" y="402" type="curve"/>
      <point x="155" y="383"/>
      <point x="137" y="369"/>
      <point x="120" y="357" type="curve"/>
      <point x="119" y="409"/>
      <point x="117" y="458"/>
      <point x="117" y="507" type="curve" smooth="yes"/>
    </contour>
  </outline>
</glyph>
<glyph name="S" format="1">
  <advance width="421"/>
  <unicode hex="0053"/>
  <outline>
    <contour>
      <point x="338" y="563" type="line"/>
      <point x="325" y="595"/>
      <point x="293" y="630"/>
      <point x="256" y="630" type="curve" smooth="yes"/>
      <point x="242" y="630"/>
      <point x="219" y="620"/>
      <point x="208" y="609" type="curve" smooth="yes"/>
      <point x="194" y="596"/>
      <point x="175" y="569"/>
      <point x="167" y="551" type="curve" smooth="yes"/>
      <point x="159" y="531"/>
      <point x="151" y="496"/>
      <point x="151" y="474" type="curve" smooth="yes"/>
      <point x="151" y="456"/>
      <point x="156" y="427"/>
      <point x="163" y="409" type="curve" smooth="yes"/>
      <point x="193" y="323"/>
      <point x="225" y="243"/>
      <point x="257" y="164" type="curve"/>
      <point x="262" y="149"/>
      <point x="267" y="122"/>
      <point x="267" y="101" type="curve" smooth="yes"/>
      <point x="267" y="75"/>
      <point x="249" y="64"/>
      <point x="232" y="64" type="curve" smooth="yes"/>
      <point x="225" y="64"/>
      <point x="219" y="65"/>
      <point x="215" y="67" type="curve" smooth="yes"/>
      <point x="201" y="73"/>
      <point x="181" y="88"/>
      <point x="171" y="101" type="curve" smooth="yes"/>
      <point x="145" y="134"/>
      <point x="128" y="180"/>
      <point x="114" y="223" type="curve" smooth="yes"/>
      <point x="108" y="242" type="line"/>
      <point x="120" y="246"/>
      <point x="130" y="258"/>
      <point x="130" y="270" type="curve" smooth="yes"/>
      <point x="130" y="288"/>
      <point x="115" y="298"/>
      <point x="103" y="298" type="curve" smooth="yes"/>
      <point x="79" y="298"/>
      <point x="53" y="284"/>
      <point x="32" y="277" type="curve" smooth="yes"/>
      <point x="22" y="274"/>
      <point x="13" y="261"/>
      <point x="13" y="249" type="curve"/>
      <point x="16" y="231"/>
      <point x="28" y="225"/>
      <point x="39" y="225" type="curve" smooth="yes"/>
      <point x="47" y="225"/>
      <point x="50" y="226"/>
      <point x="52" y="226" type="curve"/>
      <point x="58" y="200"/>
      <point x="72" y="156"/>
      <point x="85" y="129" type="curve" smooth="yes"/>
      <point x="104" y="87"/>
      <point x="130" y="46"/>
      <point x="172" y="23" type="curve" smooth="yes"/>
      <point x="185" y="15"/>
      <point x="210" y="9"/>
      <point x="226" y="9" type="curve" smooth="yes"/>
      <point x="277" y="9"/>
      <point x="319" y="46"/>
      <point x="320" y="98" type="curve" smooth="yes"/>
      <point x="320" y="130"/>
      <point x="315" y="166"/>
      <point x="305" y="187" type="curve"/>
      <point x="214" y="419" type="line" smooth="yes"/>
      <point x="208" y="434"/>
      <point x="205" y="457"/>
      <point x="205" y="473" type="curve" smooth="yes"/>
      <point x="205" y="495"/>
      <point x="223" y="572"/>
      <point x="251" y="572" type="curve" smooth="yes"/>
      <point x="279" y="572"/>
      <point x="295" y="518"/>
      <point x="303" y="497" type="curve"/>
      <point x="297" y="494" type="line" smooth="yes"/>
      <point x="288" y="491"/>
      <point x="280" y="480"/>
      <point x="280" y="470" type="curve" smooth="yes"/>
      <point x="280" y="456"/>
      <point x="293" y="444"/>
      <point x="306" y="444" type="curve" smooth="yes"/>
      <point x="309" y="444"/>
      <point x="314" y="445"/>
      <point x="317" y="446" type="curve" smooth="yes"/>
      <point x="376" y="463" type="line" smooth="yes"/>
      <point x="387" y="466"/>
      <point x="398" y="477"/>
      <point x="398" y="490" type="curve" smooth="yes"/>
      <point x="398" y="509"/>
      <point x="382" y="518"/>
      <point x="366" y="518" type="curve" smooth="yes"/>
      <point x="364" y="518"/>
      <point x="359" y="518"/>
      <point x="356" y="517" type="curve"/>
      <point x="352" y="527" type="line" smooth="yes"/>
      <point x="346" y="542"/>
      <point x="341" y="558"/>
      <point x="338" y="563" type="curve"/>
    </contour>
  </outline>
</glyph>
<glyph name="T" format="1">
  <advance width="547"/>
  <unicode hex="0054"/>
  <outline>
    <contour>
      <point x="223" y="509" type="line"/>
      <point x="223" y="445" type="line"/>
      <point x="227" y="392"/>
      <point x="228" y="339"/>
      <point x="231" y="287" type="curve" smooth="yes"/>
      <point x="245" y="66" type="line"/>
      <point x="235" y="65" type="line" smooth="yes"/>
      <point x="218" y="63"/>
      <point x="205" y="49"/>
      <point x="205" y="32" type="curve"/>
      <point x="207" y="16"/>
      <point x="220" y="4"/>
      <point x="236" y="4" type="curve" smooth="yes"/>
      <point x="306" y="4" type="line"/>
      <point x="322" y="7"/>
      <point x="332" y="16"/>
      <point x="336" y="30" type="curve"/>
      <point x="336" y="37" type="line" smooth="yes"/>
      <point x="336" y="50"/>
      <point x="326" y="64"/>
      <point x="313" y="68" type="curve" smooth="yes"/>
      <point x="302" y="71" type="line"/>
      <point x="288" y="326" type="line" smooth="yes"/>
      <point x="286" y="358"/>
      <point x="285" y="389"/>
      <point x="284" y="422" type="curve" smooth="yes"/>
      <point x="282" y="474" type="line"/>
      <point x="278" y="507" type="line" smooth="yes"/>
      <point x="278" y="510"/>
      <point x="278" y="514"/>
      <point x="277" y="518" type="curve"/>
      <point x="319" y="525"/>
      <point x="380" y="529"/>
      <point x="420" y="529" type="curve" smooth="yes"/>
      <point x="449" y="529" type="line"/>
      <point x="450" y="519"/>
      <point x="451" y="511"/>
      <point x="453" y="504" type="curve"/>
      <point x="455" y="490"/>
      <point x="469" y="477"/>
      <point x="485" y="477" type="curve" smooth="yes"/>
      <point x="503" y="477"/>
      <point x="516" y="491"/>
      <point x="516" y="509" type="curve" smooth="yes"/>
      <point x="516" y="523"/>
      <point x="516" y="538"/>
      <point x="515" y="548" type="curve" smooth="yes"/>
      <point x="513" y="597" type="line" smooth="yes"/>
      <point x="512" y="614"/>
      <point x="499" y="627"/>
      <point x="484" y="627" type="curve" smooth="yes"/>
      <point x="465" y="627"/>
      <point x="452" y="614"/>
      <point x="450" y="599" type="curve"/>
      <point x="424" y="597" type="line"/>
      <point x="386" y="597"/>
      <point x="322" y="592"/>
      <point x="283" y="586" type="curve" smooth="yes"/>
      <point x="263" y="583"/>
      <point x="240" y="580"/>
      <point x="220" y="579" type="curve" smooth="yes"/>
      <point x="171" y="577"/>
      <point x="121" y="576"/>
      <point x="72" y="575" type="curve" smooth="yes"/>
      <point x="65" y="575" type="line"/>
      <point x="64" y="582" type="line"/>
      <point x="59" y="593"/>
      <point x="48" y="602"/>
      <point x="36" y="602" type="curve" smooth="yes"/>
      <point x="24" y="602"/>
      <point x="12" y="596"/>
      <point x="8" y="584" type="curve" smooth="yes"/>
      <point x="5" y="578"/>
      <point x="4" y="569"/>
      <point x="4" y="563" type="curve" smooth="yes"/>
      <point x="4" y="548"/>
      <point x="4" y="527"/>
      <point x="5" y="512" type="curve" smooth="yes"/>
      <point x="5" y="503"/>
      <point x="7" y="484"/>
      <point x="9" y="476" type="curve" smooth="yes"/>
      <point x="12" y="460"/>
      <point x="25" y="447"/>
      <point x="42" y="447" type="curve" smooth="yes"/>
      <point x="49" y="447" type="line"/>
      <point x="63" y="452"/>
      <point x="72" y="461"/>
      <point x="72" y="479" type="curve"/>
      <point x="70" y="510" type="line"/>
    </contour>
  </outline>
</glyph>
<glyph name="U" format="1">
  <advance width="378"/>
  <unicode hex="0055"/>
  <outline>
    <contour>
      <point x="45" y="535" type="line"/>
      <point x="41" y="464"/>
      <point x="38" y="404"/>
      <point x="38" y="343" type="curve" smooth="yes"/>
      <point x="38" y="304"/>
      <point x="40" y="235"/>
      <point x="43" y="195" type="curve" smooth="yes"/>
      <point x="45" y="162"/>
      <point x="55" y="107"/>
      <point x="67" y="74" type="curve"/>
      <point x="78" y="37"/>
      <point x="119" y="7"/>
      <point x="158" y="7" type="curve" smooth="yes"/>
      <point x="175" y="7"/>
      <point x="202" y="16"/>
      <point x="216" y="26" type="curve" smooth="yes"/>
      <point x="233" y="39"/>
      <point x="254" y="64"/>
      <point x="262" y="82" type="curve"/>
      <point x="278" y="111"/>
      <point x="295" y="166"/>
      <point x="299" y="201" type="curve" smooth="yes"/>
      <point x="306" y="260"/>
      <point x="311" y="324"/>
      <point x="314" y="384" type="curve" smooth="yes"/>
      <point x="316" y="415"/>
      <point x="316" y="447"/>
      <point x="316" y="478" type="curve" smooth="yes"/>
      <point x="316" y="551" type="line"/>
      <point x="329" y="552" type="line" smooth="yes"/>
      <point x="346" y="553"/>
      <point x="358" y="567"/>
      <point x="358" y="584" type="curve" smooth="yes"/>
      <point x="358" y="607"/>
      <point x="337" y="614"/>
      <point x="324" y="614" type="curve" smooth="yes"/>
      <point x="247" y="614" type="line" smooth="yes"/>
      <point x="232" y="614"/>
      <point x="220" y="602"/>
      <point x="220" y="587" type="curve" smooth="yes"/>
      <point x="220" y="572"/>
      <point x="231" y="560"/>
      <point x="244" y="558" type="curve" smooth="yes"/>
      <point x="256" y="556" type="line"/>
      <point x="256" y="482" type="line" smooth="yes"/>
      <point x="256" y="415"/>
      <point x="254" y="347"/>
      <point x="248" y="278" type="curve" smooth="yes"/>
      <point x="246" y="248"/>
      <point x="242" y="217"/>
      <point x="236" y="186" type="curve"/>
      <point x="232" y="157"/>
      <point x="215" y="113"/>
      <point x="199" y="89" type="curve" smooth="yes"/>
      <point x="192" y="77"/>
      <point x="174" y="68"/>
      <point x="160" y="68" type="curve" smooth="yes"/>
      <point x="145" y="69"/>
      <point x="135" y="75"/>
      <point x="126" y="108" type="curve" smooth="yes"/>
      <point x="114" y="152"/>
      <point x="106" y="225"/>
      <point x="106" y="268" type="curve" smooth="yes"/>
      <point x="106" y="278"/>
      <point x="105" y="289"/>
      <point x="105" y="299" type="curve" smooth="yes"/>
      <point x="105" y="330" type="line" smooth="yes"/>
      <point x="105" y="380"/>
      <point x="107" y="429"/>
      <point x="109" y="555" type="curve"/>
      <point x="110" y="557"/>
      <point x="110" y="559"/>
      <point x="111" y="560" type="curve"/>
      <point x="136" y="565" type="line" smooth="yes"/>
      <point x="147" y="568"/>
      <point x="158" y="581"/>
      <point x="158" y="593" type="curve" smooth="yes"/>
      <point x="158" y="601" type="line"/>
      <point x="155" y="614"/>
      <point x="142" y="625"/>
      <point x="128" y="625" type="curve"/>
      <point x="64" y="619" type="line" smooth="yes"/>
      <point x="55" y="618"/>
      <point x="42" y="616"/>
      <point x="37" y="614" type="curve" smooth="yes"/>
      <point x="25" y="611"/>
      <point x="17" y="599"/>
      <point x="17" y="587" type="curve" smooth="yes"/>
      <point x="17" y="569"/>
      <point x="33" y="558"/>
      <point x="45" y="558" type="curve"/>
    </contour>
  </outline>
</glyph>
<glyph name="V" format="1">
  <advance width="322"/>
  <unicode hex="0056"/>
  <outline>
    <contour>
      <point x="100" y="561" type="line"/>
      <point x="109" y="562" type="line" smooth="yes"/>
      <point x="123" y="564"/>
      <point x="133" y="575"/>
      <point x="133" y="589" type="curve" smooth="yes"/>
      <point x="133" y="604"/>
      <point x="122" y="616"/>
      <point x="106" y="616" type="curve" smooth="yes"/>
      <point x="97" y="616" type="line" smooth="yes"/>
      <point x="92" y="616"/>
      <point x="82" y="616"/>
      <point x="77" y="615" type="curve" smooth="yes"/>
      <point x="66" y="614"/>
      <point x="44" y="611"/>
      <point x="35" y="608" type="curve"/>
      <point x="23" y="606"/>
      <point x="14" y="596"/>
      <point x="14" y="584" type="curve" smooth="yes"/>
      <point x="14" y="579" type="line"/>
      <point x="16" y="568"/>
      <point x="27" y="558"/>
      <point x="38" y="558" type="curve" smooth="yes"/>
      <point x="41" y="558"/>
      <point x="43" y="558"/>
      <point x="46" y="559" type="curve"/>
      <point x="67" y="387"/>
      <point x="92" y="220"/>
      <point x="140" y="58" type="curve"/>
      <point x="133" y="56" type="line" smooth="yes"/>
      <point x="123" y="54"/>
      <point x="114" y="42"/>
      <point x="114" y="28" type="curve"/>
      <point x="117" y="14"/>
      <point x="125" y="6"/>
      <point x="139" y="6" type="curve" smooth="yes"/>
      <point x="143" y="6"/>
      <point x="146" y="7"/>
      <point x="147" y="7" type="curve" smooth="yes"/>
      <point x="159" y="9"/>
      <point x="170" y="10"/>
      <point x="181" y="11" type="curve" smooth="yes"/>
      <point x="216" y="13" type="line"/>
      <point x="229" y="15"/>
      <point x="241" y="26"/>
      <point x="241" y="41" type="curve"/>
      <point x="239" y="54"/>
      <point x="227" y="66"/>
      <point x="214" y="66" type="curve" smooth="yes"/>
      <point x="207" y="66" type="line"/>
      <point x="270" y="569" type="line"/>
      <point x="282" y="570" type="line"/>
      <point x="297" y="570"/>
      <point x="309" y="582"/>
      <point x="309" y="598" type="curve" smooth="yes"/>
      <point x="309" y="613"/>
      <point x="297" y="625"/>
      <point x="282" y="625" type="curve" smooth="yes"/>
      <point x="260" y="625"/>
      <point x="243" y="623"/>
      <point x="225" y="620" type="curve" smooth="yes"/>
      <point x="207" y="617" type="line" smooth="yes"/>
      <point x="194" y="615"/>
      <point x="184" y="603"/>
      <point x="184" y="589" type="curve"/>
      <point x="186" y="575"/>
      <point x="197" y="565"/>
      <point x="211" y="565" type="curve" smooth="yes"/>
      <point x="215" y="565" type="line"/>
      <point x="202" y="428"/>
      <point x="186" y="300"/>
      <point x="166" y="166" type="curve"/>
      <point x="143" y="249"/>
      <point x="102" y="507"/>
      <point x="100" y="561" type="curve"/>
    </contour>
  </outline>
</glyph>
<glyph name="W" format="1">
  <advance width="492"/>
  <unicode hex="0057"/>
  <outline>
    <contour>
      <point x="303" y="210" type="line"/>
      <point x="296" y="243" type="line" smooth="yes"/>
      <point x="284" y="302"/>
      <point x="276" y="357"/>
      <point x="268" y="415" type="curve"/>
      <point x="265" y="426"/>
      <point x="252" y="438"/>
      <point x="239" y="438" type="curve" smooth="yes"/>
      <point x="222" y="438"/>
      <point x="210" y="427"/>
      <point x="207" y="415" type="curve" smooth="yes"/>
      <point x="191" y="353"/>
      <point x="179" y="291"/>
      <point x="163" y="230" type="curve"/>
      <point x="145" y="346"/>
      <point x="130" y="454"/>
      <point x="105" y="566" type="curve"/>
      <point x="128" y="572" type="line" smooth="yes"/>
      <point x="137" y="575"/>
      <point x="145" y="586"/>
      <point x="145" y="599" type="curve" smooth="yes"/>
      <point x="145" y="614"/>
      <point x="134" y="626"/>
      <point x="118" y="626" type="curve" smooth="yes"/>
      <point x="112" y="626" type="line"/>
      <point x="75" y="619"/>
      <point x="8" y="615"/>
      <point x="8" y="582" type="curve" smooth="yes"/>
      <point x="8" y="576" type="line"/>
      <point x="11" y="565"/>
      <point x="23" y="554"/>
      <point x="37" y="554" type="curve" smooth="yes"/>
      <point x="46" y="554" type="line"/>
      <point x="75" y="416"/>
      <point x="107" y="203"/>
      <point x="121" y="63" type="curve"/>
      <point x="105" y="59"/>
      <point x="89" y="52"/>
      <point x="89" y="34" type="curve" smooth="yes"/>
      <point x="89" y="18"/>
      <point x="103" y="8"/>
      <point x="113" y="6" type="curve"/>
      <point x="176" y="12" type="line" smooth="yes"/>
      <point x="206" y="15"/>
      <point x="241" y="10"/>
      <point x="241" y="43" type="curve" smooth="yes"/>
      <point x="241" y="57"/>
      <point x="230" y="72"/>
      <point x="215" y="73" type="curve" smooth="yes"/>
      <point x="210" y="73" type="line" smooth="yes"/>
      <point x="206" y="73"/>
      <point x="197" y="73"/>
      <point x="188" y="72" type="curve"/>
      <point x="195" y="105" type="line" smooth="yes"/>
      <point x="205" y="158"/>
      <point x="215" y="209"/>
      <point x="228" y="261" type="curve"/>
      <point x="265" y="74" type="line"/>
      <point x="261" y="73" type="line" smooth="yes"/>
      <point x="252" y="70"/>
      <point x="243" y="57"/>
      <point x="243" y="46" type="curve" smooth="yes"/>
      <point x="243" y="40" type="line"/>
      <point x="246" y="28"/>
      <point x="258" y="17"/>
      <point x="272" y="17" type="curve"/>
      <point x="344" y="23" type="line"/>
      <point x="365" y="26"/>
      <point x="396" y="30"/>
      <point x="396" y="57" type="curve" smooth="yes"/>
      <point x="396" y="76"/>
      <point x="380" y="87"/>
      <point x="367" y="87" type="curve"/>
      <point x="337" y="84" type="line"/>
      <point x="339" y="93" type="line" smooth="yes"/>
      <point x="343" y="111"/>
      <point x="346" y="129"/>
      <point x="349" y="146" type="curve" smooth="yes"/>
      <point x="404" y="498" type="line" smooth="yes"/>
      <point x="407" y="516"/>
      <point x="414" y="556"/>
      <point x="421" y="565" type="curve"/>
      <point x="447" y="565"/>
      <point x="466" y="569"/>
      <point x="466" y="594" type="curve" smooth="yes"/>
      <point x="466" y="595"/>
      <point x="463" y="620"/>
      <point x="435" y="620" type="curve" smooth="yes"/>
      <point x="417" y="620"/>
      <point x="397" y="615"/>
      <point x="383" y="615" type="curve"/>
      <point x="354" y="610" type="line"/>
      <point x="342" y="607"/>
      <point x="332" y="596"/>
      <point x="332" y="584" type="curve" smooth="yes"/>
      <point x="332" y="570"/>
      <point x="344" y="559"/>
      <point x="356" y="558" type="curve"/>
      <point x="304" y="201" type="line" smooth="yes"/>
      <point x="304" y="204"/>
      <point x="303" y="207"/>
      <point x="303" y="210" type="curve"/>
    </contour>
  </outline>
</glyph>
<glyph name="X" format="1">
  <advance width="312"/>
  <unicode hex="0058"/>
  <outline>
    <contour>
      <point x="184" y="58" type="line"/>
      <point x="172" y="55"/>
      <point x="155" y="47"/>
      <point x="155" y="32" type="curve" smooth="yes"/>
      <point x="155" y="15"/>
      <point x="169" y="8"/>
      <point x="179" y="8" type="curve" smooth="yes"/>
      <point x="198" y="8" type="line" smooth="yes"/>
      <point x="219" y="8"/>
      <point x="249" y="10"/>
      <point x="253" y="29" type="curve"/>
      <point x="253" y="35" type="line" smooth="yes"/>
      <point x="253" y="45"/>
      <point x="236" y="61"/>
      <point x="237" y="59" type="curve" smooth="yes"/>
      <point x="230" y="78" type="line"/>
      <point x="173" y="283" type="line"/>
      <point x="171" y="287"/>
      <point x="171" y="289"/>
      <point x="171" y="290" type="curve" smooth="yes"/>
      <point x="171" y="292"/>
      <point x="171" y="295"/>
      <point x="172" y="297" type="curve" smooth="yes"/>
      <point x="258" y="571" type="line"/>
      <point x="270" y="572" type="line" smooth="yes"/>
      <point x="282" y="574"/>
      <point x="292" y="585"/>
      <point x="292" y="598" type="curve" smooth="yes"/>
      <point x="292" y="610"/>
      <point x="279" y="622"/>
      <point x="268" y="624" type="curve"/>
      <point x="260" y="624" type="line" smooth="yes"/>
      <point x="222" y="621"/>
      <point x="176" y="618"/>
      <point x="176" y="590" type="curve" smooth="yes"/>
      <point x="176" y="574"/>
      <point x="189" y="565"/>
      <point x="199" y="565" type="curve"/>
      <point x="180" y="504"/>
      <point x="160" y="448"/>
      <point x="142" y="386" type="curve"/>
      <point x="126" y="440"/>
      <point x="118" y="504"/>
      <point x="95" y="566" type="curve"/>
      <point x="105" y="569"/>
      <point x="113" y="580"/>
      <point x="113" y="590" type="curve" smooth="yes"/>
      <point x="113" y="602"/>
      <point x="103" y="613"/>
      <point x="91" y="615" type="curve"/>
      <point x="29" y="609" type="line" smooth="yes"/>
      <point x="16" y="608"/>
      <point x="5" y="597"/>
      <point x="5" y="585" type="curve" smooth="yes"/>
      <point x="5" y="572"/>
      <point x="17" y="561"/>
      <point x="29" y="561" type="curve" smooth="yes"/>
      <point x="41" y="561" type="line"/>
      <point x="52" y="521" type="line" smooth="yes"/>
      <point x="69" y="460"/>
      <point x="86" y="385"/>
      <point x="101" y="319" type="curve" smooth="yes"/>
      <point x="108" y="287" type="line"/>
      <point x="108" y="271"/>
      <point x="93" y="239"/>
      <point x="87" y="221" type="curve" smooth="yes"/>
      <point x="34" y="56" type="line"/>
      <point x="29" y="54" type="line"/>
      <point x="17" y="52"/>
      <point x="7" y="42"/>
      <point x="7" y="30" type="curve" smooth="yes"/>
      <point x="7" y="11"/>
      <point x="25" y="6"/>
      <point x="35" y="6" type="curve" smooth="yes"/>
      <point x="81" y="6" type="line" smooth="yes"/>
      <point x="93" y="6"/>
      <point x="105" y="15"/>
      <point x="108" y="25" type="curve"/>
      <point x="108" y="32" type="line" smooth="yes"/>
      <point x="108" y="41"/>
      <point x="102" y="49"/>
      <point x="94" y="53" type="curve"/>
      <point x="91" y="56" type="line"/>
      <point x="103" y="105"/>
      <point x="120" y="156"/>
      <point x="135" y="203" type="curve"/>
    </contour>
  </outline>
</glyph>
<glyph name="Y" format="1">
  <advance width="329"/>
  <unicode hex="0059"/>
  <outline>
    <contour>
      <point x="191" y="61" type="line"/>
      <point x="191" y="270" type="line"/>
      <point x="206" y="324"/>
      <point x="214" y="359"/>
      <point x="221" y="384" type="curve" smooth="yes"/>
      <point x="276" y="569" type="line"/>
      <point x="288" y="580"/>
      <point x="314" y="580"/>
      <point x="314" y="600" type="curve" smooth="yes"/>
      <point x="314" y="615"/>
      <point x="303" y="625"/>
      <point x="293" y="627" type="curve"/>
      <point x="244" y="624" type="line" smooth="yes"/>
      <point x="220" y="622"/>
      <point x="196" y="620"/>
      <point x="196" y="597" type="curve" smooth="yes"/>
      <point x="196" y="580"/>
      <point x="213" y="572"/>
      <point x="224" y="571" type="curve"/>
      <point x="170" y="389" type="line"/>
      <point x="146" y="462"/>
      <point x="131" y="500"/>
      <point x="102" y="569" type="curve"/>
      <point x="111" y="571" type="line" smooth="yes"/>
      <point x="123" y="573"/>
      <point x="132" y="584"/>
      <point x="132" y="596" type="curve" smooth="yes"/>
      <point x="132" y="609"/>
      <point x="120" y="619"/>
      <point x="108" y="619" type="curve" smooth="yes"/>
      <point x="95" y="619" type="line" smooth="yes"/>
      <point x="59" y="619"/>
      <point x="16" y="617"/>
      <point x="16" y="589" type="curve" smooth="yes"/>
      <point x="16" y="575"/>
      <point x="32" y="563"/>
      <point x="43" y="563" type="curve" smooth="yes"/>
      <point x="47" y="563" type="line"/>
      <point x="70" y="505" type="line" smooth="yes"/>
      <point x="77" y="488"/>
      <point x="83" y="470"/>
      <point x="89" y="453" type="curve" smooth="yes"/>
      <point x="138" y="321" type="line" smooth="yes"/>
      <point x="139" y="319"/>
      <point x="140" y="312"/>
      <point x="140" y="309" type="curve" smooth="yes"/>
      <point x="140" y="57" type="line"/>
      <point x="122" y="53" type="line" smooth="yes"/>
      <point x="112" y="50"/>
      <point x="104" y="41"/>
      <point x="104" y="31" type="curve" smooth="yes"/>
      <point x="104" y="11"/>
      <point x="119" y="7"/>
      <point x="149" y="7" type="curve" smooth="yes"/>
      <point x="182" y="7" type="line" smooth="yes"/>
      <point x="211" y="7"/>
      <point x="232" y="11"/>
      <point x="232" y="36" type="curve"/>
      <point x="230" y="51"/>
      <point x="221" y="60"/>
      <point x="203" y="60" type="curve"/>
    </contour>
  </outline>
</glyph>
<glyph name="Z" format="1">
  <advance width="396"/>
  <unicode hex="005A"/>
  <outline>
    <contour>
      <point x="303" y="559" type="line"/>
      <point x="296" y="544" type="line" smooth="yes"/>
      <point x="295" y="541"/>
      <point x="290" y="533"/>
      <point x="285" y="525" type="curve" smooth="yes"/>
      <point x="85" y="178" type="line"/>
      <point x="69" y="161"/>
      <point x="40" y="113"/>
      <point x="25" y="83" type="curve" smooth="yes"/>
      <point x="18" y="69" type="line" smooth="yes"/>
      <point x="15" y="64"/>
      <point x="11" y="52"/>
      <point x="11" y="46" type="curve" smooth="yes"/>
      <point x="11" y="29"/>
      <point x="21" y="14"/>
      <point x="38" y="14" type="curve" smooth="yes"/>
      <point x="47" y="14"/>
      <point x="62" y="15"/>
      <point x="75" y="17" type="curve" smooth="yes"/>
      <point x="174" y="30" type="line"/>
      <point x="287" y="37" type="line" smooth="yes"/>
      <point x="296" y="37"/>
      <point x="311" y="35"/>
      <point x="323" y="32" type="curve"/>
      <point x="328" y="11"/>
      <point x="337" y="6"/>
      <point x="350" y="6" type="curve" smooth="yes"/>
      <point x="364" y="6"/>
      <point x="375" y="16"/>
      <point x="375" y="31" type="curve"/>
      <point x="370" y="80" type="line" smooth="yes"/>
      <point x="368" y="96"/>
      <point x="359" y="105"/>
      <point x="346" y="105" type="curve" smooth="yes"/>
      <point x="330" y="105"/>
      <point x="324" y="94"/>
      <point x="322" y="83" type="curve"/>
      <point x="309" y="84"/>
      <point x="292" y="87"/>
      <point x="279" y="87" type="curve" smooth="yes"/>
      <point x="213" y="84" type="line" smooth="yes"/>
      <point x="177" y="82"/>
      <point x="111" y="70"/>
      <point x="78" y="70" type="curve"/>
      <point x="97" y="105" type="line" smooth="yes"/>
      <point x="121" y="149"/>
      <point x="144" y="196"/>
      <point x="172" y="239" type="curve"/>
      <point x="235" y="348" type="line" smooth="yes"/>
      <point x="257" y="385"/>
      <point x="283" y="423"/>
      <point x="304" y="462" type="curve" smooth="yes"/>
      <point x="311" y="475" type="line" smooth="yes"/>
      <point x="326" y="500"/>
      <point x="340" y="528"/>
      <point x="353" y="555" type="curve"/>
      <point x="359" y="574" type="line"/>
      <point x="359" y="580" type="line" smooth="yes"/>
      <point x="359" y="600"/>
      <point x="335" y="612"/>
      <point x="318" y="612" type="curve" smooth="yes"/>
      <point x="283" y="612"/>
      <point x="252" y="607"/>
      <point x="221" y="607" type="curve" smooth="yes"/>
      <point x="208" y="607" type="line"/>
      <point x="161" y="604" type="line" smooth="yes"/>
      <point x="117" y="601"/>
      <point x="108" y="601"/>
      <point x="98" y="601" type="curve"/>
      <point x="95" y="613"/>
      <point x="88" y="623"/>
      <point x="74" y="623" type="curve" smooth="yes"/>
      <point x="55" y="623"/>
      <point x="49" y="609"/>
      <point x="49" y="587" type="curve" smooth="yes"/>
      <point x="49" y="580" type="line" smooth="yes"/>
      <point x="49" y="570"/>
      <point x="46" y="559"/>
      <point x="46" y="545" type="curve" smooth="yes"/>
      <point x="46" y="528"/>
      <point x="56" y="517"/>
      <point x="71" y="517" type="curve" smooth="yes"/>
      <point x="85" y="517"/>
      <point x="96" y="530"/>
      <point x="96" y="543" type="curve" smooth="yes"/>
      <point x="96" y="549" type="line"/>
      <point x="156" y="549" type="line"/>
      <point x="199" y="554"/>
      <point x="273" y="557"/>
      <point x="277" y="557" type="curve" smooth="yes"/>
    </contour>
  </outline>
</glyph>
<glyph name="bracketleft" format="1">
  <advance width="255"/>
  <unicode hex="005B"/>
  <outline>
    <contour>
      <point x="202" y="-53" type="line"/>
      <point x="198" y="-54"/>
      <point x="195" y="-54"/>
      <point x="191" y="-54" type="curve" smooth="yes"/>
      <point x="184" y="-54"/>
      <point x="176" y="-53"/>
      <point x="169" y="-53" type="curve" smooth="yes"/>
      <point x="145" y="-53"/>
      <point x="128" y="-50"/>
      <point x="104" y="-50" type="curve"/>
      <point x="104" y="195"/>
      <point x="111" y="413"/>
      <point x="129" y="614" type="curve"/>
      <point x="156" y="627"/>
      <point x="230" y="610"/>
      <point x="230" y="651" type="curve" smooth="yes"/>
      <point x="230" y="663"/>
      <point x="225" y="677"/>
      <point x="194" y="677" type="curve" smooth="yes"/>
      <point x="189" y="677" type="line" smooth="yes"/>
      <point x="125" y="672"/>
      <point x="71" y="691"/>
      <point x="71" y="609" type="curve"/>
      <point x="53" y="354"/>
      <point x="47" y="126"/>
      <point x="47" y="-54" type="curve" smooth="yes"/>
      <point x="47" y="-111"/>
      <point x="61" y="-111"/>
      <point x="169" y="-111" type="curve" smooth="yes"/>
      <point x="180" y="-111" type="line"/>
      <point x="202" y="-113" type="line"/>
      <point x="220" y="-113"/>
      <point x="235" y="-99"/>
      <point x="235" y="-81" type="curve" smooth="yes"/>
      <point x="235" y="-62"/>
      <point x="218" y="-53"/>
      <point x="202" y="-53" type="curve"/>
    </contour>
  </outline>
</glyph>
<glyph name="backslash" format="1">
  <advance width="402"/>
  <unicode hex="005C"/>
  <outline>
    <contour>
      <point x="314" y="-61" type="line"/>
      <point x="327" y="-89"/>
      <point x="335" y="-95"/>
      <point x="345" y="-95" type="curve" smooth="yes"/>
      <point x="359" y="-95"/>
      <point x="372" y="-87"/>
      <point x="372" y="-70" type="curve" smooth="yes"/>
      <point x="372" y="-54"/>
      <point x="362" y="-33"/>
      <point x="358" y="-20" type="curve" smooth="yes"/>
      <point x="343" y="20"/>
      <point x="102" y="593"/>
      <point x="87" y="630" type="curve"/>
      <point x="85" y="637" type="line" smooth="yes"/>
      <point x="80" y="649"/>
      <point x="70" y="658"/>
      <point x="58" y="658" type="curve" smooth="yes"/>
      <point x="44" y="658"/>
      <point x="29" y="646"/>
      <point x="29" y="630" type="curve" smooth="yes"/>
      <point x="29" y="626"/>
      <point x="30" y="621"/>
      <point x="32" y="616" type="curve" smooth="yes"/>
      <point x="56" y="535"/>
      <point x="286" y="6"/>
      <point x="302" y="-33" type="curve" smooth="yes"/>
    </contour>
  </outline>
</glyph>
<glyph name="bracketright" format="1">
  <advance width="218"/>
  <unicode hex="005D"/>
  <outline>
    <contour>
      <point x="167" y="688" type="line"/>
      <point x="149" y="688"/>
      <point x="128" y="689"/>
      <point x="108" y="689" type="curve" smooth="yes"/>
      <point x="72" y="689"/>
      <point x="40" y="685"/>
      <point x="40" y="660" type="curve" smooth="yes"/>
      <point x="40" y="632"/>
      <point x="73" y="630"/>
      <point x="95" y="630" type="curve" smooth="yes"/>
      <point x="139" y="630" type="line"/>
      <point x="134" y="549"/>
      <point x="135" y="460"/>
      <point x="132" y="380" type="curve" smooth="yes"/>
      <point x="127" y="237"/>
      <point x="126" y="86"/>
      <point x="126" y="-58" type="curve"/>
      <point x="100" y="-58"/>
      <point x="73" y="-57"/>
      <point x="47" y="-57" type="curve" smooth="yes"/>
      <point x="29" y="-57"/>
      <point x="8" y="-61"/>
      <point x="8" y="-84" type="curve" smooth="yes"/>
      <point x="8" y="-113"/>
      <point x="54" y="-118"/>
      <point x="93" y="-118" type="curve" smooth="yes"/>
      <point x="154" y="-118"/>
      <point x="184" y="-118"/>
      <point x="184" y="-82" type="curve" smooth="yes"/>
      <point x="184" y="-69"/>
      <point x="183" y="-57"/>
      <point x="183" y="-47" type="curve" smooth="yes"/>
      <point x="183" y="66"/>
      <point x="186" y="180"/>
      <point x="186" y="290" type="curve" smooth="yes"/>
      <point x="186" y="405"/>
      <point x="196" y="527"/>
      <point x="196" y="644" type="curve" smooth="yes"/>
      <point x="196" y="669"/>
      <point x="188" y="685"/>
      <point x="167" y="688" type="curve"/>
    </contour>
  </outline>
</glyph>
<glyph name="underscore" format="1">
  <advance width="408"/>
  <unicode hex="005F"/>
  <outline>
    <contour>
      <point x="58" y="-50" type="line"/>
      <point x="88" y="-49" type="line" smooth="yes"/>
      <point x="130" y="-48"/>
      <point x="309" y="-48"/>
      <point x="350" y="-44" type="curve"/>
      <point x="369" y="-44"/>
      <point x="380" y="-31"/>
      <point x="380" y="-15" type="curve" smooth="yes"/>
      <point x="380" y="3"/>
      <point x="365" y="13"/>
      <point x="347" y="13" type="curve" smooth="yes"/>
      <point x="345" y="13"/>
      <point x="342" y="12"/>
      <point x="340" y="12" type="curve" smooth="yes"/>
      <point x="300" y="10"/>
      <point x="120" y="10"/>
      <point x="77" y="7" type="curve" smooth="yes"/>
      <point x="55" y="5"/>
      <point x="11" y="8"/>
      <point x="11" y="-22" type="curve" smooth="yes"/>
      <point x="11" y="-39"/>
      <point x="22" y="-50"/>
      <point x="39" y="-50" type="curve" smooth="yes"/>
    </contour>
  </outline>
</glyph>
<glyph name="a" format="1">
  <advance width="341"/>
  <unicode hex="0061"/>
  <outline>
    <contour>
      <point x="112" y="322" type="line"/>
      <point x="95" y="258" type="line" smooth="yes"/>
      <point x="80" y="202"/>
      <point x="62" y="143"/>
      <point x="52" y="83" type="curve"/>
      <point x="34" y="80"/>
      <point x="14" y="72"/>
      <point x="14" y="52" type="curve" smooth="yes"/>
      <point x="14" y="29"/>
      <point x="33" y="23"/>
      <point x="50" y="23" type="curve" smooth="yes"/>
      <point x="67" y="23" type="line" smooth="yes"/>
      <point x="99" y="23"/>
      <point x="138" y="26"/>
      <point x="138" y="58" type="curve" smooth="yes"/>
      <point x="138" y="74"/>
      <point x="126" y="83"/>
      <point x="114" y="87" type="curve"/>
      <point x="125" y="134" type="line" smooth="yes"/>
      <point x="136" y="182"/>
      <point x="149" y="228"/>
      <point x="163" y="275" type="curve"/>
      <point x="185" y="275" type="line" smooth="yes"/>
      <point x="192" y="275"/>
      <point x="199" y="275"/>
      <point x="208" y="276" type="curve"/>
      <point x="220" y="65" type="line"/>
      <point x="200" y="62"/>
      <point x="180" y="59"/>
      <point x="180" y="34" type="curve" smooth="yes"/>
      <point x="180" y="12"/>
      <point x="197" y="3"/>
      <point x="214" y="3" type="curve" smooth="yes"/>
      <point x="215" y="3"/>
      <point x="222" y="3"/>
      <point x="280" y="7" type="curve" smooth="yes"/>
      <point x="297" y="8"/>
      <point x="319" y="20"/>
      <point x="319" y="40" type="curve" smooth="yes"/>
      <point x="319" y="60"/>
      <point x="302" y="68"/>
      <point x="287" y="71" type="curve"/>
      <point x="253" y="557" type="line"/>
      <point x="267" y="562"/>
      <point x="280" y="570"/>
      <point x="280" y="588" type="curve" smooth="yes"/>
      <point x="280" y="612"/>
      <point x="261" y="619"/>
      <point x="242" y="619" type="curve"/>
      <point x="214" y="617"/>
      <point x="212" y="616"/>
      <point x="209" y="616" type="curve" smooth="yes"/>
      <point x="205" y="616" type="line" smooth="yes"/>
      <point x="169" y="613"/>
      <point x="131" y="610"/>
      <point x="131" y="580" type="curve" smooth="yes"/>
      <point x="131" y="565"/>
      <point x="148" y="552"/>
      <point x="161" y="552" type="curve" smooth="yes"/>
      <point x="168" y="552"/>
      <point x="175" y="557"/>
      <point x="180" y="559" type="curve"/>
      <point x="155" y="495"/>
      <point x="141" y="430"/>
      <point x="123" y="369" type="curve"/>
    </contour>
    <contour>
      <point x="206" y="340" type="line"/>
      <point x="181" y="337" type="line"/>
      <point x="183" y="353"/>
      <point x="193" y="387"/>
      <point x="200" y="414" type="curve"/>
    </contour>
  </outline>
</glyph>
<glyph name="b" format="1">
  <advance width="384"/>
  <unicode hex="0062"/>
  <outline>
    <contour>
      <point x="317" y="509" type="line"/>
      <point x="317" y="587"/>
      <point x="272" y="619"/>
      <point x="205" y="619" type="curve" smooth="yes"/>
      <point x="138" y="619"/>
      <point x="35" y="577"/>
      <point x="35" y="537" type="curve"/>
      <point x="38" y="524"/>
      <point x="51" y="515"/>
      <point x="62" y="515" type="curve" smooth="yes"/>
      <point x="65" y="515"/>
      <point x="72" y="516"/>
      <point x="77" y="519" type="curve" smooth="yes"/>
      <point x="95" y="529" type="line"/>
      <point x="95" y="476"/>
      <point x="93" y="437"/>
      <point x="89" y="384" type="curve" smooth="yes"/>
      <point x="89" y="381"/>
      <point x="88" y="379"/>
      <point x="88" y="376" type="curve" smooth="yes"/>
      <point x="85" y="336"/>
      <point x="82" y="294"/>
      <point x="81" y="255" type="curve" smooth="yes"/>
      <point x="81" y="242"/>
      <point x="80" y="222"/>
      <point x="80" y="210" type="curve" smooth="yes"/>
      <point x="78" y="164"/>
      <point x="77" y="118"/>
      <point x="77" y="73" type="curve" smooth="yes"/>
      <point x="77" y="66" type="line"/>
      <point x="71" y="66"/>
      <point x="69" y="67"/>
      <point x="63" y="68" type="curve" smooth="yes"/>
      <point x="56" y="69"/>
      <point x="47" y="69"/>
      <point x="39" y="69" type="curve" smooth="yes"/>
      <point x="23" y="69"/>
      <point x="10" y="56"/>
      <point x="10" y="40" type="curve" smooth="yes"/>
      <point x="10" y="12"/>
      <point x="52" y="6"/>
      <point x="90" y="6" type="curve" smooth="yes"/>
      <point x="99" y="6"/>
      <point x="106" y="7"/>
      <point x="131" y="7" type="curve"/>
      <point x="242" y="13"/>
      <point x="359" y="98"/>
      <point x="359" y="211" type="curve" smooth="yes"/>
      <point x="359" y="304"/>
      <point x="324" y="357"/>
      <point x="253" y="378" type="curve"/>
      <point x="285" y="407"/>
      <point x="317" y="454"/>
      <point x="317" y="509" type="curve" smooth="yes"/>
    </contour>
    <contour>
      <point x="137" y="70" type="line"/>
      <point x="137" y="92" type="line" smooth="yes"/>
      <point x="137" y="167"/>
      <point x="140" y="238"/>
      <point x="144" y="312" type="curve"/>
      <point x="162" y="321"/>
      <point x="184" y="329"/>
      <point x="202" y="329" type="curve" smooth="yes"/>
      <point x="275" y="329"/>
      <point x="300" y="262"/>
      <point x="300" y="197" type="curve" smooth="yes"/>
      <point x="300" y="140"/>
      <point x="206" y="70"/>
      <point x="137" y="70" type="curve"/>
    </contour>
    <contour>
      <point x="155" y="555" type="line"/>
      <point x="162" y="557" type="line" smooth="yes"/>
      <point x="181" y="562"/>
      <point x="193" y="564"/>
      <point x="224" y="564" type="curve" smooth="yes"/>
      <point x="248" y="564"/>
      <point x="256" y="540"/>
      <point x="256" y="516" type="curve" smooth="yes"/>
      <point x="256" y="462"/>
      <point x="198" y="403"/>
      <point x="147" y="385" type="curve"/>
      <point x="149" y="440"/>
      <point x="153" y="499"/>
      <point x="155" y="555" type="curve"/>
    </contour>
  </outline>
</glyph>
<glyph name="c" format="1">
  <advance width="303"/>
  <unicode hex="0063"/>
  <outline>
    <contour>
      <point x="220" y="161" type="line"/>
      <point x="238" y="161"/>
      <point x="255" y="170"/>
      <point x="255" y="193" type="curve" smooth="yes"/>
      <point x="255" y="227"/>
      <point x="214" y="231"/>
      <point x="182" y="231" type="curve" smooth="yes"/>
      <point x="141" y="231"/>
      <point x="117" y="227"/>
      <point x="117" y="192" type="curve"/>
      <point x="119" y="173"/>
      <point x="133" y="168"/>
      <point x="147" y="166" type="curve"/>
      <point x="141" y="150"/>
      <point x="141" y="62"/>
      <point x="113" y="62" type="curve" smooth="yes"/>
      <point x="84" y="62"/>
      <point x="73" y="129"/>
      <point x="73" y="170" type="curve" smooth="yes"/>
      <point x="73" y="189"/>
      <point x="74" y="194"/>
      <point x="74" y="199" type="curve" smooth="yes"/>
      <point x="76" y="317"/>
      <point x="78" y="468"/>
      <point x="157" y="547" type="curve" smooth="yes"/>
      <point x="158" y="548"/>
      <point x="160" y="549"/>
      <point x="161" y="549" type="curve" smooth="yes"/>
      <point x="175" y="549"/>
      <point x="187" y="494"/>
      <point x="187" y="470" type="curve"/>
      <point x="164" y="467"/>
      <point x="151" y="451"/>
      <point x="151" y="431" type="curve"/>
      <point x="157" y="407"/>
      <point x="199" y="404"/>
      <point x="235" y="404" type="curve" smooth="yes"/>
      <point x="262" y="404" type="line" smooth="yes"/>
      <point x="278" y="404"/>
      <point x="293" y="419"/>
      <point x="293" y="436" type="curve" smooth="yes"/>
      <point x="293" y="462"/>
      <point x="270" y="468"/>
      <point x="250" y="471" type="curve"/>
      <point x="250" y="482" type="line" smooth="yes"/>
      <point x="250" y="542"/>
      <point x="219" y="619"/>
      <point x="165" y="619" type="curve" smooth="yes"/>
      <point x="68" y="619"/>
      <point x="28" y="437"/>
      <point x="19" y="346" type="curve" smooth="yes"/>
      <point x="15" y="299"/>
      <point x="11" y="221"/>
      <point x="11" y="176" type="curve" smooth="yes"/>
      <point x="11" y="164" type="line" smooth="yes"/>
      <point x="13" y="80"/>
      <point x="47" y="3"/>
      <point x="115" y="3" type="curve" smooth="yes"/>
      <point x="158" y="3"/>
      <point x="200" y="46"/>
      <point x="208" y="120" type="curve" smooth="yes"/>
      <point x="213" y="160"/>
      <point x="213" y="161"/>
      <point x="213" y="161" type="curve"/>
    </contour>
  </outline>
</glyph>
<glyph name="d" format="1">
  <advance width="365"/>
  <unicode hex="0064"/>
  <outline>
    <contour>
      <point x="91" y="522" type="line"/>
      <point x="92" y="512"/>
      <point x="93" y="502"/>
      <point x="93" y="493" type="curve" smooth="yes"/>
      <point x="93" y="425"/>
      <point x="96" y="357"/>
      <point x="98" y="288" type="curve" smooth="yes"/>
      <point x="100" y="220"/>
      <point x="102" y="152"/>
      <point x="102" y="85" type="curve" smooth="yes"/>
      <point x="102" y="75" type="line"/>
      <point x="68" y="73" type="line" smooth="yes"/>
      <point x="47" y="71"/>
      <point x="31" y="60"/>
      <point x="31" y="39" type="curve" smooth="yes"/>
      <point x="31" y="19"/>
      <point x="45" y="6"/>
      <point x="69" y="5" type="curve" smooth="yes"/>
      <point x="77" y="5" type="line"/>
      <point x="99" y="9"/>
      <point x="121" y="7"/>
      <point x="142" y="11" type="curve" smooth="yes"/>
      <point x="190" y="20"/>
      <point x="238" y="43"/>
      <point x="273" y="79" type="curve"/>
      <point x="300" y="110"/>
      <point x="331" y="170"/>
      <point x="340" y="211" type="curve" smooth="yes"/>
      <point x="346" y="238"/>
      <point x="351" y="287"/>
      <point x="351" y="315" type="curve" smooth="yes"/>
      <point x="351" y="342"/>
      <point x="347" y="387"/>
      <point x="342" y="413" type="curve"/>
      <point x="339" y="439"/>
      <point x="326" y="477"/>
      <point x="313" y="499" type="curve" smooth="yes"/>
      <point x="274" y="565"/>
      <point x="180" y="619"/>
      <point x="103" y="619" type="curve" smooth="yes"/>
      <point x="90" y="619"/>
      <point x="68" y="617"/>
      <point x="56" y="614" type="curve"/>
      <point x="38" y="612"/>
      <point x="17" y="602"/>
      <point x="17" y="580" type="curve" smooth="yes"/>
      <point x="17" y="571" type="line"/>
      <point x="20" y="559"/>
      <point x="33" y="547"/>
      <point x="48" y="547" type="curve"/>
      <point x="56" y="548"/>
      <point x="63" y="549"/>
      <point x="67" y="549" type="curve" smooth="yes"/>
      <point x="90" y="551" type="line"/>
      <point x="90" y="540"/>
      <point x="90" y="531"/>
      <point x="91" y="522" type="curve" smooth="yes"/>
    </contour>
    <contour>
      <point x="156" y="538" type="line"/>
      <point x="257" y="506"/>
      <point x="279" y="402"/>
      <point x="279" y="312" type="curve" smooth="yes"/>
      <point x="279" y="290"/>
      <point x="276" y="255"/>
      <point x="272" y="233" type="curve" smooth="yes"/>
      <point x="266" y="197"/>
      <point x="243" y="148"/>
      <point x="219" y="123" type="curve" smooth="yes"/>
      <point x="208" y="112"/>
      <point x="189" y="99"/>
      <point x="171" y="92" type="curve"/>
    </contour>
  </outline>
</glyph>
<glyph name="e" format="1">
  <advance width="243"/>
  <unicode hex="0065"/>
  <outline>
    <contour>
      <point x="76" y="87" type="line"/>
      <point x="74" y="145"/>
      <point x="74" y="193"/>
      <point x="74" y="253" type="curve" smooth="yes"/>
      <point x="74" y="303" type="line" smooth="yes"/>
      <point x="74" y="316"/>
      <point x="75" y="332"/>
      <point x="75" y="345" type="curve"/>
      <point x="98" y="346"/>
      <point x="116" y="349"/>
      <point x="137" y="350" type="curve"/>
      <point x="142" y="335"/>
      <point x="150" y="323"/>
      <point x="169" y="323" type="curve" smooth="yes"/>
      <point x="189" y="323"/>
      <point x="198" y="341"/>
      <point x="198" y="358" type="curve" smooth="yes"/>
      <point x="198" y="362"/>
      <point x="197" y="367"/>
      <point x="197" y="373" type="curve" smooth="yes"/>
      <point x="197" y="404"/>
      <point x="195" y="445"/>
      <point x="165" y="445" type="curve" smooth="yes"/>
      <point x="150" y="445"/>
      <point x="136" y="435"/>
      <point x="135" y="416" type="curve" smooth="yes"/>
      <point x="135" y="412" type="line"/>
      <point x="113" y="410"/>
      <point x="95" y="407"/>
      <point x="74" y="405" type="curve"/>
      <point x="74" y="528" type="line"/>
      <point x="163" y="528" type="line"/>
      <point x="164" y="512"/>
      <point x="177" y="500"/>
      <point x="195" y="500" type="curve" smooth="yes"/>
      <point x="225" y="500"/>
      <point x="225" y="525"/>
      <point x="225" y="548" type="curve" smooth="yes"/>
      <point x="225" y="556" type="line" smooth="yes"/>
      <point x="225" y="582"/>
      <point x="224" y="618"/>
      <point x="192" y="618" type="curve" smooth="yes"/>
      <point x="174" y="618"/>
      <point x="169" y="607"/>
      <point x="164" y="593" type="curve"/>
      <point x="124" y="591"/>
      <point x="85" y="591"/>
      <point x="46" y="589" type="curve" smooth="yes"/>
      <point x="18" y="587"/>
      <point x="10" y="580"/>
      <point x="10" y="554" type="curve" smooth="yes"/>
      <point x="10" y="540"/>
      <point x="10" y="521"/>
      <point x="11" y="509" type="curve"/>
      <point x="11" y="494"/>
      <point x="12" y="481"/>
      <point x="12" y="466" type="curve" smooth="yes"/>
      <point x="12" y="56" type="line" smooth="yes"/>
      <point x="12" y="29"/>
      <point x="22" y="16"/>
      <point x="47" y="16" type="curve" smooth="yes"/>
      <point x="64" y="16"/>
      <point x="78" y="18"/>
      <point x="94" y="21" type="curve" smooth="yes"/>
      <point x="110" y="24"/>
      <point x="126" y="27"/>
      <point x="142" y="27" type="curve" smooth="yes"/>
      <point x="148" y="27" type="line"/>
      <point x="150" y="21" type="line" smooth="yes"/>
      <point x="156" y="6"/>
      <point x="171" y="1"/>
      <point x="184" y="1" type="curve"/>
      <point x="198" y="3"/>
      <point x="210" y="15"/>
      <point x="210" y="30" type="curve" smooth="yes"/>
      <point x="210" y="43" type="line" smooth="yes"/>
      <point x="210" y="48"/>
      <point x="211" y="54"/>
      <point x="211" y="60" type="curve" smooth="yes"/>
      <point x="211" y="89"/>
      <point x="207" y="120"/>
      <point x="179" y="120" type="curve" smooth="yes"/>
      <point x="161" y="120"/>
      <point x="152" y="106"/>
      <point x="149" y="90" type="curve"/>
    </contour>
  </outline>
</glyph>
<glyph name="f" format="1">
  <advance width="262"/>
  <unicode hex="0066"/>
  <outline>
    <contour>
      <point x="188" y="587" type="line"/>
      <point x="125" y="587" type="line" smooth="yes"/>
      <point x="93" y="587"/>
      <point x="63" y="584"/>
      <point x="63" y="546" type="curve" smooth="yes"/>
      <point x="63" y="494"/>
      <point x="61" y="442"/>
      <point x="60" y="391" type="curve" smooth="yes"/>
      <point x="59" y="339"/>
      <point x="58" y="288"/>
      <point x="58" y="237" type="curve" smooth="yes"/>
      <point x="58" y="209"/>
      <point x="58" y="180"/>
      <point x="59" y="151" type="curve" smooth="yes"/>
      <point x="60" y="122"/>
      <point x="61" y="93"/>
      <point x="61" y="64" type="curve" smooth="yes"/>
      <point x="61" y="58" type="line"/>
      <point x="33" y="51" type="line" smooth="yes"/>
      <point x="22" y="49"/>
      <point x="11" y="37"/>
      <point x="11" y="25" type="curve" smooth="yes"/>
      <point x="11" y="2"/>
      <point x="29" y="-1"/>
      <point x="46" y="-1" type="curve" smooth="yes"/>
      <point x="73" y="0"/>
      <point x="102" y="3"/>
      <point x="128" y="4" type="curve" smooth="yes"/>
      <point x="145" y="4"/>
      <point x="161" y="12"/>
      <point x="161" y="32" type="curve" smooth="yes"/>
      <point x="161" y="55"/>
      <point x="140" y="60"/>
      <point x="122" y="60" type="curve" smooth="yes"/>
      <point x="115" y="60" type="line"/>
      <point x="115" y="80"/>
      <point x="114" y="91"/>
      <point x="114" y="112" type="curve" smooth="yes"/>
      <point x="113" y="152"/>
      <point x="112" y="192"/>
      <point x="112" y="234" type="curve" smooth="yes"/>
      <point x="112" y="264"/>
      <point x="112" y="295"/>
      <point x="113" y="327" type="curve"/>
      <point x="137" y="326"/>
      <point x="150" y="324"/>
      <point x="173" y="323" type="curve"/>
      <point x="175" y="307"/>
      <point x="183" y="292"/>
      <point x="202" y="292" type="curve" smooth="yes"/>
      <point x="218" y="292"/>
      <point x="229" y="304"/>
      <point x="229" y="320" type="curve" smooth="yes"/>
      <point x="229" y="324" type="line" smooth="yes"/>
      <point x="228" y="353"/>
      <point x="227" y="403"/>
      <point x="199" y="403" type="curve" smooth="yes"/>
      <point x="188" y="403"/>
      <point x="177" y="393"/>
      <point x="173" y="383" type="curve"/>
      <point x="114" y="383" type="line"/>
      <point x="114" y="526" type="line"/>
      <point x="183" y="526" type="line"/>
      <point x="187" y="507"/>
      <point x="191" y="488"/>
      <point x="222" y="488" type="curve"/>
      <point x="233" y="491"/>
      <point x="244" y="505"/>
      <point x="244" y="516" type="curve" smooth="yes"/>
      <point x="244" y="553" type="line" smooth="yes"/>
      <point x="244" y="583"/>
      <point x="241" y="610"/>
      <point x="214" y="610" type="curve" smooth="yes"/>
      <point x="200" y="610"/>
      <point x="191" y="597"/>
      <point x="188" y="587" type="curve"/>
    </contour>
  </outline>
</glyph>
<glyph name="g" format="1">
  <advance width="442"/>
  <unicode hex="0067"/>
  <outline>
    <contour>
      <point x="151" y="615" type="line"/>
      <point x="61" y="615"/>
      <point x="14" y="456"/>
      <point x="14" y="316" type="curve" smooth="yes"/>
      <point x="14" y="212"/>
      <point x="54" y="29"/>
      <point x="183" y="29" type="curve" smooth="yes"/>
      <point x="223" y="29"/>
      <point x="273" y="56"/>
      <point x="295" y="90" type="curve"/>
      <point x="302" y="61" type="line"/>
      <point x="293" y="56" type="line" smooth="yes"/>
      <point x="284" y="51"/>
      <point x="276" y="39"/>
      <point x="276" y="30" type="curve" smooth="yes"/>
      <point x="276" y="12"/>
      <point x="290" y="-1"/>
      <point x="308" y="-1" type="curve"/>
      <point x="326" y="1" type="line" smooth="yes"/>
      <point x="368" y="5"/>
      <point x="420" y="11"/>
      <point x="420" y="45" type="curve" smooth="yes"/>
      <point x="420" y="62"/>
      <point x="400" y="76"/>
      <point x="386" y="76" type="curve" smooth="yes"/>
      <point x="382" y="76"/>
      <point x="374" y="76"/>
      <point x="371" y="75" type="curve"/>
      <point x="354" y="120"/>
      <point x="343" y="160"/>
      <point x="323" y="229" type="curve"/>
      <point x="314" y="268"/>
      <point x="301" y="315"/>
      <point x="269" y="315" type="curve" smooth="yes"/>
      <point x="247" y="315"/>
      <point x="215" y="307"/>
      <point x="188" y="299" type="curve" smooth="yes"/>
      <point x="169" y="294" type="line"/>
      <point x="163" y="309"/>
      <point x="154" y="313"/>
      <point x="142" y="313" type="curve" smooth="yes"/>
      <point x="121" y="313"/>
      <point x="110" y="295"/>
      <point x="110" y="272" type="curve"/>
      <point x="115" y="243"/>
      <point x="111" y="180"/>
      <point x="154" y="180" type="curve" smooth="yes"/>
      <point x="172" y="180"/>
      <point x="187" y="195"/>
      <point x="187" y="212" type="curve" smooth="yes"/>
      <point x="187" y="213"/>
      <point x="186" y="218"/>
      <point x="186" y="219" type="curve" smooth="yes"/>
      <point x="185" y="220"/>
      <point x="185" y="221"/>
      <point x="183" y="230" type="curve"/>
      <point x="203" y="236" type="line" smooth="yes"/>
      <point x="215" y="240"/>
      <point x="228" y="244"/>
      <point x="243" y="246" type="curve"/>
      <point x="243" y="242"/>
      <point x="244" y="238"/>
      <point x="245" y="236" type="curve"/>
      <point x="247" y="218"/>
      <point x="257" y="198"/>
      <point x="257" y="182" type="curve" smooth="yes"/>
      <point x="257" y="139"/>
      <point x="230" y="91"/>
      <point x="177" y="91" type="curve" smooth="yes"/>
      <point x="99" y="91"/>
      <point x="73" y="250"/>
      <point x="73" y="313" type="curve" smooth="yes"/>
      <point x="73" y="389"/>
      <point x="95" y="472"/>
      <point x="97" y="476" type="curve" smooth="yes"/>
      <point x="109" y="509"/>
      <point x="125" y="545"/>
      <point x="148" y="545" type="curve" smooth="yes"/>
      <point x="189" y="545"/>
      <point x="216" y="493"/>
      <point x="219" y="450" type="curve"/>
      <point x="207" y="445"/>
      <point x="198" y="429"/>
      <point x="198" y="411" type="curve"/>
      <point x="200" y="399"/>
      <point x="214" y="388"/>
      <point x="225" y="388" type="curve" smooth="yes"/>
      <point x="266" y="388"/>
      <point x="326" y="391"/>
      <point x="326" y="434" type="curve"/>
      <point x="323" y="452"/>
      <point x="304" y="460"/>
      <point x="289" y="461" type="curve"/>
      <point x="280" y="537"/>
      <point x="236" y="615"/>
      <point x="151" y="615" type="curve" smooth="yes"/>
    </contour>
  </outline>
</glyph>
<glyph name="h" format="1">
  <advance width="321"/>
  <unicode hex="0068"/>
  <outline>
    <contour>
      <point x="165" y="27" type="line"/>
      <point x="165" y="7"/>
      <point x="183" y="1"/>
      <point x="197" y="1" type="curve"/>
      <point x="205" y="2"/>
      <point x="213" y="2"/>
      <point x="220" y="2" type="curve" smooth="yes"/>
      <point x="258" y="3"/>
      <point x="300" y="4"/>
      <point x="300" y="36" type="curve" smooth="yes"/>
      <point x="300" y="56"/>
      <point x="284" y="64"/>
      <point x="267" y="64" type="curve" smooth="yes"/>
      <point x="257" y="64" type="line"/>
      <point x="253" y="87"/>
      <point x="253" y="113"/>
      <point x="253" y="138" type="curve" smooth="yes"/>
      <point x="253" y="154"/>
      <point x="254" y="168"/>
      <point x="254" y="183" type="curve" smooth="yes"/>
      <point x="254" y="369" type="line" smooth="yes"/>
      <point x="254" y="430"/>
      <point x="254" y="491"/>
      <point x="250" y="552" type="curve"/>
      <point x="263" y="556"/>
      <point x="279" y="561"/>
      <point x="279" y="583" type="curve" smooth="yes"/>
      <point x="279" y="601"/>
      <point x="264" y="612"/>
      <point x="247" y="612" type="curve"/>
      <point x="233" y="610" type="line" smooth="yes"/>
      <point x="197" y="606"/>
      <point x="151" y="599"/>
      <point x="151" y="570" type="curve" smooth="yes"/>
      <point x="151" y="555"/>
      <point x="163" y="543"/>
      <point x="178" y="543" type="curve" smooth="yes"/>
      <point x="193" y="543" type="line"/>
      <point x="195" y="507"/>
      <point x="195" y="478"/>
      <point x="197" y="442" type="curve"/>
      <point x="166" y="440"/>
      <point x="143" y="437"/>
      <point x="114" y="435" type="curve"/>
      <point x="114" y="539" type="line"/>
      <point x="117" y="540" type="line" smooth="yes"/>
      <point x="125" y="544"/>
      <point x="133" y="558"/>
      <point x="133" y="567" type="curve" smooth="yes"/>
      <point x="133" y="587"/>
      <point x="113" y="596"/>
      <point x="97" y="596" type="curve"/>
      <point x="73" y="593" type="line" smooth="yes"/>
      <point x="43" y="589"/>
      <point x="13" y="585"/>
      <point x="12" y="552" type="curve"/>
      <point x="17" y="537"/>
      <point x="29" y="533"/>
      <point x="43" y="533" type="curve" smooth="yes"/>
      <point x="45" y="533"/>
      <point x="51" y="535"/>
      <point x="54" y="535" type="curve"/>
      <point x="59" y="370"/>
      <point x="66" y="215"/>
      <point x="70" y="52" type="curve"/>
      <point x="58" y="48"/>
      <point x="36" y="37"/>
      <point x="36" y="24" type="curve" smooth="yes"/>
      <point x="36" y="18" type="line"/>
      <point x="43" y="1"/>
      <point x="59" y="-2"/>
      <point x="73" y="-2" type="curve" smooth="yes"/>
      <point x="91" y="-2"/>
      <point x="92" y="0"/>
      <point x="100" y="1" type="curve" smooth="yes"/>
      <point x="130" y="3"/>
      <point x="161" y="5"/>
      <point x="161" y="34" type="curve" smooth="yes"/>
      <point x="161" y="56"/>
      <point x="144" y="62"/>
      <point x="127" y="62" type="curve"/>
      <point x="116" y="376" type="line"/>
      <point x="142" y="379"/>
      <point x="171" y="381"/>
      <point x="197" y="381" type="curve"/>
      <point x="197" y="209" type="line" smooth="yes"/>
      <point x="197" y="160"/>
      <point x="197" y="109"/>
      <point x="201" y="59" type="curve"/>
      <point x="182" y="56"/>
      <point x="165" y="47"/>
      <point x="165" y="27" type="curve" smooth="yes"/>
    </contour>
  </outline>
</glyph>
<glyph name="i" format="1">
  <advance width="190"/>
  <unicode hex="0069"/>
  <outline>
    <contour>
      <point x="160" y="587" type="line"/>
      <point x="160" y="605"/>
      <point x="141" y="615"/>
      <point x="126" y="615" type="curve"/>
      <point x="61" y="609" type="line" smooth="yes"/>
      <point x="59" y="609"/>
      <point x="57" y="608"/>
      <point x="56" y="608" type="curve" smooth="yes"/>
      <point x="35" y="605"/>
      <point x="10" y="602"/>
      <point x="10" y="579" type="curve" smooth="yes"/>
      <point x="10" y="552"/>
      <point x="40" y="552"/>
      <point x="58" y="552" type="curve" smooth="yes"/>
      <point x="62" y="552" type="line"/>
      <point x="62" y="59" type="line"/>
      <point x="42" y="59"/>
      <point x="20" y="52"/>
      <point x="20" y="29" type="curve" smooth="yes"/>
      <point x="20" y="8"/>
      <point x="37" y="2"/>
      <point x="55" y="2" type="curve" smooth="yes"/>
      <point x="109" y="2" type="line" smooth="yes"/>
      <point x="140" y="2"/>
      <point x="175" y="5"/>
      <point x="175" y="34" type="curve" smooth="yes"/>
      <point x="175" y="58"/>
      <point x="153" y="64"/>
      <point x="134" y="64" type="curve" smooth="yes"/>
      <point x="127" y="64" type="line"/>
      <point x="124" y="154"/>
      <point x="123" y="233"/>
      <point x="123" y="322" type="curve" smooth="yes"/>
      <point x="123" y="399"/>
      <point x="122" y="476"/>
      <point x="120" y="554" type="curve"/>
      <point x="143" y="557"/>
      <point x="160" y="562"/>
      <point x="160" y="587" type="curve" smooth="yes"/>
    </contour>
  </outline>
</glyph>
